<?xml version="1.0" encoding="UTF-8"?>
<svg version="1.1" xmlns="http://www.w3.org/2000/svg" width="512" height="512">
<path d="M0 0 C12.98157592 8.0156516 23.63267815 21.50630413 34.36903012 32.23940194 C37.03590068 34.9043995 39.70560982 37.56655124 42.37489414 40.22913074 C48.18905753 46.02980925 53.99952953 51.83417563 59.80916381 57.63938975 C63.44101878 61.26846954 67.07360511 64.89681668 70.70631695 68.52503872 C80.78041834 78.58696794 90.85358726 88.6498286 100.9233017 98.71614838 C101.5655293 99.35815642 102.20775691 100.00016445 102.86944595 100.66162728 C103.51310507 101.30506812 104.15676418 101.94850895 104.81992811 102.61144799 C106.12399482 103.91507125 107.42806309 105.21869296 108.73213291 106.52231312 C109.37897998 107.16893875 110.02582704 107.81556439 110.69227553 108.48178474 C121.19401123 118.97956489 131.702495 129.47056244 142.21386962 139.95869031 C153.0262186 150.74732066 163.83292819 161.54157304 174.63400751 172.34148628 C180.69061882 178.39718193 186.74961274 184.45044973 192.8148489 190.49750805 C197.97305363 195.640306 203.12608066 200.78822239 208.2724589 205.94285616 C210.89616075 208.57046033 213.52220696 211.1956008 216.15487957 213.81421947 C219.01145255 216.65568213 221.85621196 219.50869021 224.70001316 222.36293507 C225.52938119 223.18424669 226.35874923 224.00555832 227.21324962 224.85175818 C235.55795612 233.26830814 240.94176284 241.10341657 240.90962315 253.31503773 C240.86913535 262.62190378 238.71796505 270.09537367 232.23774815 277.03378773 C224.01286968 284.42863259 215.2865059 286.16957941 204.50337315 285.85800648 C186.07094541 284.49734498 171.69351399 263.86305551 159.45552158 251.59946156 C157.55251256 249.69617002 155.64930535 247.79307858 153.74585056 245.89023304 C149.66994837 241.81485177 145.59586133 237.73766344 141.52304935 233.65919399 C135.6346558 227.76262636 129.74345821 221.86886661 123.85160223 215.97575887 C114.2893918 206.41136715 104.72941034 196.84475075 95.17085361 187.27670765 C85.89306344 177.9897194 76.61420935 168.70379623 67.33393955 159.41928577 C66.76060209 158.84568559 66.18726462 158.2720854 65.5965533 157.68110339 C62.71989243 154.80313735 59.84321081 151.92519206 56.96651888 149.04725707 C33.15267008 125.2230644 9.34244847 101.39524974 -14.46537685 77.56503773 C-17.55459951 78.94105602 -19.6618018 80.51425756 -22.04307842 82.90502357 C-22.73930475 83.5991179 -23.43553107 84.29321222 -24.15285516 85.0083397 C-24.91004555 85.77340213 -25.66723593 86.53846456 -26.44737148 87.3267107 C-27.66297162 88.54292261 -27.66297162 88.54292261 -28.90312934 89.78370446 C-31.15119771 92.0348603 -33.39471289 94.29044338 -35.63642192 96.54792869 C-38.05549152 98.98179928 -40.48038046 101.40985919 -42.90463161 103.83856678 C-47.10541829 108.04854109 -51.30268881 112.26199458 -55.49776363 116.47766018 C-61.57034115 122.57976872 -67.6498635 128.67492093 -73.73139533 134.76810398 C-83.60745576 144.66318317 -93.48014188 154.5616208 -103.3496542 164.46323109 C-103.94042605 165.05592087 -104.5311979 165.64861066 -105.13987193 166.25926074 C-111.72755442 172.86847933 -118.31442009 179.4785111 -124.90037441 186.08945179 C-127.28677877 188.48488741 -129.67319046 190.88031571 -132.05961514 193.27573109 C-132.64845314 193.86679074 -133.23729114 194.4578504 -133.84397271 195.06682096 C-143.66982399 204.92942064 -153.50151782 214.78617351 -163.33779216 224.63837785 C-169.40255965 230.7134691 -175.4622465 236.79354286 -181.51545182 242.88015511 C-185.66635718 247.05323204 -189.82265813 251.2208835 -193.98320708 255.38434569 C-196.381984 257.78516716 -198.77735289 260.18914698 -201.16785908 262.59821987 C-203.76348856 265.21327871 -206.36825054 267.81889504 -208.97544765 270.42241383 C-209.72371516 271.18078409 -210.47198266 271.93915435 -211.24292493 272.72050554 C-219.45110116 280.87362724 -227.33114768 285.97131576 -239.21537685 285.94003773 C-248.52224291 285.89954993 -255.9957128 283.74837963 -262.93412685 277.26816273 C-270.32897171 269.04328426 -272.06991854 260.31692048 -271.7583456 249.53378773 C-270.37277393 230.76391013 -249.29435721 216.2377662 -236.79101264 203.73063076 C-234.12601508 201.06376019 -231.46386334 198.39405105 -228.80128384 195.72476673 C-223.00060534 189.91060335 -217.19623895 184.10013134 -211.39102483 178.29049706 C-207.76194504 174.65864209 -204.13359791 171.02605576 -200.50537586 167.39334393 C-190.44344664 157.31924253 -180.38058598 147.24607361 -170.3142662 137.17635918 C-169.35125415 136.21301777 -169.35125415 136.21301777 -168.3687873 135.23021492 C-167.72534647 134.58655581 -167.08190563 133.9428967 -166.41896659 133.27973276 C-165.11534333 131.97566605 -163.81172162 130.67159778 -162.50810146 129.36752796 C-161.86147583 128.7206809 -161.21485019 128.07383383 -160.54862984 127.40738534 C-150.05084969 116.90564964 -139.55985214 106.39716588 -129.07172427 95.88579125 C-118.28309392 85.07344227 -107.48884154 74.26673269 -96.68892831 63.46565336 C-90.63323265 57.40904206 -84.57996485 51.35004813 -78.53290653 45.28481197 C-73.39010858 40.12660725 -68.24219219 34.97358022 -63.08755843 29.82720197 C-60.45995425 27.20350012 -57.83481378 24.57745392 -55.21619511 21.9447813 C-52.37473245 19.08820832 -49.52172437 16.24344891 -46.66747952 13.39964771 C-45.84616789 12.57027968 -45.02485626 11.74091165 -44.1786564 10.88641125 C-32.61520065 -0.57833912 -15.96962653 -8.09131108 0 0 Z " fill="#000000" transform="translate(271.46537685394287,114.43496227264404)"/>
</svg>
