<svg width="512" height="512" version="1.1" xmlns="http://www.w3.org/2000/svg" desc="Created with imagetracer.js version 1.2.6" ><path fill="rgb(21,117,208)" stroke="rgb(21,117,208)" stroke-width="1" opacity="0.32941176470588235" d="M 306.5 0 L 310 0.5 L 306.5 1 L 306.5 0 Z " /><path fill="rgb(21,117,208)" stroke="rgb(21,117,208)" stroke-width="1" opacity="0.32941176470588235" d="M 480.5 0 L 483 0.5 L 480.5 1 L 480.5 0 Z " /><path fill="rgb(21,117,208)" stroke="rgb(21,117,208)" stroke-width="1" opacity="0.32941176470588235" d="M 302.5 1 L 305 1.5 L 300.5 3 L 300.5 2 L 302.5 1 Z " /><path fill="rgb(21,117,208)" stroke="rgb(21,117,208)" stroke-width="1" opacity="0.32941176470588235" d="M 484.5 1 L 487 1.5 L 484.5 2 L 484.5 1 Z " /><path fill="rgb(21,117,208)" stroke="rgb(21,117,208)" stroke-width="1" opacity="0.32941176470588235" d="M 488.5 2 Q 496.5 4.5 501 10.5 L 496.5 7 L 488.5 3 L 488.5 2 Z " /><path fill="rgb(21,117,208)" stroke="rgb(21,117,208)" stroke-width="1" opacity="0.32941176470588235" d="M 296.5 4 L 295.5 6 L 285 14.5 L 281.5 20 L 282 18.5 Q 285 11 291.5 7 L 296.5 4 Z " /><path fill="rgb(21,117,208)" stroke="rgb(21,117,208)" stroke-width="1" opacity="0.32941176470588235" d="M 502.5 12 Q 507.9 16.1 510 23.5 L 509 23.5 L 502.5 12 Z " /><path fill="rgb(21,117,208)" stroke="rgb(21,117,208)" stroke-width="1" opacity="0.32941176470588235" d="M 510.5 25 L 511 27.5 L 510 27.5 L 510.5 25 Z " /><path fill="rgb(21,117,208)" stroke="rgb(21,117,208)" stroke-width="1" opacity="0.32941176470588235" d="M 278.5 26 L 279 28.5 L 278 28.5 L 278.5 26 Z " /><path fill="rgb(21,117,208)" stroke="rgb(21,117,208)" stroke-width="1" opacity="0.32941176470588235" d="M 511.5 29 L 512 32.5 L 511 32.5 L 511.5 29 Z " /><path fill="rgb(21,117,208)" stroke="rgb(21,117,208)" stroke-width="1" opacity="0.32941176470588235" d="M 277.5 30 L 278 35.5 L 277 35.5 L 277.5 30 Z " /><path fill="rgb(21,117,208)" stroke="rgb(21,117,208)" stroke-width="1" opacity="0.32941176470588235" d="M 225.5 158 L 224.5 160 L 225.5 158 Z " /><path fill="rgb(21,117,208)" stroke="rgb(21,117,208)" stroke-width="1" opacity="0.32941176470588235" d="M 222.5 161 L 221.5 163 L 222.5 161 Z " /><path fill="rgb(21,117,208)" stroke="rgb(21,117,208)" stroke-width="1" opacity="0.32941176470588235" d="M 30.5 213 L 36 213.5 L 30.5 214 L 30.5 213 Z " /><path fill="rgb(21,117,208)" stroke="rgb(21,117,208)" stroke-width="1" opacity="0.32941176470588235" d="M 198.5 213 L 204 213.5 L 198.5 214 L 198.5 213 Z " /><path fill="rgb(21,117,208)" stroke="rgb(21,117,208)" stroke-width="1" opacity="0.32941176470588235" d="M 26.5 214 L 29 214.5 L 26.5 215 L 26.5 214 Z " /><path fill="rgb(21,117,208)" stroke="rgb(21,117,208)" stroke-width="1" opacity="0.32941176470588235" d="M 206.5 214 L 211 215.5 L 209.5 216 L 206.5 215 L 206.5 214 Z " /><path fill="rgb(21,117,208)" stroke="rgb(21,117,208)" stroke-width="1" opacity="0.32941176470588235" d="M 212.5 216 L 217 218.5 L 215.5 218 Q 211.8 217.7 212.5 216 Z " /><path fill="rgb(21,117,208)" stroke="rgb(21,117,208)" stroke-width="1" opacity="0.32941176470588235" d="M 19.5 217 L 18.5 219 L 8 227.5 L 5.5 231 L 7 228.5 L 14.5 220 L 19.5 217 Z " /><path fill="rgb(21,117,208)" stroke="rgb(21,117,208)" stroke-width="1" opacity="0.32941176470588235" d="M 218.5 219 L 227 226.5 L 229 229.5 L 226 227.5 L 221.5 222 L 218.5 219 Z " /><path fill="rgb(21,117,208)" stroke="rgb(21,117,208)" stroke-width="1" opacity="0.32941176470588235" d="M 229.5 231 L 232 235.5 L 231 235.5 L 229.5 231 Z " /><path fill="rgb(21,117,208)" stroke="rgb(21,117,208)" stroke-width="1" opacity="0.32941176470588235" d="M 2.5 236 L 3 237.5 L 1.5 241 L 1 238.5 L 2.5 236 Z " /><path fill="rgb(21,117,208)" stroke="rgb(21,117,208)" stroke-width="1" opacity="0.32941176470588235" d="M 233.5 239 L 234 241.5 L 233 241.5 L 233.5 239 Z " /><path fill="rgb(21,117,208)" stroke="rgb(21,117,208)" stroke-width="1" opacity="0.32941176470588235" d="M 0.5 242 L 1 244.5 L 0 244.5 L 0.5 242 Z " /><path fill="rgb(21,117,208)" stroke="rgb(21,117,208)" stroke-width="1" opacity="0.32941176470588235" d="M 234.5 244 L 235 248.5 L 234 248.5 L 234.5 244 Z " /><path fill="rgb(21,117,208)" stroke="rgb(21,117,208)" stroke-width="1" opacity="0.32941176470588235" d="M 277.5 262 L 278 268.5 L 277 268.5 L 277.5 262 Z " /><path fill="rgb(21,117,208)" stroke="rgb(21,117,208)" stroke-width="1" opacity="0.32941176470588235" d="M 511.5 266 L 512 269.5 L 511 269.5 L 511.5 266 Z " /><path fill="rgb(21,117,208)" stroke="rgb(21,117,208)" stroke-width="1" opacity="0.32941176470588235" d="M 278.5 270 L 280 274.5 L 279 274.5 L 278.5 270 Z " /><path fill="rgb(21,117,208)" stroke="rgb(21,117,208)" stroke-width="1" opacity="0.32941176470588235" d="M 510.5 271 L 511 273.5 L 509.5 276 L 509 274.5 L 510.5 271 Z " /><path fill="rgb(21,117,208)" stroke="rgb(21,117,208)" stroke-width="1" opacity="0.32941176470588235" d="M 280.5 276 L 283 280.5 L 281 279.5 L 280.5 276 Z " /><path fill="rgb(21,117,208)" stroke="rgb(21,117,208)" stroke-width="1" opacity="0.32941176470588235" d="M 507.5 279 L 507 280.5 L 505.5 283 L 506 281.5 L 507.5 279 Z " /><path fill="rgb(21,117,208)" stroke="rgb(21,117,208)" stroke-width="1" opacity="0.32941176470588235" d="M 283.5 282 L 290.5 290 L 294 292.5 L 291.5 291 L 285 285.5 L 283.5 282 Z " /><path fill="rgb(21,117,208)" stroke="rgb(21,117,208)" stroke-width="1" opacity="0.32941176470588235" d="M 504.5 284 L 497.5 292 L 487.5 297 L 487.5 296 Q 498.4 292.4 504.5 284 Z " /><path fill="rgb(21,117,208)" stroke="rgb(21,117,208)" stroke-width="1" opacity="0.32941176470588235" d="M 295.5 293 L 300 295.5 L 298.5 296 L 295.5 293 Z " /><path fill="rgb(21,117,208)" stroke="rgb(21,117,208)" stroke-width="1" opacity="0.32941176470588235" d="M 301.5 296 L 306 297.5 L 303.5 298 L 301.5 296 Z " /><path fill="rgb(21,117,208)" stroke="rgb(21,117,208)" stroke-width="1" opacity="0.32941176470588235" d="M 483.5 297 L 486 297.5 L 483.5 298 L 483.5 297 Z " /><path fill="rgb(21,117,208)" stroke="rgb(21,117,208)" stroke-width="1" opacity="0.32941176470588235" d="M 308.5 298 L 314 298.5 L 308.5 299 L 308.5 298 Z " /><path fill="rgb(21,117,208)" stroke="rgb(21,117,208)" stroke-width="1" opacity="0.32941176470588235" d="M 476.5 298 L 482 298.5 L 476.5 299 L 476.5 298 Z " /><path fill="rgb(21,117,208)" stroke="rgb(21,117,208)" stroke-width="1" opacity="0.32941176470588235" d="M 289.5 350 L 288.5 352 L 289.5 350 Z " /><path fill="rgb(21,117,208)" stroke="rgb(21,117,208)" stroke-width="1" opacity="0.32941176470588235" d="M 234.5 476 L 235 481.5 L 234 481.5 L 234.5 476 Z " /><path fill="rgb(21,117,208)" stroke="rgb(21,117,208)" stroke-width="1" opacity="0.32941176470588235" d="M 0.5 480 L 1 482.5 L 0 482.5 L 0.5 480 Z " /><path fill="rgb(21,117,208)" stroke="rgb(21,117,208)" stroke-width="1" opacity="0.32941176470588235" d="M 233.5 483 L 234 485.5 L 233 485.5 L 233.5 483 Z " /><path fill="rgb(21,117,208)" stroke="rgb(21,117,208)" stroke-width="1" opacity="0.32941176470588235" d="M 1.5 484 L 2 486.5 L 1 486.5 L 1.5 484 Z " /><path fill="rgb(21,117,208)" stroke="rgb(21,117,208)" stroke-width="1" opacity="0.32941176470588235" d="M 232.5 487 L 233 488.5 Q 228.8 498.8 220.5 505 L 217.5 507 L 219.5 504 L 227 497.5 L 232.5 487 Z " /><path fill="rgb(21,117,208)" stroke="rgb(21,117,208)" stroke-width="1" opacity="0.32941176470588235" d="M 2.5 488 Q 6.7 498.8 15.5 505 L 24 509.5 L 22.5 510 Q 12.2 505.3 6 496.5 L 2 489.5 L 2.5 488 Z " /><path fill="rgb(21,117,208)" stroke="rgb(21,117,208)" stroke-width="1" opacity="0.32941176470588235" d="M 210.5 509 L 212 509.5 L 207.5 511 L 207.5 510 L 210.5 509 Z " /><path fill="rgb(21,117,208)" stroke="rgb(21,117,208)" stroke-width="1" opacity="0.32941176470588235" d="M 25.5 510 L 28 510.5 L 25.5 511 L 25.5 510 Z " /><path fill="rgb(21,117,208)" stroke="rgb(21,117,208)" stroke-width="1" opacity="0.32941176470588235" d="M 29.5 511 L 32 511.5 L 29.5 512 L 29.5 511 Z " /><path fill="rgb(21,117,208)" stroke="rgb(21,117,208)" stroke-width="1" opacity="0.32941176470588235" d="M 202.5 511 L 206 511.5 L 202.5 512 L 202.5 511 Z " /><path fill="rgb(25,118,210)" stroke="rgb(25,118,210)" stroke-width="1" opacity="0.996078431372549" d="M 310.5 0 L 314 0.5 L 310.5 1 L 310.5 0 Z " /><path fill="rgb(25,118,210)" stroke="rgb(25,118,210)" stroke-width="1" opacity="0.996078431372549" d="M 475.5 0 L 480 0.5 L 475.5 1 L 475.5 0 Z " /><path fill="rgb(25,118,210)" stroke="rgb(25,118,210)" stroke-width="1" opacity="0.996078431372549" d="M 493.5 5 L 494.5 7 L 493.5 5 Z " /><path fill="rgb(25,118,210)" stroke="rgb(25,118,210)" stroke-width="1" opacity="0.996078431372549" d="M 496.5 7 L 498.5 10 L 496.5 7 Z " /><path fill="rgb(25,118,210)" stroke="rgb(25,118,210)" stroke-width="1" opacity="0.996078431372549" d="M 291.5 8 L 285.5 15 L 291.5 8 Z " /><path fill="rgb(25,118,210)" stroke="rgb(25,118,210)" stroke-width="1" opacity="0.996078431372549" d="M 502.5 13 L 504.5 16 L 502.5 13 Z " /><path fill="rgb(25,118,210)" stroke="rgb(25,118,210)" stroke-width="1" opacity="0.996078431372549" d="M 284.5 16 L 283.5 18 L 284.5 16 Z " /><path fill="rgb(25,118,210)" stroke="rgb(25,118,210)" stroke-width="1" opacity="0.996078431372549" d="M 505.5 17 L 506.5 19 L 505.5 17 Z " /><path fill="rgb(25,118,210)" stroke="rgb(25,118,210)" stroke-width="1" opacity="0.996078431372549" d="M 511.5 33 L 512 37.5 L 511 37.5 L 511.5 33 Z " /><path fill="rgb(25,118,210)" stroke="rgb(25,118,210)" stroke-width="1" opacity="0.996078431372549" d="M 277.5 37 L 278 261.5 L 277 261.5 L 277.5 37 Z " /><path fill="rgb(25,118,210)" stroke="rgb(25,118,210)" stroke-width="1" opacity="0.996078431372549" d="M 37.5 213 L 198 213.5 L 37.5 214 L 37.5 213 Z " /><path fill="rgb(25,118,210)" stroke="rgb(25,118,210)" stroke-width="1" opacity="0.996078431372549" d="M 17.5 219 L 16.5 221 L 17.5 219 Z " /><path fill="rgb(25,118,210)" stroke="rgb(25,118,210)" stroke-width="1" opacity="0.996078431372549" d="M 217.5 219 L 219.5 222 L 217.5 219 Z " /><path fill="rgb(25,118,210)" stroke="rgb(25,118,210)" stroke-width="1" opacity="0.996078431372549" d="M 14.5 221 L 8.5 228 L 14.5 221 Z " /><path fill="rgb(25,118,210)" stroke="rgb(25,118,210)" stroke-width="1" opacity="0.996078431372549" d="M 221.5 222 L 225.5 227 L 221.5 222 Z " /><path fill="rgb(25,118,210)" stroke="rgb(25,118,210)" stroke-width="1" opacity="0.996078431372549" d="M 226.5 228 L 228.5 231 L 226.5 228 Z " /><path fill="rgb(25,118,210)" stroke="rgb(25,118,210)" stroke-width="1" opacity="0.996078431372549" d="M 6.5 230 L 5.5 232 L 6.5 230 Z " /><path fill="rgb(25,118,210)" stroke="rgb(25,118,210)" stroke-width="1" opacity="0.996078431372549" d="M 0.5 246 L 1 250.5 L 0 250.5 L 0.5 246 Z " /><path fill="rgb(25,118,210)" stroke="rgb(25,118,210)" stroke-width="1" opacity="0.996078431372549" d="M 234.5 250 L 235 474.5 L 234 474.5 L 234.5 250 Z " /><path fill="rgb(25,118,210)" stroke="rgb(25,118,210)" stroke-width="1" opacity="0.996078431372549" d="M 511.5 261 L 512 265.5 L 511 265.5 L 511.5 261 Z " /><path fill="rgb(25,118,210)" stroke="rgb(25,118,210)" stroke-width="1" opacity="0.996078431372549" d="M 507.5 278 L 506.5 280 L 507.5 278 Z " /><path fill="rgb(25,118,210)" stroke="rgb(25,118,210)" stroke-width="1" opacity="0.996078431372549" d="M 283.5 281 L 285.5 284 L 283.5 281 Z " /><path fill="rgb(25,118,210)" stroke="rgb(25,118,210)" stroke-width="1" opacity="0.996078431372549" d="M 504.5 283 L 497.5 291 L 504.5 283 Z " /><path fill="rgb(25,118,210)" stroke="rgb(25,118,210)" stroke-width="1" opacity="0.996078431372549" d="M 286.5 285 L 290.5 290 L 286.5 285 Z " /><path fill="rgb(25,118,210)" stroke="rgb(25,118,210)" stroke-width="1" opacity="0.996078431372549" d="M 292.5 290 L 294.5 293 L 292.5 290 Z " /><path fill="rgb(25,118,210)" stroke="rgb(25,118,210)" stroke-width="1" opacity="0.996078431372549" d="M 495.5 291 L 494.5 293 L 495.5 291 Z " /><path fill="rgb(25,118,210)" stroke="rgb(25,118,210)" stroke-width="1" opacity="0.996078431372549" d="M 314.5 298 L 475 298.5 L 314.5 299 L 314.5 298 Z " /><path fill="rgb(25,118,210)" stroke="rgb(25,118,210)" stroke-width="1" opacity="0.996078431372549" d="M 0.5 474 L 1 479.5 L 0 479.5 L 0.5 474 Z " /><path fill="rgb(25,118,210)" stroke="rgb(25,118,210)" stroke-width="1" opacity="0.996078431372549" d="M 5.5 493 L 6.5 495 L 5.5 493 Z " /><path fill="rgb(25,118,210)" stroke="rgb(25,118,210)" stroke-width="1" opacity="0.996078431372549" d="M 228.5 494 L 227.5 496 L 228.5 494 Z " /><path fill="rgb(25,118,210)" stroke="rgb(25,118,210)" stroke-width="1" opacity="0.996078431372549" d="M 7.5 496 L 9.5 499 L 7.5 496 Z " /><path fill="rgb(25,118,210)" stroke="rgb(25,118,210)" stroke-width="1" opacity="0.996078431372549" d="M 226.5 497 L 220.5 504 L 226.5 497 Z " /><path fill="rgb(25,118,210)" stroke="rgb(25,118,210)" stroke-width="1" opacity="0.996078431372549" d="M 13.5 502 L 15.5 505 L 13.5 502 Z " /><path fill="rgb(25,118,210)" stroke="rgb(25,118,210)" stroke-width="1" opacity="0.996078431372549" d="M 17.5 505 L 18.5 507 L 17.5 505 Z " /><path fill="rgb(25,118,210)" stroke="rgb(25,118,210)" stroke-width="1" opacity="0.996078431372549" d="M 217.5 505 L 216.5 507 L 217.5 505 Z " /><path fill="rgb(25,118,210)" stroke="rgb(25,118,210)" stroke-width="1" opacity="0.996078431372549" d="M 32.5 511 L 37 511.5 L 32.5 512 L 32.5 511 Z " /><path fill="rgb(25,118,210)" stroke="rgb(25,118,210)" stroke-width="1" opacity="0.996078431372549" d="M 198.5 511 L 202 511.5 L 198.5 512 L 198.5 511 Z " /><path fill="rgb(33,150,243)" stroke="rgb(33,150,243)" stroke-width="1" opacity="0.5882352941176471" d="M 29.5 0 L 34 0.5 L 29.5 1 L 29.5 0 Z " /><path fill="rgb(33,150,243)" stroke="rgb(33,150,243)" stroke-width="1" opacity="0.5882352941176471" d="M 201.5 0 L 206 0.5 L 201.5 1 L 201.5 0 Z " /><path fill="rgb(33,150,243)" stroke="rgb(33,150,243)" stroke-width="1" opacity="0.5882352941176471" d="M 22.5 2 L 25 2.5 L 16.5 7 L 18.5 4 L 22.5 2 Z " /><path fill="rgb(33,150,243)" stroke="rgb(33,150,243)" stroke-width="1" opacity="0.5882352941176471" d="M 210.5 2 Q 221.8 5.8 228 14.5 L 229 16.5 L 226 14.5 L 220.5 8 L 210.5 3 L 210.5 2 Z " /><path fill="rgb(33,150,243)" stroke="rgb(33,150,243)" stroke-width="1" opacity="0.5882352941176471" d="M 14.5 7 L 7.5 15 L 14.5 7 Z " /><path fill="rgb(33,150,243)" stroke="rgb(33,150,243)" stroke-width="1" opacity="0.5882352941176471" d="M 6.5 16 L 5 18.5 L 4.5 20 L 4 18.5 L 6.5 16 Z " /><path fill="rgb(33,150,243)" stroke="rgb(33,150,243)" stroke-width="1" opacity="0.5882352941176471" d="M 229.5 18 L 232 22.5 L 231 22.5 L 229.5 18 Z " /><path fill="rgb(33,150,243)" stroke="rgb(33,150,243)" stroke-width="1" opacity="0.5882352941176471" d="M 3.5 21 L 3 22.5 L 2.5 25 L 2 22.5 L 3.5 21 Z " /><path fill="rgb(33,150,243)" stroke="rgb(33,150,243)" stroke-width="1" opacity="0.5882352941176471" d="M 0.5 29 L 1 32.5 L 0 32.5 L 0.5 29 Z " /><path fill="rgb(33,150,243)" stroke="rgb(33,150,243)" stroke-width="1" opacity="0.5882352941176471" d="M 234.5 30 L 235 139.5 L 234 139.5 L 234.5 30 Z " /><path fill="rgb(33,150,243)" stroke="rgb(33,150,243)" stroke-width="1" opacity="0.5882352941176471" d="M 0.5 137 L 1 140.5 L 0 140.5 L 0.5 137 Z " /><path fill="rgb(33,150,243)" stroke="rgb(33,150,243)" stroke-width="1" opacity="0.5882352941176471" d="M 233.5 141 L 234 143.5 L 233 143.5 L 233.5 141 Z " /><path fill="rgb(33,150,243)" stroke="rgb(33,150,243)" stroke-width="1" opacity="0.5882352941176471" d="M 2.5 146 L 8 155.5 L 5 153.5 L 2.5 146 Z " /><path fill="rgb(33,150,243)" stroke="rgb(33,150,243)" stroke-width="1" opacity="0.5882352941176471" d="M 229.5 152 L 229 153.5 L 227 158 L 224.5 159 L 228 154.5 L 229.5 152 Z " /><path fill="rgb(33,150,243)" stroke="rgb(33,150,243)" stroke-width="1" opacity="0.5882352941176471" d="M 8.5 157 L 17 164.5 L 14.5 163 L 8.5 157 Z " /><path fill="rgb(33,150,243)" stroke="rgb(33,150,243)" stroke-width="1" opacity="0.5882352941176471" d="M 222.5 160 L 224 160.5 L 216.5 166 L 217.5 164 L 222.5 160 Z " /><path fill="rgb(33,150,243)" stroke="rgb(33,150,243)" stroke-width="1" opacity="0.5882352941176471" d="M 18.5 165 L 29 169.5 L 26.5 170 L 19.5 167 L 18.5 165 Z " /><path fill="rgb(33,150,243)" stroke="rgb(33,150,243)" stroke-width="1" opacity="0.5882352941176471" d="M 214.5 166 L 213.5 168 L 212 167.5 L 214.5 166 Z " /><path fill="rgb(33,150,243)" stroke="rgb(33,150,243)" stroke-width="1" opacity="0.5882352941176471" d="M 205.5 169 L 208 169.5 L 205.5 170 L 205.5 169 Z " /><path fill="rgb(33,150,243)" stroke="rgb(33,150,243)" stroke-width="1" opacity="0.5882352941176471" d="M 30.5 170 L 204 170.5 L 30.5 171 L 30.5 170 Z " /><path fill="rgb(33,150,243)" stroke="rgb(33,150,243)" stroke-width="1" opacity="0.5882352941176471" d="M 308.5 341 L 482 341.5 L 308.5 342 L 308.5 341 Z " /><path fill="rgb(33,150,243)" stroke="rgb(33,150,243)" stroke-width="1" opacity="0.5882352941176471" d="M 303.5 342 L 307 342.5 L 301.5 344 L 301.5 343 L 303.5 342 Z " /><path fill="rgb(33,150,243)" stroke="rgb(33,150,243)" stroke-width="1" opacity="0.5882352941176471" d="M 483.5 342 L 488 343.5 L 486.5 344 L 483.5 343 L 483.5 342 Z " /><path fill="rgb(33,150,243)" stroke="rgb(33,150,243)" stroke-width="1" opacity="0.5882352941176471" d="M 489.5 344 L 494 346.5 L 492.5 346 Q 488.8 345.7 489.5 344 Z " /><path fill="rgb(33,150,243)" stroke="rgb(33,150,243)" stroke-width="1" opacity="0.5882352941176471" d="M 295.5 346 L 294.5 348 L 295.5 346 Z " /><path fill="rgb(33,150,243)" stroke="rgb(33,150,243)" stroke-width="1" opacity="0.5882352941176471" d="M 495.5 347 L 504 354.5 L 498.5 350 L 495.5 347 Z " /><path fill="rgb(33,150,243)" stroke="rgb(33,150,243)" stroke-width="1" opacity="0.5882352941176471" d="M 292.5 348 L 289.5 352 L 290 350.5 Q 289.3 348.3 291.5 349 L 292.5 348 Z " /><path fill="rgb(33,150,243)" stroke="rgb(33,150,243)" stroke-width="1" opacity="0.5882352941176471" d="M 287.5 352 L 288 353.5 L 284 356.5 L 285 354 Q 287.8 355 287.5 352 Z " /><path fill="rgb(33,150,243)" stroke="rgb(33,150,243)" stroke-width="1" opacity="0.5882352941176471" d="M 504.5 356 L 505.5 358 L 504.5 356 Z " /><path fill="rgb(33,150,243)" stroke="rgb(33,150,243)" stroke-width="1" opacity="0.5882352941176471" d="M 283.5 358 L 282.5 360 L 283.5 358 Z " /><path fill="rgb(33,150,243)" stroke="rgb(33,150,243)" stroke-width="1" opacity="0.5882352941176471" d="M 506.5 359 L 510 365.5 L 509 365.5 L 506.5 359 Z " /><path fill="rgb(33,150,243)" stroke="rgb(33,150,243)" stroke-width="1" opacity="0.5882352941176471" d="M 281.5 361 L 281 362.5 L 280.5 364 L 280 362.5 L 281.5 361 Z " /><path fill="rgb(33,150,243)" stroke="rgb(33,150,243)" stroke-width="1" opacity="0.5882352941176471" d="M 279.5 365 L 280 366.5 L 278.5 371 L 278 367.5 L 279.5 365 Z " /><path fill="rgb(33,150,243)" stroke="rgb(33,150,243)" stroke-width="1" opacity="0.5882352941176471" d="M 511.5 370 L 512 374.5 L 511 374.5 L 511.5 370 Z " /><path fill="rgb(33,150,243)" stroke="rgb(33,150,243)" stroke-width="1" opacity="0.5882352941176471" d="M 277.5 372 L 278 481.5 L 277 481.5 L 277.5 372 Z " /><path fill="rgb(33,150,243)" stroke="rgb(33,150,243)" stroke-width="1" opacity="0.5882352941176471" d="M 511.5 478 L 512 482.5 L 511 482.5 L 511.5 478 Z " /><path fill="rgb(33,150,243)" stroke="rgb(33,150,243)" stroke-width="1" opacity="0.5882352941176471" d="M 278.5 483 L 280 487.5 L 279 487.5 L 278.5 483 Z " /><path fill="rgb(33,150,243)" stroke="rgb(33,150,243)" stroke-width="1" opacity="0.5882352941176471" d="M 509.5 487 L 510 489.5 L 508 490.5 L 509.5 487 Z " /><path fill="rgb(33,150,243)" stroke="rgb(33,150,243)" stroke-width="1" opacity="0.5882352941176471" d="M 280.5 489 L 283 493.5 L 281 492.5 L 280.5 489 Z " /><path fill="rgb(33,150,243)" stroke="rgb(33,150,243)" stroke-width="1" opacity="0.5882352941176471" d="M 507.5 492 L 508 493.5 L 505 495.5 L 507.5 492 Z " /><path fill="rgb(33,150,243)" stroke="rgb(33,150,243)" stroke-width="1" opacity="0.5882352941176471" d="M 283.5 495 L 291 503.5 L 284 497.5 L 283.5 495 Z " /><path fill="rgb(33,150,243)" stroke="rgb(33,150,243)" stroke-width="1" opacity="0.5882352941176471" d="M 504.5 497 L 497.5 505 L 504.5 497 Z " /><path fill="rgb(33,150,243)" stroke="rgb(33,150,243)" stroke-width="1" opacity="0.5882352941176471" d="M 292.5 504 L 302 509.5 L 300.5 510 Q 294 508.3 292.5 504 Z " /><path fill="rgb(33,150,243)" stroke="rgb(33,150,243)" stroke-width="1" opacity="0.5882352941176471" d="M 495.5 505 L 494.5 507 L 495.5 505 Z " /><path fill="rgb(33,150,243)" stroke="rgb(33,150,243)" stroke-width="1" opacity="0.5882352941176471" d="M 490.5 508 L 489.5 510 L 484.5 511 L 484.5 510 L 490.5 508 Z " /><path fill="rgb(33,150,243)" stroke="rgb(33,150,243)" stroke-width="1" opacity="0.5882352941176471" d="M 306.5 511 L 311 511.5 L 306.5 512 L 306.5 511 Z " /><path fill="rgb(33,150,243)" stroke="rgb(33,150,243)" stroke-width="1" opacity="0.5882352941176471" d="M 478.5 511 L 483 511.5 L 478.5 512 L 478.5 511 Z " /><path fill="rgb(0,0,0)" stroke="rgb(0,0,0)" stroke-width="1" opacity="0" d="M 0 0 L 29 0.5 L 18.5 4 L 10 10 L 4 18.5 L 0.5 28 L 0 0 Z " /><path fill="rgb(0,0,0)" stroke="rgb(0,0,0)" stroke-width="1" opacity="0" d="M 206.5 0 L 306 0.5 Q 291.5 4 284 14.5 Q 278.9 20.9 277 30.5 L 277 268.5 Q 280.4 283.1 290.5 291 Q 297.5 297 308.5 299 L 481.5 299 Q 497 295.5 505 284.5 L 511 273.5 L 511.5 270 L 512 369.5 L 511 369.5 Q 507.9 355.1 497.5 348 Q 491.1 342.9 481.5 341 L 307.5 341 Q 292.9 344.4 285 354.5 Q 279.1 361.1 277 371.5 L 277 481.5 Q 280.5 497 291.5 505 L 302.5 511 L 306 511.5 L 206.5 512 L 206.5 511 Q 220.9 507.9 228 497.5 Q 233.1 491.1 235 481.5 L 235 244.5 Q 232 229 221.5 221 Q 214.5 215 203.5 213 L 30.5 213 Q 15 216.5 7 227.5 L 1 238.5 L 0.5 242 L 0 142.5 L 1 142.5 Q 4.1 156.9 14.5 164 Q 20.9 169.1 30.5 171 L 203.5 171 Q 219 168 227 157.5 Q 232.7 150.7 235 140.5 L 235 30.5 Q 231.5 15 220.5 7 L 209.5 1 L 206.5 1 L 206.5 0 Z " /><path fill="rgb(0,0,0)" stroke="rgb(0,0,0)" stroke-width="1" opacity="0" d="M 483.5 0 L 512 0 L 512 28.5 L 511 28.5 L 508 18.5 L 496.5 6 Q 492 1.5 483.5 1 L 483.5 0 Z " /><path fill="rgb(0,0,0)" stroke="rgb(0,0,0)" stroke-width="1" opacity="0" d="M 0.5 483 Q 3.6 498.9 15.5 506 Q 20.6 510.4 29 511.5 L 0 512 L 0.5 483 Z " /><path fill="rgb(0,0,0)" stroke="rgb(0,0,0)" stroke-width="1" opacity="0" d="M 511.5 483 L 512 512 L 483 511.5 L 493.5 508 L 502 502 L 508 493.5 L 511.5 483 Z " /><path fill="rgb(25,118,210)" stroke="rgb(25,118,210)" stroke-width="1" opacity="1" d="M 314.5 0 L 474.5 0 L 488.5 3 L 502 12.5 L 509 23.5 L 512 38.5 L 512 260.5 Q 509.2 262.2 511 268.5 L 508 277.5 L 496.5 291 Q 490.1 296.1 480.5 298 L 308.5 298 Q 293.8 294.8 286 284.5 Q 280.1 277.9 278 267.5 L 278 31.5 Q 281.8 15.3 293.5 7 L 300.5 3 L 314.5 0 Z " /><path fill="rgb(25,118,210)" stroke="rgb(25,118,210)" stroke-width="1" opacity="1" d="M 31.5 214 L 203.5 214 Q 218.3 217.3 226 227.5 Q 231.9 234.1 234 244.5 L 234 480.5 Q 230.2 496.7 218.5 505 L 211.5 509 L 197.5 512 L 37.5 512 L 23.5 509 L 10 499.5 L 3 488.5 L 0 473.5 L 0 251.5 L 1 250.5 L 2 239.5 L 5 232.5 L 15.5 221 Q 21.9 215.9 31.5 214 Z " /><path fill="rgb(33,150,243)" stroke="rgb(33,150,243)" stroke-width="1" opacity="1" d="M 34.5 0 L 200.5 0 Q 217.3 2.7 226 13.5 L 234 29.5 L 234 140.5 L 230 151.5 L 224 160 L 215.5 166 L 204.5 170 L 29.5 170 Q 15.6 166.4 8 156.5 L 2 145.5 L 0 136.5 L 0 35.5 Q 2.5 34 1 28.5 L 5 18.5 L 14.5 8 L 22.5 3 L 34.5 0 Z " /><path fill="rgb(33,150,243)" stroke="rgb(33,150,243)" stroke-width="1" opacity="1" d="M 307.5 342 L 481.5 342 Q 496.3 345.3 504 355.5 L 510 366.5 L 512 375.5 L 512 477.5 L 507 493.5 L 496.5 505 L 489.5 509 L 476.5 512 L 311.5 512 Q 294.7 509.3 286 498.5 L 278 482.5 L 278 371.5 L 282 360.5 L 288 352 L 298.5 345 L 307.5 342 Z " /></svg>