<svg width="512" height="512" version="1.1" xmlns="http://www.w3.org/2000/svg" desc="Created with imagetracer.js version 1.2.6" ><path fill="rgb(0,0,0)" stroke="rgb(0,0,0)" stroke-width="1" opacity="0" d="M 0 0 L 512 0 L 512 512 L 0 512 L 0 0 Z M 118 72 Q 100 76 89 87 Q 76 98 72 118 L 72 395 Q 76 412 87 424 Q 98 436 118 440 L 395 440 Q 412 436 424 425 Q 436 414 440 395 L 440 230 L 439 228 L 431 221 Q 422 220 419 223 L 413 231 L 413 388 L 407 402 Q 401 411 388 413 L 125 413 L 111 407 Q 102 400 99 388 L 99 125 L 105 111 Q 112 102 125 99 L 282 99 L 286 97 L 291 90 Q 292 81 289 78 L 283 72 L 118 72 Z M 372 72 Q 353 75 343 86 L 171 258 L 161 274 L 157 289 L 157 326 Q 159 335 164 342 Q 172 352 187 355 L 224 355 Q 225 353 230 354 Q 244 350 254 342 L 427 169 Q 437 157 440 140 L 440 122 L 438 113 Q 434 100 426 92 Q 416 80 400 74 L 392 72 L 372 72 Z " /><path fill="rgb(0,0,0)" stroke="rgb(0,0,0)" stroke-width="1" opacity="0" d="M 376.5 99 Q 398.9 98.1 407 111.5 Q 414 119.5 413 135.5 L 407 149.5 L 384.5 172 L 340 128.5 L 362.5 105 L 376.5 99 Z " /><path fill="rgb(0,0,0)" stroke="rgb(0,0,0)" stroke-width="1" opacity="0" d="M 319.5 148 L 364 191.5 L 234.5 322 L 227.5 326 L 218.5 328 L 191.5 328 L 185 323.5 L 184 320.5 L 184 292.5 L 186 284.5 L 190 277.5 L 319.5 148 Z " /><path fill="rgb(8,141,38)" stroke="rgb(8,141,38)" stroke-width="1" opacity="0.9686274509803922" d="M 371.5 72 L 391.5 72 L 399.5 74 Q 415.7 79.8 426 91.5 Q 433.6 100.4 438 112.5 L 440 121.5 L 440 139.5 Q 436.7 157.2 427 168.5 L 253.5 342 Q 243.7 350.2 229.5 354 Q 224.8 352.8 223.5 355 L 186.5 355 Q 171.8 351.8 164 341.5 Q 158.9 335.1 157 325.5 L 157 288.5 L 161 273.5 L 171 257.5 L 342.5 86 Q 353.5 75.5 371.5 72 Z M 377 99 L 363 105 L 340 129 L 385 172 L 407 150 L 413 136 Q 414 120 407 112 Q 399 98 377 99 Z M 320 148 L 190 278 L 186 285 L 184 293 L 184 321 L 185 324 L 192 328 L 219 328 L 228 326 L 235 322 L 364 192 L 320 148 Z " /><path fill="rgb(84,218,113)" stroke="rgb(84,218,113)" stroke-width="1" opacity="0.6078431372549019" d="M 117.5 72 L 124 72.5 L 110.5 75 L 110.5 74 L 117.5 72 Z " /><path fill="rgb(84,218,113)" stroke="rgb(84,218,113)" stroke-width="1" opacity="0.6078431372549019" d="M 279.5 72 Q 286.8 72.3 289 77.5 Q 292.3 81.2 291 89.5 L 285.5 97 L 281.5 99 L 125.5 99 L 125.5 98 L 281.5 98 L 287 95 L 290 89.5 L 290 81.5 L 284.5 74 L 279.5 73 L 279.5 72 Z " /><path fill="rgb(84,218,113)" stroke="rgb(84,218,113)" stroke-width="1" opacity="0.6078431372549019" d="M 107.5 75 L 109 75.5 L 103.5 78 L 103.5 77 L 107.5 75 Z " /><path fill="rgb(84,218,113)" stroke="rgb(84,218,113)" stroke-width="1" opacity="0.6078431372549019" d="M 101.5 78 L 100.5 80 Q 90.2 84.7 84 93.5 L 78.5 102 L 79 100.5 Q 82.2 92.2 88.5 87 L 101.5 78 Z " /><path fill="rgb(84,218,113)" stroke="rgb(84,218,113)" stroke-width="1" opacity="0.6078431372549019" d="M 120.5 99 L 124 99.5 Q 111.2 101.7 105 110.5 Q 100.6 115.6 99.5 124 L 99 120.5 Q 102.4 108.9 111.5 103 L 120.5 99 Z " /><path fill="rgb(84,218,113)" stroke="rgb(84,218,113)" stroke-width="1" opacity="0.6078431372549019" d="M 77.5 103 L 78 104.5 L 75.5 109 L 75 107.5 L 77.5 103 Z " /><path fill="rgb(84,218,113)" stroke="rgb(84,218,113)" stroke-width="1" opacity="0.6078431372549019" d="M 74.5 110 L 75 112.5 Q 72.3 116.8 72.5 124 L 72 117.5 L 74.5 110 Z " /><path fill="rgb(84,218,113)" stroke="rgb(84,218,113)" stroke-width="1" opacity="0.6078431372549019" d="M 98.5 125 L 99 386.5 L 98 386.5 L 98.5 125 Z " /><path fill="rgb(84,218,113)" stroke="rgb(84,218,113)" stroke-width="1" opacity="0.6078431372549019" d="M 422.5 221 L 430.5 221 L 439 227.5 L 440 232.5 L 439 232.5 Q 438.9 226.1 434.5 224 Q 430.8 220.7 422.5 222 L 417 225 L 414 230.5 L 413.5 387 L 413 230.5 L 418.5 223 L 422.5 221 Z " /><path fill="rgb(84,218,113)" stroke="rgb(84,218,113)" stroke-width="1" opacity="0.6078431372549019" d="M 72.5 388 Q 73.2 400.3 78 408.5 L 77 408.5 L 72 394.5 L 72.5 388 Z " /><path fill="rgb(84,218,113)" stroke="rgb(84,218,113)" stroke-width="1" opacity="0.6078431372549019" d="M 99.5 388 Q 101.7 400.8 110.5 407 Q 115.6 411.4 124 412.5 L 120.5 413 Q 108.9 409.6 103 400.5 L 99 391.5 L 99.5 388 Z " /><path fill="rgb(84,218,113)" stroke="rgb(84,218,113)" stroke-width="1" opacity="0.6078431372549019" d="M 412.5 388 L 413 391.5 Q 409.6 403.1 400.5 409 Q 396 412.5 388.5 413 L 388.5 412 Q 401.4 410.4 407 401.5 Q 411.4 396.4 412.5 388 Z " /><path fill="rgb(84,218,113)" stroke="rgb(84,218,113)" stroke-width="1" opacity="0.6078431372549019" d="M 439.5 388 L 440 394.5 L 434.5 409 L 434 407.5 Q 439 400 439.5 388 Z " /><path fill="rgb(84,218,113)" stroke="rgb(84,218,113)" stroke-width="1" opacity="0.6078431372549019" d="M 78.5 410 Q 84.2 420.8 93.5 428 L 102 433.5 L 100.5 433 Q 92.2 429.8 87 423.5 Q 80.2 417.7 78.5 410 Z " /><path fill="rgb(84,218,113)" stroke="rgb(84,218,113)" stroke-width="1" opacity="0.6078431372549019" d="M 433.5 410 L 433 411.5 Q 429.8 419.8 423.5 425 L 410.5 434 L 411.5 432 Q 421.8 427.3 428 418.5 L 433.5 410 Z " /><path fill="rgb(84,218,113)" stroke="rgb(84,218,113)" stroke-width="1" opacity="0.6078431372549019" d="M 125.5 413 L 387 413.5 L 125.5 414 L 125.5 413 Z " /><path fill="rgb(84,218,113)" stroke="rgb(84,218,113)" stroke-width="1" opacity="0.6078431372549019" d="M 103.5 434 Q 111.7 438.8 124 439.5 L 117.5 440 L 107.5 437 L 103.5 435 L 103.5 434 Z " /><path fill="rgb(84,218,113)" stroke="rgb(84,218,113)" stroke-width="1" opacity="0.6078431372549019" d="M 407.5 434 L 409 434.5 L 403.5 437 L 403.5 436 L 407.5 434 Z " /><path fill="rgb(84,218,113)" stroke="rgb(84,218,113)" stroke-width="1" opacity="0.6078431372549019" d="M 399.5 437 L 402 437.5 L 394.5 440 L 388.5 440 L 388.5 439 Q 395.9 439.9 399.5 437 Z " /><path fill="rgb(84,218,114)" stroke="rgb(84,218,114)" stroke-width="1" opacity="0.996078431372549" d="M 124.5 72 L 128 72.5 L 124.5 73 L 124.5 72 Z " /><path fill="rgb(84,218,114)" stroke="rgb(84,218,114)" stroke-width="1" opacity="0.996078431372549" d="M 284.5 74 L 287.5 78 L 284.5 74 Z " /><path fill="rgb(84,218,114)" stroke="rgb(84,218,114)" stroke-width="1" opacity="0.996078431372549" d="M 97.5 81 L 96.5 83 L 97.5 81 Z " /><path fill="rgb(84,218,114)" stroke="rgb(84,218,114)" stroke-width="1" opacity="0.996078431372549" d="M 93.5 84 L 92.5 86 L 93.5 84 Z " /><path fill="rgb(84,218,114)" stroke="rgb(84,218,114)" stroke-width="1" opacity="0.996078431372549" d="M 85.5 92 L 84.5 94 L 85.5 92 Z " /><path fill="rgb(84,218,114)" stroke="rgb(84,218,114)" stroke-width="1" opacity="0.996078431372549" d="M 82.5 96 L 81.5 98 L 82.5 96 Z " /><path fill="rgb(84,218,114)" stroke="rgb(84,218,114)" stroke-width="1" opacity="0.996078431372549" d="M 109.5 104 L 104.5 110 L 109.5 104 Z " /><path fill="rgb(84,218,114)" stroke="rgb(84,218,114)" stroke-width="1" opacity="0.996078431372549" d="M 72.5 124 L 73 127.5 L 72 127.5 L 72.5 124 Z " /><path fill="rgb(84,218,114)" stroke="rgb(84,218,114)" stroke-width="1" opacity="0.996078431372549" d="M 434.5 224 L 437.5 228 L 434.5 224 Z " /><path fill="rgb(84,218,114)" stroke="rgb(84,218,114)" stroke-width="1" opacity="0.996078431372549" d="M 72.5 384 L 73 387.5 L 72 387.5 L 72.5 384 Z " /><path fill="rgb(84,218,114)" stroke="rgb(84,218,114)" stroke-width="1" opacity="0.996078431372549" d="M 439.5 384 L 440 387.5 L 439 387.5 L 439.5 384 Z " /><path fill="rgb(84,218,114)" stroke="rgb(84,218,114)" stroke-width="1" opacity="0.996078431372549" d="M 104.5 402 L 109.5 408 L 104.5 402 Z " /><path fill="rgb(84,218,114)" stroke="rgb(84,218,114)" stroke-width="1" opacity="0.996078431372549" d="M 407.5 402 L 402.5 408 L 407.5 402 Z " /><path fill="rgb(84,218,114)" stroke="rgb(84,218,114)" stroke-width="1" opacity="0.996078431372549" d="M 81.5 414 L 82.5 416 L 81.5 414 Z " /><path fill="rgb(84,218,114)" stroke="rgb(84,218,114)" stroke-width="1" opacity="0.996078431372549" d="M 430.5 414 L 429.5 416 L 430.5 414 Z " /><path fill="rgb(84,218,114)" stroke="rgb(84,218,114)" stroke-width="1" opacity="0.996078431372549" d="M 84.5 418 L 85.5 420 L 84.5 418 Z " /><path fill="rgb(84,218,114)" stroke="rgb(84,218,114)" stroke-width="1" opacity="0.996078431372549" d="M 427.5 418 L 426.5 420 L 427.5 418 Z " /><path fill="rgb(84,218,114)" stroke="rgb(84,218,114)" stroke-width="1" opacity="0.996078431372549" d="M 92.5 426 L 93.5 428 L 92.5 426 Z " /><path fill="rgb(84,218,114)" stroke="rgb(84,218,114)" stroke-width="1" opacity="0.996078431372549" d="M 419.5 426 L 418.5 428 L 419.5 426 Z " /><path fill="rgb(84,218,114)" stroke="rgb(84,218,114)" stroke-width="1" opacity="0.996078431372549" d="M 96.5 429 L 97.5 431 L 96.5 429 Z " /><path fill="rgb(84,218,114)" stroke="rgb(84,218,114)" stroke-width="1" opacity="0.996078431372549" d="M 415.5 429 L 414.5 431 L 415.5 429 Z " /><path fill="rgb(84,218,114)" stroke="rgb(84,218,114)" stroke-width="1" opacity="0.996078431372549" d="M 124.5 439 L 128 439.5 L 124.5 440 L 124.5 439 Z " /><path fill="rgb(84,218,114)" stroke="rgb(84,218,114)" stroke-width="1" opacity="0.996078431372549" d="M 384.5 439 L 388 439.5 L 384.5 440 L 384.5 439 Z " /><path fill="rgb(84,218,114)" stroke="rgb(84,218,114)" stroke-width="1" opacity="1" d="M 128.5 72 L 276.5 72 L 283.5 74 L 289 79.5 L 290 88.5 L 284.5 96 L 280.5 98 L 124.5 98 Q 110.8 100.3 104 109.5 L 98 123.5 L 98 388.5 Q 100.6 401.4 109.5 408 L 116.5 412 L 124.5 414 L 387.5 414 Q 401.3 411.8 408 402.5 L 414 388.5 L 414 231.5 L 419.5 224 Q 422.5 221 429.5 222 Q 435.6 223.4 438 228.5 L 440 235.5 L 440 383.5 L 439 384.5 L 439 393.5 L 435 406.5 Q 429.4 417.9 420.5 426 Q 412.6 433.1 401.5 437 L 393.5 439 L 384.5 439 L 383.5 440 L 128.5 440 L 127.5 439 L 118.5 439 L 105.5 435 Q 94.1 429.4 86 420.5 Q 78.9 412.6 75 401.5 L 73 393.5 L 73 384.5 L 72 383.5 L 72 128.5 L 73 127.5 L 73 118.5 L 77 105.5 Q 82.6 94.1 91.5 86 Q 99.4 78.9 110.5 75 L 118.5 73 L 127.5 73 L 128.5 72 Z " /></svg>