<?xml version="1.0" encoding="UTF-8"?>
<svg version="1.1" xmlns="http://www.w3.org/2000/svg" width="512" height="512">
<path d="M0 0 C2.19592398 1.63286655 3.37272357 2.86303066 5 5 C5.57234375 5.74378906 6.1446875 6.48757812 6.734375 7.25390625 C10.90182776 12.84662785 14.79460806 18.62025913 18.63525391 24.43994141 C21.51165689 28.79197926 24.43433662 33.11058409 27.3828125 37.4140625 C27.95887993 38.25603683 27.95887993 38.25603683 28.54658508 39.11502075 C30.8849528 42.53267718 30.8849528 42.53267718 33.23019409 45.94561768 C34.33497662 47.55013718 35.43515415 49.15782444 36.53515625 50.765625 C37.178479 51.70180664 37.82180176 52.63798828 38.48461914 53.60253906 C40 56 40 56 41 59 C41.66 59 42.32 59 43 59 C43.26611084 58.43821045 43.53222168 57.8764209 43.80639648 57.29760742 C45.09266447 54.82162705 46.54722458 52.55815455 48.09765625 50.23828125 C48.72639648 49.29573486 49.35513672 48.35318848 50.00292969 47.38208008 C51.02241699 45.86263794 51.02241699 45.86263794 52.0625 44.3125 C53.1148584 42.73988403 53.1148584 42.73988403 54.18847656 41.13549805 C56.4546418 37.75405649 58.72569262 34.37596775 61 31 C61.58173981 30.13640869 61.58173981 30.13640869 62.17523193 29.25537109 C64.4912653 25.81894743 66.81149345 22.38540131 69.13668823 18.95516968 C70.23024332 17.34165059 71.32228904 15.72710887 72.41430664 14.11254883 C73.0871167 13.12279053 73.75992676 12.13303223 74.453125 11.11328125 C75.33726074 9.81064331 75.33726074 9.81064331 76.23925781 8.48168945 C81.29867358 1.35066321 81.29867358 1.35066321 84 0 C90.90710583 -0.72687746 96.78911248 1.61329811 103.26953125 3.8125 C105.12292948 4.42678859 106.97632898 5.04107339 108.82977962 5.65520382 C110.80161418 6.31071171 112.77169427 6.97125662 114.74133301 7.6333313 C118.85113844 9.01457695 122.96549819 10.38184848 127.08105469 11.74584961 C127.77066347 11.97442752 128.46027225 12.20300543 129.17077827 12.43850994 C130.56940928 12.90206805 131.96805598 13.3655788 133.36671829 13.82904243 C135.48018091 14.52983883 137.59320276 15.23195101 139.70614624 15.93431091 C151.65685421 19.90396159 163.64206165 23.76079865 175.64334106 27.57485962 C190.18582449 32.19807194 204.72690854 36.82880228 219.22033691 41.60397339 C220.63378729 42.06876401 222.04807068 42.53103059 223.46325684 42.99050903 C225.3607453 43.60734619 227.25470525 44.23500684 229.1484375 44.86328125 C230.71343994 45.37822144 230.71343994 45.37822144 232.31005859 45.90356445 C237.02196938 47.82416632 237.02196938 47.82416632 239 50 C240.29138927 54.08547586 240.6930224 56.38276514 238.99609375 60.3427124 C237.43812673 63.0007681 235.75669941 65.52354492 234 68.0546875 C233.37150146 68.99627716 232.74300293 69.93786682 232.09545898 70.9079895 C230.08379672 73.91114853 228.04257869 76.89280621 226 79.875 C224.65557411 81.87236797 223.31310472 83.87105433 221.97265625 85.87109375 C219.48445566 89.57309651 216.98776757 93.26885843 214.47265625 96.95263672 C213.90949707 97.78422302 213.34633789 98.61580933 212.76611328 99.47259521 C211.53001504 101.24151947 210.24793624 102.97878886 208.93310547 104.69000244 C208.2732666 105.56203308 207.61342773 106.43406372 206.93359375 107.33251953 C206.32443115 108.10951202 205.71526855 108.88650452 205.08764648 109.68704224 C203.70405956 111.98753457 203.70405956 111.98753457 204.67192078 114.56280518 C205.81894098 116.66773359 206.96844312 118.68150059 208.31567383 120.66259766 C208.77447937 121.34228607 209.23328491 122.02197449 209.70599365 122.72225952 C210.20133606 123.4455545 210.69667847 124.16884949 211.20703125 124.9140625 C211.72469055 125.67756012 212.24234985 126.44105774 212.7756958 127.22769165 C213.88045916 128.85572159 214.98736325 130.48230058 216.09622192 132.10754395 C217.81754726 134.63240338 219.5306557 137.16266471 221.24194336 139.69433594 C225.93858847 146.63250152 230.64075391 153.55935106 235.546875 160.3515625 C236.46569458 161.63619385 236.46569458 161.63619385 237.40307617 162.94677734 C238.46556523 164.42147527 239.54507079 165.88415085 240.64575195 167.33056641 C243.64915577 171.51348305 244.56556804 174.76724073 244.66186523 179.91308594 C243.62745948 183.17465008 241.8502124 184.16422255 239 186 C236.26910769 187.19601387 233.47656158 188.11391355 230.63671875 189.015625 C229.44874443 189.40666412 229.44874443 189.40666412 228.23677063 189.80560303 C225.72347831 190.63037762 223.20570428 191.44036231 220.6875 192.25 C218.97559376 192.80892371 217.26400132 193.36880949 215.55273438 193.9296875 C211.37203947 195.29762074 207.18726425 196.65231643 203 198 C202.99635437 198.85111359 202.99270874 199.70222717 202.98895264 200.57913208 C202.95103628 208.61250994 202.89414231 216.64548333 202.81609726 224.67857552 C202.7766411 228.80819377 202.74444369 232.93759939 202.72900391 237.06738281 C202.71382475 241.05526299 202.67935774 245.04255854 202.63169098 249.03017807 C202.61689 250.54910059 202.60895972 252.06810659 202.60811615 253.58710098 C202.60574068 255.72031734 202.5786192 257.85192553 202.54589844 259.98486328 C202.53701599 261.1973172 202.52813354 262.40977112 202.51898193 263.65896606 C201.70230888 268.9164369 199.41674137 271.83281035 195.36006165 275.17492676 C191.11243596 277.48209514 186.86382099 278.8421784 182.23901367 280.20117188 C181.27011703 280.49459473 180.3012204 280.78801758 179.30296326 281.09033203 C176.09411093 282.05944128 172.88116561 283.01415382 169.66796875 283.96875 C167.39796804 284.65089952 165.12822259 285.33389899 162.85871887 286.0177002 C156.85523695 287.82385161 150.8481378 289.61767694 144.840271 291.40917969 C138.88787614 293.18673246 132.93927007 294.97686916 126.99023438 296.765625 C116.60540256 299.88657267 106.21372983 302.98392877 95.81838799 306.06967163 C89.44291974 307.96522146 83.07609742 309.88642529 76.71697903 311.83611298 C72.92213425 312.99749099 69.12320583 314.14508337 65.32341957 315.29017639 C63.58561314 315.81761074 61.84971316 316.35137643 60.11598778 316.89207458 C57.75045332 317.62916139 55.37908264 318.343323 53.00512695 319.05273438 C52.0004069 319.37553879 52.0004069 319.37553879 50.97538948 319.7048645 C41.9735895 322.32824687 33.42340476 319.82353995 24.72143555 317.12353516 C23.25757668 316.68164856 23.25757668 316.68164856 21.7641449 316.23083496 C18.55228567 315.25895517 15.3445813 314.27404575 12.13671875 313.2890625 C9.86335854 312.59855464 7.58973768 311.9089044 5.31587219 311.22006226 C-0.68109301 309.40100126 -6.67467499 307.57103746 -12.6675415 305.73852539 C-19.80330722 303.55856743 -26.94283243 301.39096516 -34.08190727 299.22187424 C-39.87117946 297.46264655 -45.65974441 295.70118016 -51.44656372 293.93389893 C-61.76853244 290.78419956 -72.09541642 287.65948345 -82.45849609 284.64746094 C-83.33312972 284.39221083 -84.20776335 284.13696072 -85.10890102 283.87397575 C-89.10275201 282.7087158 -93.09869706 281.55263545 -97.10090637 280.41641235 C-98.48170335 280.0155087 -99.86238257 279.61419915 -101.24291992 279.21240234 C-102.41352463 278.87832367 -103.58412933 278.544245 -104.79020691 278.20004272 C-110.97266302 275.8886129 -114.94010005 272.91145018 -118 267 C-118.48101807 263.6210022 -118.48101807 263.6210022 -118.45410156 259.89306641 C-118.45468567 259.20944031 -118.45526978 258.52581421 -118.45587158 257.82147217 C-118.45310371 255.58097025 -118.42207681 253.34182949 -118.390625 251.1015625 C-118.38315791 249.54072801 -118.37746719 247.97988411 -118.37347412 246.41903687 C-118.35825441 242.32531522 -118.31900507 238.23216778 -118.2746582 234.13867188 C-118.23362584 229.95580817 -118.21544617 225.77285102 -118.1953125 221.58984375 C-118.15250648 213.39296665 -118.08430054 205.1965549 -118 197 C-119.07900574 196.85718597 -120.15801147 196.71437195 -121.26971436 196.56723022 C-125.21149204 195.96784035 -128.82563659 194.89768454 -132.578125 193.6015625 C-133.27137878 193.36593597 -133.96463257 193.13030945 -134.67889404 192.88754272 C-136.13206726 192.39141368 -137.58414668 191.8920702 -139.03515625 191.38964844 C-141.25415791 190.62356453 -143.47824482 189.8738143 -145.703125 189.125 C-147.12012702 188.63899749 -148.53680572 188.15205109 -149.953125 187.6640625 C-150.6156427 187.44207184 -151.2781604 187.22008118 -151.96075439 186.99136353 C-155.34118177 185.80532116 -157.76283503 184.82522738 -160 182 C-161.00860604 177.52282544 -160.55866959 173.30797569 -158.13208008 169.40112305 C-157.26089841 168.19376077 -156.36767463 167.00210236 -155.45703125 165.82421875 C-154.44125539 164.42957579 -153.42650213 163.03418764 -152.41259766 161.63818359 C-151.86218811 160.89453552 -151.31177856 160.15088745 -150.74468994 159.38470459 C-145.54717899 152.2805608 -140.64414448 144.95749496 -135.67016602 137.69604492 C-134.33171524 135.74943218 -132.98648571 133.80746547 -131.63500977 131.86987305 C-129.65987357 129.03544739 -127.70868531 126.18585351 -125.76171875 123.33203125 C-125.15156418 122.46745804 -124.54140961 121.60288483 -123.9127655 120.71211243 C-123.36751724 119.90324081 -122.82226898 119.0943692 -122.26049805 118.26098633 C-121.77405319 117.55645828 -121.28760834 116.85193024 -120.78642273 116.12605286 C-119.73549082 113.93557304 -119.73549082 113.93557304 -120.77058411 111.38008118 C-122.06774347 108.86885238 -123.4803992 106.55369964 -125.0625 104.2109375 C-125.68648682 103.28216797 -126.31047363 102.35339844 -126.95336914 101.39648438 C-127.96645142 99.90084961 -127.96645142 99.90084961 -129 98.375 C-129.69536865 97.33408203 -130.3907373 96.29316406 -131.10717773 95.22070312 C-134.62890227 89.95588703 -138.18308007 84.7186786 -141.81607056 79.52993774 C-143.50225831 77.11611351 -145.17174624 74.69098214 -146.83959961 72.26446533 C-147.64986956 71.09536501 -148.46816905 69.93178603 -149.29467773 68.77410889 C-156.62527805 58.49914744 -156.62527805 58.49914744 -156.24609375 53.40625 C-154.870337 49.6455607 -154.29834667 49.02795103 -151 47 C-148.83815797 46.14261537 -146.64300548 45.36757146 -144.43188477 44.64672852 C-143.77807988 44.43126499 -143.124275 44.21580147 -142.45065784 43.99380875 C-140.28321867 43.28155235 -138.11241333 42.58020469 -135.94140625 41.87890625 C-134.40926333 41.37798062 -132.8773357 40.87639606 -131.34561157 40.37419128 C-128.09987465 39.31161088 -124.85262542 38.25383926 -121.60409546 37.1998291 C-116.56893155 35.56597277 -111.53781771 33.91988576 -106.50708008 32.27246094 C-92.71132194 27.75866376 -78.90886498 23.26785662 -65.0703125 18.88671875 C-63.32608179 18.33197723 -61.58185924 17.77721006 -59.83764648 17.22241211 C-56.83116404 16.26682993 -53.82014921 15.32823882 -50.80493164 14.40063477 C-49.50912297 13.99153683 -48.21345658 13.5819878 -46.91796875 13.171875 C-45.85344482 12.8428418 -44.7889209 12.51380859 -43.69213867 12.17480469 C-40.88570849 11.14748479 -40.88570849 11.14748479 -38.88549805 8.86621094 C-37 7 -37 7 -35.01416016 6.73242188 C-34.32112793 6.81041016 -33.6280957 6.88839844 -32.9140625 6.96875 C-27.22444832 7.22959191 -22.65015794 5.46868286 -17.375 3.5 C-6.09479271 -0.6736767 -6.09479271 -0.6736767 0 0 Z " fill="#C9DBF0" transform="translate(214,172)"/>
<path d="M0 0 C7.124197 1.89318929 14.17587202 3.93795182 21.1953125 6.1875 C22.13259689 6.48607407 23.06988129 6.78464813 24.03556824 7.0922699 C27.06623788 8.05884711 30.09568483 9.02918682 33.125 10 C34.17376312 10.33524689 35.22252625 10.67049377 36.30307007 11.01589966 C50.27097658 15.4815492 64.20478051 20.03396655 78.10229492 24.71362305 C93.12071638 29.75662432 108.22312994 34.54029565 123.31958008 39.34350586 C132.70562716 42.33137897 142.08828471 45.32828537 151.44140625 48.41796875 C152.19912827 48.66621902 152.95685028 48.9144693 153.73753357 49.17024231 C158.88205315 50.88205315 158.88205315 50.88205315 160 52 C160.10900658 54.01194547 160.146908 56.02775327 160.15821838 58.0426178 C160.17290161 60.01359184 160.17290161 60.01359184 160.18788147 62.02438354 C160.19378645 63.4942013 160.19959684 64.96401943 160.20532227 66.43383789 C160.21489527 67.97091438 160.22490499 69.5079882 160.23532104 71.0450592 C160.26243889 75.23079992 160.28341107 79.41655199 160.30332303 83.60233235 C160.32514031 87.97192424 160.35254976 92.34148085 160.37937927 96.71104431 C160.42936393 104.9912449 160.47428126 113.271465 160.51740164 121.55170387 C160.56672478 130.97599664 160.62166111 140.40025402 160.67708123 149.8245126 C160.79098986 169.21630891 160.89780946 188.60813858 161 208 C153.93066975 206.71829684 147.11437711 204.97396648 140.24316406 202.88647461 C139.21699982 202.57877136 138.19083557 202.27106812 137.13357544 201.95404053 C133.75960108 200.94115512 130.38762413 199.92178367 127.015625 198.90234375 C124.63568073 198.18649017 122.25561248 197.47104869 119.87542725 196.7559967 C113.60578805 194.87129494 107.33781612 192.98110695 101.07019043 191.08972168 C93.5660594 188.82637313 86.05989829 186.56976767 78.554039 184.31215858 C72.53401728 182.50109523 66.51462831 180.68798671 60.4967041 178.8699646 C50.67615397 175.90413076 40.85544562 172.94285684 31.00585938 170.07470703 C29.57919932 169.65685513 28.15258163 169.23885854 26.72601318 168.82069397 C24.26323709 168.09888171 21.79804802 167.39002656 19.3291626 166.68894958 C11.02266286 164.25603368 5.42309973 161.82289606 1 154 C0.51898193 150.6210022 0.51898193 150.6210022 0.54589844 146.89306641 C0.54531433 146.20944031 0.54473022 145.52581421 0.54412842 144.82147217 C0.54689629 142.58097025 0.57792319 140.34182949 0.609375 138.1015625 C0.61684209 136.54072801 0.62253281 134.97988411 0.62652588 133.41903687 C0.64174559 129.32531522 0.68099493 125.23216778 0.7253418 121.13867188 C0.76637416 116.95580817 0.78455383 112.77285102 0.8046875 108.58984375 C0.84749352 100.39296665 0.91569946 92.1965549 1 84 C-0.07900574 83.85718597 -1.15801147 83.71437195 -2.26971436 83.56723022 C-6.21149204 82.96784035 -9.82563659 81.89768454 -13.578125 80.6015625 C-14.27137878 80.36593597 -14.96463257 80.13030945 -15.67889404 79.88754272 C-17.13206726 79.39141368 -18.58414668 78.8920702 -20.03515625 78.38964844 C-22.25415791 77.62356453 -24.47824482 76.8738143 -26.703125 76.125 C-28.12012702 75.63899749 -29.53680572 75.15205109 -30.953125 74.6640625 C-31.6156427 74.44207184 -32.2781604 74.22008118 -32.96075439 73.99136353 C-36.34119377 72.80531695 -38.76283262 71.82523584 -41 69 C-42.00917037 64.52317014 -41.56320598 60.31085543 -39.12548828 56.40991211 C-38.25221095 55.20505109 -37.35730602 54.01567163 -36.4453125 52.83984375 C-35.42801442 51.44660686 -34.41283482 50.05182145 -33.39941406 48.65576172 C-32.85015259 47.91058289 -32.30089111 47.16540405 -31.73498535 46.39764404 C-28.57772515 42.03450281 -25.61081316 37.54261822 -22.6171875 33.06640625 C-21.33643136 31.16307904 -20.05517762 29.26008658 -18.7734375 27.35742188 C-16.80237857 24.4278921 -14.83169788 21.49810858 -12.86132812 18.56811523 C-10.92671691 15.69191458 -8.99077391 12.81661402 -7.0546875 9.94140625 C-6.46001678 9.0561879 -5.86534607 8.17096954 -5.25265503 7.25892639 C-4.43512253 6.04516579 -4.43512253 6.04516579 -3.60107422 4.80688477 C-2.88139969 3.73676903 -2.88139969 3.73676903 -2.14718628 2.64503479 C-1 1 -1 1 0 0 Z " fill="#CADCF0" transform="translate(95,285)"/>
<path d="M0 0 C1.13944565 0.3866835 2.2788913 0.773367 3.4528656 1.17176819 C5.30626383 1.78605678 7.15966333 2.40034158 9.01311398 3.01447201 C10.98494853 3.66997989 12.95502862 4.33052481 14.92466736 4.99259949 C19.03447279 6.37384514 23.14883254 7.74111667 27.26438904 9.1051178 C27.95399782 9.33369571 28.64360661 9.56227362 29.35411263 9.79777813 C30.75274363 10.26133624 32.15139033 10.72484698 33.55005264 11.18831062 C35.66351526 11.88910702 37.77653711 12.5912192 39.88948059 13.2935791 C51.84018856 17.26322978 63.825396 21.12006684 75.82667542 24.93412781 C90.36915884 29.55734013 104.91024289 34.18807047 119.40367126 38.96324158 C120.81712164 39.4280322 122.23140503 39.89029878 123.64659119 40.34977722 C125.54407965 40.96661438 127.4380396 41.59427503 129.33177185 42.22254944 C130.89677429 42.73748962 130.89677429 42.73748962 132.49339294 43.26283264 C137.20530373 45.18343451 137.20530373 45.18343451 139.18333435 47.35926819 C140.47472362 51.44474405 140.87635675 53.74203333 139.1794281 57.70198059 C137.62146108 60.36003629 135.94003376 62.88281311 134.18333435 65.41395569 C133.55483582 66.35554535 132.92633728 67.29713501 132.27879333 68.26725769 C130.26713107 71.27041672 128.22591304 74.25207439 126.18333435 77.23426819 C124.83890846 79.23163616 123.49643907 81.23032252 122.1559906 83.23036194 C119.66779001 86.93236469 117.17110192 90.62812662 114.6559906 94.31190491 C114.09283142 95.14349121 113.52967224 95.97507751 112.94944763 96.8318634 C111.71334939 98.60078766 110.43127059 100.33805705 109.11643982 102.04927063 C108.45660095 102.92130127 107.79676208 103.79333191 107.1169281 104.69178772 C106.5077655 105.46878021 105.89860291 106.24577271 105.27098083 107.04631042 C103.88739391 109.34680275 103.88739391 109.34680275 104.85525513 111.92207336 C106.00227533 114.02700178 107.15177747 116.04076877 108.49900818 118.02186584 C108.95781372 118.70155426 109.41661926 119.38124268 109.889328 120.08152771 C110.38467041 120.80482269 110.88001282 121.52811768 111.3903656 122.27333069 C111.9080249 123.03682831 112.4256842 123.80032593 112.95903015 124.58695984 C114.06379351 126.21498978 115.1706976 127.84156877 116.27955627 129.46681213 C118.00088161 131.99167157 119.71399005 134.5219329 121.42527771 137.05360413 C126.12192282 143.99176971 130.82408826 150.91861925 135.73020935 157.71083069 C136.64902893 158.99546204 136.64902893 158.99546204 137.58641052 160.30604553 C138.64889958 161.78074346 139.72840514 163.24341904 140.8290863 164.68983459 C143.83249012 168.87275124 144.74890239 172.12650891 144.84519958 177.27235413 C143.811866 180.53053762 142.02890538 181.52631764 139.18333435 183.35926819 C136.50804245 184.52423187 133.77310581 185.40517778 130.98802185 186.26942444 C130.19993134 186.52300217 129.41184082 186.7765799 128.59986877 187.0378418 C126.08913388 187.84263687 123.5738637 188.63210442 121.05833435 189.42176819 C119.39136669 189.95533395 117.72469676 190.48983082 116.05833435 191.02528381 C109.68946527 193.05920285 103.33322184 195.06606831 96.87229919 196.79042053 C90.900471 198.40189759 85.03924971 200.29664198 79.16770935 202.23817444 C78.04516754 202.60679596 76.92262573 202.97541748 75.7660675 203.35520935 C72.15436227 204.54166189 68.54386351 205.73174214 64.93333435 206.92176819 C59.97800181 208.55058064 55.02205639 210.17752483 50.06614685 211.80458069 C48.85691559 212.20186874 47.64768433 212.5991568 46.40180969 213.00848389 C35.68215984 216.5287978 24.94866447 220.00456544 14.20579529 223.45326233 C13.1181488 223.8025177 12.03050232 224.15177307 10.90989685 224.51161194 C9.92642273 224.82678772 8.94294861 225.1419635 7.92967224 225.46669006 C4.64535487 226.53411511 1.37812477 227.64809918 -1.88282776 228.7848053 C-5.56733955 229.87932067 -7.95916382 229.99164554 -11.81666565 229.35926819 C-17.3127098 224.69053515 -21.10218625 217.63898 -25.00416565 211.67176819 C-26.4079747 209.54471404 -27.81297588 207.41844631 -29.2190094 205.29286194 C-29.76774216 204.46217194 -29.76774216 204.46217194 -30.32756042 203.61470032 C-34.84804023 196.78120454 -39.4581507 190.0085565 -44.06666565 183.23426819 C-45.27862236 181.45225939 -46.49053409 179.67022012 -47.70227051 177.88806152 C-48.75847101 176.33500167 -49.81537401 174.78241964 -50.87232971 173.22987366 C-51.51396057 172.28257385 -52.15559143 171.33527405 -52.81666565 170.35926819 C-53.96086975 168.78556458 -53.96086975 168.78556458 -55.12818909 167.18006897 C-55.68538635 166.24920471 -56.24258362 165.31834045 -56.81666565 164.35926819 C-55.81666565 161.35926819 -55.81666565 161.35926819 -54.17263794 160.49874878 C-53.45518906 160.26943161 -52.73774017 160.04011444 -51.99855042 159.80384827 C-50.76614876 159.40017281 -50.76614876 159.40017281 -49.5088501 158.98834229 C-48.60109329 158.70469315 -47.69333649 158.42104401 -46.7580719 158.12879944 C-45.33425957 157.66821892 -45.33425957 157.66821892 -43.88168335 157.19833374 C-40.71773969 156.17800226 -37.5485679 155.17500298 -34.37916565 154.17176819 C-32.14851225 153.45589018 -29.91821125 152.73891325 -27.68824768 152.02088928 C-21.87267038 150.15154102 -16.0526537 148.29644869 -10.2311554 146.44563293 C-4.94135644 144.76261394 0.34560517 143.07074906 5.6325531 141.37879944 C11.72599539 139.42891864 17.81976614 137.48012635 23.91575623 135.53822327 C35.4455011 131.86157248 46.9573695 128.13365493 58.4528656 124.35145569 C59.73559662 123.92974094 61.01833179 123.50803881 62.30107117 123.08634949 C68.5050765 121.04608133 74.70700378 118.99968935 80.90647888 116.94569397 C83.14325185 116.20842024 85.38006608 115.47127168 87.6169281 114.73426819 C89.1600341 114.21991714 89.1600341 114.21991714 90.73431396 113.69517517 C92.14658516 113.23112778 92.14658516 113.23112778 93.58738708 112.75770569 C94.4069841 112.4861969 95.22658112 112.21468811 96.0710144 111.93495178 C98.18333435 111.35926819 98.18333435 111.35926819 101.18333435 111.35926819 C101.18333435 110.69926819 101.18333435 110.03926819 101.18333435 109.35926819 C99.9418866 109.1074176 98.70043884 108.85556702 97.42137146 108.59608459 C91.609916 107.30084584 86.01879933 105.45149624 80.3747406 103.57020569 C79.23599991 103.19478638 78.09725922 102.81936707 76.92401123 102.43257141 C73.83855513 101.41499786 70.75430035 100.39387336 67.67041779 99.37154388 C62.43174548 97.63689395 57.1892179 95.91389776 51.94710541 94.18967819 C50.60877719 93.74946193 49.27049516 93.30910524 47.93225861 92.86861038 C34.66385958 88.50183276 21.36729146 84.22583591 8.05833435 79.98426819 C4.01393699 78.69429998 -0.03032095 77.40389538 -4.07447815 76.11317444 C-5.04851089 75.80233414 -6.02254364 75.49149384 -7.02609253 75.17123413 C-16.74135042 72.06837602 -26.44705383 68.93626713 -36.1476593 65.78791809 C-37.91069863 65.21577395 -39.67391965 64.64418935 -41.43733215 64.07319641 C-43.83515928 63.29653498 -46.23228252 62.51774354 -48.62916565 61.73817444 C-49.33483673 61.50984421 -50.04050781 61.28151398 -50.76756287 61.04626465 C-55.58670064 59.47425069 -55.58670064 59.47425069 -57.81666565 58.35926819 C-56.45762022 54.61739381 -54.75536308 51.55650757 -52.5002594 48.28114319 C-51.82632141 47.2966217 -51.15238342 46.31210022 -50.45802307 45.29774475 C-49.73075012 44.24554749 -49.00347717 43.19335022 -48.25416565 42.10926819 C-47.49757901 41.00771184 -46.7414832 39.90581822 -45.9858551 38.80360413 C-44.80746451 37.08510818 -43.62858867 35.36696031 -42.44781494 33.65010071 C-39.6313888 29.55447753 -36.83550702 25.44542577 -34.05104065 21.32801819 C-33.28094652 20.19031829 -32.5108457 19.05262291 -31.74073792 17.91493225 C-30.2766104 15.75094507 -28.81351639 13.58625817 -27.35157776 11.42079163 C-26.68392395 10.43627014 -26.01627014 9.45174866 -25.3283844 8.43739319 C-24.74532532 7.57533264 -24.16226624 6.71327209 -23.5615387 5.8250885 C-16.34999489 -4.36612354 -11.31685278 -3.72567506 0 0 Z " fill="#E8F2FB" transform="translate(313.81666564941406,174.64073181152344)"/>
<path d="M0 0 C4.18682128 1.39560709 5.52905931 4.37651662 7.82421875 7.9296875 C8.28931351 8.63465363 8.75440826 9.33961975 9.2335968 10.06594849 C10.72593133 12.33068044 12.20718049 14.6024002 13.6875 16.875 C15.62511031 19.83323267 17.56728946 22.78843314 19.51171875 25.7421875 C19.98506653 26.46243607 20.45841431 27.18268463 20.94610596 27.92475891 C24.2338685 32.90444541 27.66676558 37.75243529 31.21508789 42.55078125 C34.0686309 46.46635278 36.71990329 50.51089139 39.375 54.5625 C40.40149542 56.12771448 41.43004483 57.69158442 42.4609375 59.25390625 C42.90228027 59.92752197 43.34362305 60.6011377 43.79833984 61.29516602 C45.02577609 63.13949819 45.02577609 63.13949819 47 65 C52.65775068 65.41284756 57.19562432 64.64060251 62.54296875 62.734375 C63.2332869 62.4997052 63.92360504 62.2650354 64.63484192 62.02325439 C66.82315784 61.27685781 69.00532358 60.51413727 71.1875 59.75 C73.35293038 59.00376986 75.51953114 58.26105053 77.68659973 57.51959229 C79.02594756 57.06004801 80.36420762 56.59731166 81.70097351 56.13031006 C85.8233875 54.700032 89.97170863 53.38395097 94.14501953 52.109375 C101.09146416 49.98669472 107.99015604 47.73190381 114.88671875 45.453125 C116.16365798 45.03266362 117.4406623 44.61239988 118.71772766 44.19232178 C124.07371295 42.4302822 129.42886953 40.66574124 134.78295898 38.89794922 C137.44648023 38.01863713 140.11050456 37.14088093 142.77510071 36.26483154 C145.27215658 35.44376242 147.76842892 34.62030584 150.26383972 33.79425049 C151.38293228 33.42676697 152.50202484 33.05928345 153.6550293 32.68066406 C155.13509712 32.19246185 155.13509712 32.19246185 156.64506531 31.69439697 C159 31 159 31 161 31 C161.0928022 40.02317278 161.1638165 49.04618052 161.20724869 58.06972694 C161.22809718 62.26003538 161.25636416 66.45001659 161.30175781 70.64013672 C161.34531419 74.68612242 161.3691577 78.73179395 161.37950897 82.77799606 C161.38688286 84.31934935 161.40128257 85.86068602 161.42292023 87.40190506 C161.45208611 89.56599936 161.45595076 91.72880625 161.45410156 93.89306641 C161.46298401 95.12328522 161.47186646 96.35350403 161.48101807 97.6210022 C160.72626885 102.92287363 158.43911756 105.81437562 154.36006165 109.17492676 C150.11243596 111.48209514 145.86382099 112.8421784 141.23901367 114.20117188 C139.78566872 114.64130615 139.78566872 114.64130615 138.30296326 115.09033203 C135.09411093 116.05944128 131.88116561 117.01415382 128.66796875 117.96875 C126.39796804 118.65089952 124.12822259 119.33389899 121.85871887 120.0177002 C115.85523695 121.82385161 109.8481378 123.61767694 103.840271 125.40917969 C97.88787596 127.18673252 91.93929225 128.97694247 85.99023438 130.765625 C72.33403633 134.86806142 58.66926901 138.9413474 45 143 C43.94127937 143.31455139 42.88255875 143.62910278 41.79175568 143.95318604 C35.84263895 145.72012888 29.89204947 147.48194112 23.93889809 149.23524475 C22.15485668 149.76108992 20.37118655 150.28819653 18.58791161 150.81663513 C16.16694409 151.53346188 13.74450727 152.24506835 11.3215332 152.95507812 C10.61559084 153.16511978 9.90964848 153.37516144 9.18231392 153.59156799 C6.3425343 154.41814982 3.97625764 155 1 155 C-0.09381984 151.71854048 -0.12310261 149.32346584 -0.12025452 145.86872864 C-0.12162918 144.58565323 -0.12300385 143.30257782 -0.12442017 141.98062134 C-0.12088101 140.55584694 -0.1172462 139.13107277 -0.11352539 137.70629883 C-0.11324337 136.20833844 -0.11340155 134.71037791 -0.1139679 133.2124176 C-0.11425527 129.14246505 -0.10836815 125.07254186 -0.10139394 121.00259614 C-0.09515051 116.75048613 -0.09455582 112.49837548 -0.09336853 108.2462616 C-0.09025814 100.19276404 -0.08204868 92.13928002 -0.07201904 84.08578843 C-0.06084885 74.91781776 -0.05534516 65.74984645 -0.05032361 56.58187068 C-0.03986583 37.72123943 -0.02227203 18.8606208 0 0 Z " fill="#A4BBDB" transform="translate(255,338)"/>
<path d="M0 0 C7.124197 1.89318929 14.17587202 3.93795182 21.1953125 6.1875 C22.13259689 6.48607407 23.06988129 6.78464813 24.03556824 7.0922699 C27.06623788 8.05884711 30.09568483 9.02918682 33.125 10 C34.17376312 10.33524689 35.22252625 10.67049377 36.30307007 11.01589966 C50.27097658 15.4815492 64.20478051 20.03396655 78.10229492 24.71362305 C93.12071638 29.75662432 108.22312994 34.54029565 123.31958008 39.34350586 C128.28516707 40.92342651 133.24730266 42.51385404 138.20819092 44.10845947 C140.95836849 44.98670533 143.71331308 45.84848354 146.46923828 46.70849609 C148.12678963 47.23614494 149.7841883 47.76427372 151.44140625 48.29296875 C152.19912827 48.52446121 152.95685028 48.75595367 153.73753357 48.99446106 C155.81079102 49.66479492 155.81079102 49.66479492 159 51 C159.33 51.99 159.66 52.98 160 54 C158.61051715 56.4956157 157.17783415 58.77803457 155.56640625 61.125 C155.0956517 61.82713623 154.62489716 62.52927246 154.13987732 63.25268555 C152.62366298 65.508418 151.09310846 67.75401676 149.5625 70 C148.56485392 71.48246678 147.56809886 72.9655336 146.57226562 74.44921875 C141.7690516 81.58297722 136.86968288 88.62337982 131.77172852 95.55078125 C128.39723805 100.21564116 125.28295059 105.0535083 122.13867188 109.875 C121.64302734 110.6278125 121.14738281 111.380625 120.63671875 112.15625 C120.20061279 112.82462891 119.76450684 113.49300781 119.31518555 114.18164062 C118.88117432 114.78169922 118.44716309 115.38175781 118 116 C117.61561768 116.57427734 117.23123535 117.14855469 116.83520508 117.74023438 C113.76411901 119.84836317 110.54265414 119.43584809 107 119 C103.6650831 118.2507853 100.45552325 117.2139251 97.21484375 116.1328125 C96.2652478 115.82639328 95.31565186 115.51997406 94.33728027 115.20426941 C91.2003055 114.18890566 88.06903424 113.15700876 84.9375 112.125 C82.7328346 111.40807856 80.52783112 110.69219605 78.32250977 109.97729492 C72.43611741 108.06546776 66.55470598 106.1387805 60.67480469 104.20709229 C56.96474552 102.98841968 53.2539763 101.77193376 49.54296875 100.55615234 C48.30755844 100.15138672 47.07214813 99.74662109 45.79930115 99.32958984 C43.31469071 98.51566801 40.83004126 97.70186529 38.34535217 96.88818359 C32.40080843 94.94100749 26.45753057 92.99018625 20.51733398 91.02978516 C10.59339014 87.76077579 0.67205975 84.54250817 -9.36772156 81.64659119 C-15.43203087 79.89404 -21.41140269 77.94183578 -27.375 75.875 C-28.37015625 75.54113281 -29.3653125 75.20726562 -30.390625 74.86328125 C-31.34195313 74.53457031 -32.29328125 74.20585937 -33.2734375 73.8671875 C-34.11310059 73.57956543 -34.95276367 73.29194336 -35.81787109 72.99560547 C-38.18745365 71.91447349 -39.35702923 71.00814936 -41 69 C-42.00917037 64.52317014 -41.56320598 60.31085543 -39.12548828 56.40991211 C-38.25221095 55.20505109 -37.35730602 54.01567163 -36.4453125 52.83984375 C-35.42801442 51.44660686 -34.41283482 50.05182145 -33.39941406 48.65576172 C-32.85015259 47.91058289 -32.30089111 47.16540405 -31.73498535 46.39764404 C-28.57772515 42.03450281 -25.61081316 37.54261822 -22.6171875 33.06640625 C-21.33643136 31.16307904 -20.05517762 29.26008658 -18.7734375 27.35742188 C-16.80237857 24.4278921 -14.83169788 21.49810858 -12.86132812 18.56811523 C-10.92671691 15.69191458 -8.99077391 12.81661402 -7.0546875 9.94140625 C-6.46001678 9.0561879 -5.86534607 8.17096954 -5.25265503 7.25892639 C-4.43512253 6.04516579 -4.43512253 6.04516579 -3.60107422 4.80688477 C-2.88139969 3.73676903 -2.88139969 3.73676903 -2.14718628 2.64503479 C-1 1 -1 1 0 0 Z " fill="#E8F2FB" transform="translate(95,285)"/>
<path d="M0 0 C13.49794196 3.37448549 13.49794196 3.37448549 19.54541016 5.3815918 C20.20909638 5.60048002 20.87278261 5.81936825 21.55658054 6.04488945 C23.71875292 6.75900642 25.87887526 7.47912166 28.0390625 8.19921875 C29.5901318 8.71250794 31.14134917 9.22534988 32.69270325 9.73777771 C35.97410264 10.82237269 39.25469648 11.90935465 42.53463745 12.99835205 C51.10684626 15.84407629 59.68436389 18.67373904 68.26171875 21.50390625 C69.11328363 21.78503014 69.96484852 22.06615402 70.8422184 22.35579681 C87.93812592 27.99841029 105.07080761 33.51926563 122.23095703 38.96362305 C124.04856118 39.54066838 125.86610861 40.11789244 127.68359375 40.6953125 C128.53379089 40.96541641 129.38398804 41.23552032 130.25994873 41.5138092 C139.87194324 44.57916729 149.43795976 47.78274628 159 51 C159 51.66 159 52.32 159 53 C126.92343853 63.56701292 94.84317674 74.11613025 62.66015625 84.35546875 C52.591269 87.56066265 42.53384021 90.79606902 32.49609375 94.09765625 C31.48775986 94.42873886 30.47942596 94.75982147 29.4405365 95.10093689 C24.65540027 96.67251895 19.87230175 98.24982607 15.0925293 99.83764648 C13.40812002 100.3920064 11.72363552 100.94613783 10.0390625 101.5 C9.27810776 101.75536026 8.51715302 102.01072052 7.73313904 102.27381897 C4.2773641 103.40382678 1.67768196 104 -2 104 C-1.01 103.505 -1.01 103.505 0 103 C0 69.01 0 35.02 0 0 Z " fill="#CADCEF" transform="translate(256,233)"/>
<path d="M0 0 C0 33.99 0 67.98 0 103 C-8.99910678 101.87511165 -8.99910678 101.87511165 -13.03100586 100.53222656 C-13.9407164 100.2334108 -14.85042694 99.93459503 -15.78770447 99.62672424 C-16.75366043 99.30131149 -17.71961639 98.97589874 -18.71484375 98.640625 C-19.74634048 98.30002548 -20.77783722 97.95942596 -21.84059143 97.60850525 C-24.05558063 96.87638619 -26.26949513 96.14100909 -28.48242188 95.40267944 C-34.35718309 93.44274793 -40.23963934 91.50613964 -46.12109375 89.56640625 C-47.89503006 88.98026299 -47.89503006 88.98026299 -49.70480347 88.38227844 C-60.27549954 84.89463371 -70.88082426 81.52399861 -81.5 78.1875 C-95.93783011 73.6443463 -110.31433847 68.93950961 -124.66308594 64.12280273 C-136.07122776 60.29464195 -147.51513711 56.59218179 -159 53 C-159 52.34 -159 51.68 -159 51 C-150.0356236 48.04052281 -141.07031523 45.08388878 -132.10393524 42.13048744 C-127.93653904 40.75771518 -123.76942188 39.38411042 -119.60302734 38.00830078 C-114.76749707 36.41166328 -109.9308626 34.8183991 -105.09375 33.2265625 C-104.29707916 32.9640696 -103.50040833 32.70157669 -102.67959595 32.43112946 C-94.00627504 29.57593396 -85.32221594 26.76736645 -76.59375 24.08496094 C-75.84747597 23.85503386 -75.10120193 23.62510677 -74.33231354 23.3882122 C-70.81524792 22.30603747 -67.29573669 21.23341173 -63.77087402 20.1769104 C-62.53873169 19.80061493 -61.30658936 19.42431946 -60.03710938 19.03662109 C-58.96247437 18.71374115 -57.88783936 18.39086121 -56.78063965 18.05819702 C-53.98307051 17.14147441 -53.98307051 17.14147441 -51.88406372 15.40419006 C-49.69264845 13.77093132 -48.51416462 13.61635455 -45.81787109 13.49633789 C-40.85614543 13.08559398 -36.57944994 11.73858529 -31.9140625 10.05859375 C-31.09046234 9.77146011 -30.26686218 9.48432648 -29.41830444 9.18849182 C-26.81730127 8.28041796 -24.22096383 7.35987101 -21.625 6.4375 C-19.00705607 5.5133076 -16.3882102 4.59190322 -13.76742554 3.67579651 C-12.1440694 3.10776878 -10.5224258 2.53481734 -8.90274048 1.95640564 C-5.81625644 0.87186367 -3.29704795 0 0 0 Z " fill="#A4BBDB" transform="translate(256,233)"/>
<path d="M0 0 C4.79829774 3.41878714 4.79829774 3.41878714 6.0625 7.12109375 C6.40362615 16.50206277 1.75852107 23.38495018 -3.8125 30.55859375 C-2.92046875 30.64496094 -2.0284375 30.73132812 -1.109375 30.8203125 C0.06109375 30.96082031 1.2315625 31.10132813 2.4375 31.24609375 C4.17773438 31.43751953 4.17773438 31.43751953 5.953125 31.6328125 C9.92379387 32.76934453 11.10983635 34.03582246 13.1875 37.55859375 C13.5 39.69140625 13.5 39.69140625 13.1875 41.68359375 C13.105 42.34617188 13.0225 43.00875 12.9375 43.69140625 C11.86261814 46.36741422 10.72359995 47.19397043 8.1875 48.55859375 C4.953125 48.8515625 4.953125 48.8515625 1.4375 48.74609375 C0.26703125 48.71902344 -0.9034375 48.69195312 -2.109375 48.6640625 C-3.00140625 48.62925781 -3.8934375 48.59445313 -4.8125 48.55859375 C-4.34199219 49.21085937 -3.87148438 49.863125 -3.38671875 50.53515625 C5.74650707 63.35570927 5.74650707 63.35570927 6.1875 70.55859375 C5.45993418 74.77847551 4.83683834 76.92590511 1.75 79.93359375 C-4.35701415 83.80633443 -11.76201823 83.43091973 -18.66015625 81.9453125 C-29.98028115 78.24794797 -39.21646001 71.1306139 -44.8125 60.55859375 C-45.51687647 58.59253197 -46.1844882 56.61286339 -46.8125 54.62109375 C-47.91009761 50.93284963 -47.91009761 50.93284963 -50.5390625 48.33984375 C-52.27424837 47.68290095 -54.04274489 47.11573888 -55.8125 46.55859375 C-58.08694992 43.90506885 -57.81128584 42.53552472 -57.625 38.99609375 C-56.4972906 34.2250155 -56.4972906 34.2250155 -53.8125 32.55859375 C-50.625 31.87109375 -50.625 31.87109375 -47.8125 31.55859375 C-47.7196875 30.10453125 -47.7196875 30.10453125 -47.625 28.62109375 C-46.22346622 19.20808986 -39.08679966 10.74884763 -31.8359375 4.98828125 C-23.07148549 -0.84304738 -9.94197239 -5.09526085 0 0 Z " fill="#C9DBF0" transform="translate(295.8125,20.44140625)"/>
<path d="M0 0 C6.13780377 -0.24796895 12.27267171 -0.428996 18.41430664 -0.54931641 C20.50108638 -0.59948327 22.58751669 -0.66763863 24.6730957 -0.75439453 C42.03948885 -1.45849347 42.03948885 -1.45849347 46.8984375 2.15625 C48.71282465 4.73320566 49.90280325 7.05658376 51 10 C51.928125 11.60875 51.928125 11.60875 52.875 13.25 C55.2451608 19.0437264 55.38873834 23.13673317 53 29 C48.77022866 33.12131566 45.29645763 34.16758856 39.5 34.3125 C28.21780239 34.16315683 19.30659889 29.47981456 11 22 C6.09593082 16.51362947 0 7.71523878 0 0 Z " fill="#CADCF0" transform="translate(247,69)"/>
<path d="M0 0 C1.62693787 -0.00945648 1.62693787 -0.00945648 3.28674316 -0.019104 C4.44830933 -0.01505554 5.60987549 -0.01100708 6.80664062 -0.00683594 C8.00848999 -0.00874939 9.21033936 -0.01066284 10.4486084 -0.01263428 C12.98706268 -0.01399394 15.52552396 -0.01031278 18.06396484 -0.00195312 C21.94840114 0.00874914 25.83237495 -0.00185617 29.71679688 -0.01464844 C32.18424581 -0.0133268 34.65169446 -0.01076433 37.11914062 -0.00683594 C38.86148987 -0.01290863 38.86148987 -0.01290863 40.63903809 -0.019104 C41.72366333 -0.01279968 42.80828857 -0.00649536 43.92578125 0 C44.87666626 0.00159119 45.82755127 0.00318237 46.80725098 0.00482178 C50.60327637 0.36784779 53.45078901 1.38163433 56.33789062 3.88378906 C57.78712651 6.94328703 57.53945361 9.05020458 57.17773438 12.35644531 C56.17256574 15.03140228 54.89938612 15.78900842 52.46289062 17.25878906 C49.69299316 17.63973999 49.69299316 17.63973999 46.47265625 17.64697266 C45.26460327 17.65642914 44.05655029 17.66588562 42.81188965 17.67562866 C41.51078247 17.66955597 40.20967529 17.66348328 38.86914062 17.65722656 C37.51680342 17.65924844 36.16446727 17.66216083 34.81213379 17.66592407 C31.98093258 17.67034213 29.15001575 17.66393348 26.31884766 17.64990234 C22.69380304 17.63281028 19.06942478 17.64265431 15.4444046 17.66061974 C12.65280151 17.67147188 9.86135582 17.66800478 7.06974792 17.66023636 C5.08445807 17.65726815 3.09916205 17.66636276 1.1138916 17.67562866 C-0.09416138 17.66617218 -1.30221436 17.6567157 -2.546875 17.64697266 C-3.60958618 17.64458588 -4.67229736 17.6421991 -5.76721191 17.63973999 C-8.93120769 17.20458773 -10.29297731 16.50621486 -12.53710938 14.25878906 C-13.60706833 10.40693682 -13.90712037 8.18381655 -12.41210938 4.44628906 C-9.00407579 0.47024988 -5.04664112 0.00844492 0 0 Z " fill="#347BFA" transform="translate(251.537109375,51.7412109375)"/>
<path d="M0 0 C6.36182271 3.56456326 12.11075084 8.16290793 15.43359375 14.80859375 C15.83551223 18.42586011 15.63468227 20.40641671 13.99609375 23.68359375 C10.81521448 26.32139608 8.93377789 26.76632336 4.85546875 26.56640625 C0.76942768 25.28787082 -1.43864639 22.19351592 -4.22265625 19.06640625 C-7.33335248 16.06976888 -10.4258143 14.92257999 -14.5 13.66015625 C-16.56640625 12.80859375 -16.56640625 12.80859375 -18.56640625 9.80859375 C-19.24180654 2.71689069 -19.24180654 2.71689069 -16.75390625 -0.62890625 C-11.18487828 -4.60678337 -5.80607041 -2.69535993 0 0 Z " fill="#347AFA" transform="translate(338.56640625,55.19140625)"/>
<path d="M0 0 C2.39420615 3.59130922 2.3847052 6.27785339 2.375 10.4375 C2.37338867 11.14745117 2.37177734 11.85740234 2.37011719 12.58886719 C2.20138008 19.95043708 0.99727547 27.58545677 -3.9921875 33.26953125 C-6.45163881 35.3892529 -7.7524876 35.92267828 -11 36 C-14.13749359 34.83112984 -16.29707221 33.85573818 -18.4375 31.25 C-19.48817119 27.04731523 -18.42261092 23.19795222 -17.0078125 19.1875 C-15.63751159 14.85352504 -15.25144743 10.52916913 -14.7578125 6.0234375 C-13.87712932 2.50978399 -12.82035543 1.21673693 -10 -1 C-6.00471255 -2.33176248 -3.90144863 -1.41870859 0 0 Z " fill="#337AFA" transform="translate(360,90)"/>
<path d="M0 0 C2.61651993 0.05626925 4.17417955 0.2445352 6.625 1.25 C8.63069622 3.81729117 9.00232195 5.94448991 9.5 9.1171875 C9.01612549 12.41963101 7.5066349 13.88985146 5.1875 16.25 C2.88677177 17.6332089 0.72698951 18.81227612 -1.6875 19.9375 C-2.28691406 20.23205078 -2.88632812 20.52660156 -3.50390625 20.83007812 C-9.10721493 23.534495 -14.50309593 26.05545584 -20.8125 25.25 C-23.6875 23.8125 -23.6875 23.8125 -25.8125 21.25 C-26.52502614 18.11833267 -26.73693785 15.33870998 -25.8125 12.25 C-22.02679451 8.41313633 -17.4591387 6.5836845 -12.5625 4.5625 C-2.01067334 0.13184743 -2.01067334 0.13184743 0 0 Z " fill="#337AFA" transform="translate(331.8125,127.75)"/>
<path d="M0 0 C1.18400391 -0.01933594 2.36800781 -0.03867188 3.58789062 -0.05859375 C4.72548828 -0.05214844 5.86308594 -0.04570312 7.03515625 -0.0390625 C8.07164307 -0.03342285 9.10812988 -0.0277832 10.17602539 -0.02197266 C13.90008 0.85051826 14.93862683 2.44335991 16.9375 5.625 C17.57970846 9.47825079 17.26585318 11.0777447 15.25 14.4375 C10.57076045 18.86380768 3.54790702 17.87446279 -2.5625 17.9375 C-3.96822266 17.98100586 -3.96822266 17.98100586 -5.40234375 18.02539062 C-9.73172904 18.06530694 -12.35773485 18.02595662 -16.1796875 15.8515625 C-18.42462249 13.19676386 -18.65812417 11.16510411 -18.7265625 7.72265625 C-15.8967717 -1.2161535 -7.78033855 -0.12747687 0 0 Z " fill="#337AFA" transform="translate(281.0625,140.375)"/>
<path d="M0 0 C4.05950796 -0.20611188 6.56279765 0.7704482 9.76953125 3.22265625 C11.33888719 6.36136813 11.12154228 8.76121447 10.76953125 12.22265625 C8.03916944 15.95341379 5.77213202 17.50034423 1.30078125 18.25390625 C-0.3739897 18.4332518 -2.05143765 18.58895086 -3.73046875 18.72265625 C-4.57222656 18.820625 -5.41398438 18.91859375 -6.28125 19.01953125 C-11.17564373 19.48199365 -14.2559235 19.50360439 -18.23046875 16.22265625 C-20.15910714 13.68036019 -20.23949166 12.43920607 -20.10546875 9.22265625 C-19.07362311 5.68489979 -18.07878831 4.52413649 -15.23046875 2.22265625 C-10.26327607 0.84612704 -5.11925342 0.5110288 0 0 Z " fill="#337AFA" transform="translate(239.23046875,139.77734375)"/>
<path d="M0 0 C2.89479637 1.73687782 3.01335881 3.05152682 3.875 6.375 C4.01910103 10.55392974 3.38894834 11.66790936 1 15 C-3.1062044 18.77070635 -7.63070907 22.40729069 -13.375 22.6875 C-17 22 -17 22 -19.5 20.5 C-21.59378155 17.01036409 -21.87598996 13.90284814 -21 10 C-19.0625 7.375 -19.0625 7.375 -16 5 C-15.31035156 4.44828125 -14.62070313 3.8965625 -13.91015625 3.328125 C-9.08309845 -0.26947706 -6.07240913 -2.06461911 0 0 Z " fill="#337AFA" transform="translate(207,152)"/>
<path d="M0 0 C5.0323561 1.85402593 6.74518336 4.92008415 9.5625 9.3125 C10.34625 10.3025 11.13 11.2925 11.9375 12.3125 C14.18899889 16.46911333 14.24336385 18.6221046 13.5625 23.3125 C11.0581623 26.25877965 9.36801784 27.12397455 5.625 28 C0.19317026 26.78060965 -1.9926154 22.50447716 -4.92578125 18.0546875 C-9.57670191 10.32498838 -9.57670191 10.32498838 -8.4375 5.3125 C-5.84007418 1.61313595 -4.54364874 0.41305898 0 0 Z " fill="#377CF9" transform="translate(186.4375,216.6875)"/>
<path d="M0 0 C2.56208921 1.31513279 4.67625903 3.02744683 6.875 4.875 C7.45507812 5.33519531 8.03515625 5.79539063 8.6328125 6.26953125 C12.8239512 9.6479024 12.8239512 9.6479024 14 12 C14.35519903 15.83614957 14.54724594 18.14629634 12.4375 21.4375 C9.94392836 23.03594336 8.12975739 23.80948356 5.13671875 23.66015625 C0.11567843 22.10886591 -4.01604922 18.31784436 -8 15 C-8.59425781 14.51144531 -9.18851563 14.02289063 -9.80078125 13.51953125 C-11.86137922 10.90854555 -11.46860202 8.29698916 -11.34375 5.09765625 C-11 3 -11 3 -9.4375 0.9375 C-6.03922577 -0.36952855 -3.6349374 -0.3495855 0 0 Z " fill="#367CF9" transform="translate(213,247)"/>
<path d="M0 0 C3.27997557 0.90026201 4.31336623 2.71086913 6.03515625 5.55859375 C6.27734375 8.6796875 6.27734375 8.6796875 5.91015625 11.99609375 C5.80445313 13.08792969 5.69875 14.17976562 5.58984375 15.3046875 C4.91170678 19.2827727 4.02206767 23.00031256 1.84765625 26.43359375 C-1.19624719 28.32291312 -3.4818257 28.03901003 -6.96484375 27.55859375 C-9.90234375 25.55859375 -9.90234375 25.55859375 -11.96484375 22.55859375 C-12.90530638 15.85779748 -11.32317553 8.86688862 -8.96484375 2.55859375 C-5.77392735 0.43131615 -3.76324601 0.22477963 0 0 Z " fill="#387DF9" transform="translate(182.96484375,178.44140625)"/>
</svg>
