<?xml version="1.0" encoding="UTF-8"?>
<svg version="1.1" xmlns="http://www.w3.org/2000/svg" width="512" height="512">
<path d="M0 0 C0.79083984 0.16628906 1.58167969 0.33257812 2.39648438 0.50390625 C26.67854855 5.83845249 48.86552138 16.14497993 68 32 C68.82113281 32.66773438 69.64226562 33.33546875 70.48828125 34.0234375 C76.44335939 39.06314093 81.26950408 44.81463702 86 51 C86.60714844 51.79148438 87.21429688 52.58296875 87.83984375 53.3984375 C108.92930053 82.18721977 114.52578307 118.62904733 109.74609375 153.48046875 C104.85203171 184.85600531 90.29986112 210.59136539 72 236 C53.26865098 262.08037234 39.50161483 285.3322075 37.82104492 317.97607422 C37.7563501 319.06678223 37.69165527 320.15749023 37.625 321.28125 C37.55152344 322.75174805 37.55152344 322.75174805 37.4765625 324.25195312 C36.51097456 329.81991307 33.46673378 332.79311421 29 336 C26.48507597 337.25746201 24.75612674 337.13429204 21.94049072 337.14717102 C20.86940063 337.15432632 19.79831055 337.16148163 18.69476318 337.16885376 C16.92434662 337.17288712 16.92434662 337.17288712 15.11816406 337.17700195 C13.25949707 337.18685875 13.25949707 337.18685875 11.36328125 337.19691467 C7.24739341 337.21668579 3.13154459 337.2283188 -0.984375 337.23828125 C-2.40139028 337.24232872 -3.81840535 337.24644564 -5.23542023 337.25063133 C-11.89360373 337.26968596 -18.55177614 337.28391555 -25.20998168 337.2922433 C-32.89386052 337.30201262 -40.57745106 337.32832269 -48.26122832 337.36874419 C-54.2010185 337.39891786 -60.14072611 337.41371341 -66.08059144 337.41702431 C-69.62774837 337.41937373 -73.1745974 337.42831909 -76.72167206 337.45348549 C-80.68140354 337.4811251 -84.64075677 337.47693119 -88.60058594 337.4699707 C-90.35885712 337.48918579 -90.35885712 337.48918579 -92.15264893 337.50878906 C-98.42607324 337.46854263 -102.23125156 337.21804145 -107 333 C-107.598125 332.484375 -108.19625 331.96875 -108.8125 331.4375 C-111.24495642 328.49294749 -111.19497964 325.23421939 -111.39453125 321.58203125 C-112.54824766 302.66756211 -115.1406923 286.8672014 -124 270 C-124.57363281 268.89527344 -125.14726562 267.79054688 -125.73828125 266.65234375 C-132.47330547 254.32162489 -140.87727314 243.01113009 -149.1484375 231.6796875 C-176.31408466 194.269518 -190.51590944 151.96911297 -183.40600586 105.59887695 C-180.0634829 85.84895021 -172.89501053 66.55120108 -160 51 C-159.55785156 50.45005371 -159.11570313 49.90010742 -158.66015625 49.33349609 C-152.13436747 41.22710468 -145.41415075 34.21371905 -137 28 C-136.22527344 27.41089844 -135.45054687 26.82179688 -134.65234375 26.21484375 C-115.03989674 11.84111381 -92.73161945 3.6304391 -69 -1 C-67.7625 -1.24621094 -66.525 -1.49242187 -65.25 -1.74609375 C-44.28558489 -5.07925185 -20.7295607 -4.36231021 0 0 Z " fill="#FEEA86" transform="translate(293,38)"/>
<path d="M0 0 C35.64743039 -0.65165922 35.64743039 -0.65165922 53 3 C53.79083984 3.16628906 54.58167969 3.33257812 55.39648438 3.50390625 C79.67854855 8.83845249 101.86552138 19.14497993 121 35 C121.82113281 35.66773438 122.64226562 36.33546875 123.48828125 37.0234375 C129.44335939 42.06314093 134.26950408 47.81463702 139 54 C139.60714844 54.79148438 140.21429688 55.58296875 140.83984375 56.3984375 C161.92930053 85.18721977 167.52578307 121.62904733 162.74609375 156.48046875 C157.85203171 187.85600531 143.29986112 213.59136539 125 239 C106.26865098 265.08037234 92.50161483 288.3322075 90.82104492 320.97607422 C90.7563501 322.06678223 90.69165527 323.15749023 90.625 324.28125 C90.55152344 325.75174805 90.55152344 325.75174805 90.4765625 327.25195312 C89.51097456 332.81991307 86.46673378 335.79311421 82 339 C79.28598706 340.35700647 77.15153684 340.1123861 74.1171875 340.09765625 C72.95058594 340.09443359 71.78398437 340.09121094 70.58203125 340.08789062 C69.35871094 340.07951172 68.13539063 340.07113281 66.875 340.0625 C65.64394531 340.05798828 64.41289062 340.05347656 63.14453125 340.04882812 C60.09630608 340.0370133 57.04817686 340.02054028 54 340 C54.60457031 339.5565625 55.20914063 339.113125 55.83203125 338.65625 C59.47029205 335.87674986 62.5327867 333.40163989 64 329 C64.07528389 326.91505453 64.14609697 324.82978983 64.1875 322.74389648 C64.9123536 293.09568557 76.25911885 270.81298271 93 247 C93.54124512 246.22849609 94.08249023 245.45699219 94.64013672 244.66210938 C97.15159817 241.08921476 99.67479558 237.52468005 102.19921875 233.9609375 C103.13288325 232.64067503 104.06647935 231.32036419 105 230 C105.4326416 229.3905957 105.8652832 228.78119141 106.31103516 228.15332031 C121.05200549 207.25659325 131.26273119 185.1134463 136 160 C136.3403125 158.29650391 136.3403125 158.29650391 136.6875 156.55859375 C142.50878941 122.96490279 135.58379955 87.9317331 116.83984375 59.58203125 C95.56355278 29.72294774 62.17450212 10.2646992 26.0859375 4.1328125 C17.43128794 2.74929264 8.74898758 1.58192807 0 1 C0 0.67 0 0.34 0 0 Z " fill="#FCDB35" transform="translate(240,35)"/>
<path d="M0 0 C9.45294273 5.84506959 14.86268725 13.00603051 18.34375 23.44921875 C19.2515863 33.94171137 17.19765916 42.77978324 11.09765625 51.40234375 C7.8234024 55.22352196 3.83995584 58.20111583 -0.65625 60.44921875 C-0.98625 105.32921875 -1.31625 150.20921875 -1.65625 196.44921875 C-10.23625 196.44921875 -18.81625 196.44921875 -27.65625 196.44921875 C-27.65625 151.56921875 -27.65625 106.68921875 -27.65625 60.44921875 C-29.30625 59.78921875 -30.95625 59.12921875 -32.65625 58.44921875 C-40.2753462 53.11007937 -45.14850743 46.39130083 -47.65625 37.44921875 C-48.84326054 25.79995254 -46.76509092 16.44831347 -39.42578125 7.26953125 C-29.28589276 -3.16134742 -13.30221384 -6.31855157 0 0 Z " fill="#FDBF29" transform="translate(270.65625,178.55078125)"/>
<path d="M0 0 C1.77176102 -0.00788544 1.77176102 -0.00788544 3.57931519 -0.01593018 C6.80665817 -0.02684672 10.03363006 -0.02432293 13.26096725 -0.01479292 C16.64542138 -0.00717426 20.0298515 -0.01424804 23.41430664 -0.01895142 C29.09688743 -0.02440257 34.77935108 -0.01723425 40.46191406 -0.00292969 C47.0228454 0.0133957 53.58349701 0.00810673 60.14442158 -0.0084089 C65.78707675 -0.0220421 71.42964793 -0.02393451 77.07231426 -0.0160929 C80.43824025 -0.01142641 83.80403495 -0.01076314 87.16995239 -0.02070236 C90.92338975 -0.02832158 94.67629013 -0.01670495 98.4296875 0 C99.53947968 -0.00607269 100.64927185 -0.01214539 101.79269409 -0.0184021 C107.3354226 0.02729363 111.46416666 0.18600751 116.21484375 3.38818359 C119.6759451 7.19539508 119.67178872 11.09030999 119.49609375 16.01708984 C119.11627526 19.21917069 118.39067058 20.99477408 116.21484375 23.38818359 C110.55610517 27.20243512 105.0006153 26.81232277 98.4296875 26.77636719 C96.65792648 26.78425262 96.65792648 26.78425262 94.85037231 26.79229736 C91.62302933 26.8032139 88.39605744 26.80069012 85.16872025 26.79116011 C81.78426612 26.78354145 78.399836 26.79061523 75.01538086 26.7953186 C69.33280007 26.80076976 63.65033642 26.79360143 57.96777344 26.77929688 C51.4068421 26.76297149 44.84619049 26.76826046 38.28526592 26.78477609 C32.64261075 26.79840929 27.00003957 26.8003017 21.35737324 26.79246008 C17.99144725 26.7877936 14.62565255 26.78713032 11.25973511 26.79706955 C7.50629775 26.80468877 3.75339737 26.79307214 0 26.77636719 C-1.66468826 26.78547623 -1.66468826 26.78547623 -3.36300659 26.79476929 C-8.9057351 26.74907356 -13.03447916 26.59035968 -17.78515625 23.38818359 C-21.2462576 19.58097211 -21.24210122 15.68605719 -21.06640625 10.75927734 C-20.68658776 7.5571965 -19.96098308 5.78159311 -17.78515625 3.38818359 C-12.12641767 -0.42606793 -6.5709278 -0.03595558 0 0 Z " fill="#9B8279" transform="translate(206.78515625,391.61181640625)"/>
<path d="M0 0 C9.45294273 5.84506959 14.86268725 13.00603051 18.34375 23.44921875 C19.25041531 33.92817739 17.21953519 42.82188685 11.07421875 51.41015625 C4.9887147 58.58088563 -3.54852034 62.68856698 -12.8828125 63.6875 C-21.85760963 63.96522174 -29.62712454 61.07251911 -36.65625 55.44921875 C-44.25146115 48.27132689 -47.80372615 40.93396034 -48.15625 30.44921875 C-47.8395793 20.7168725 -44.48075581 12.46957131 -37.65625 5.44921875 C-27.00005135 -3.1599184 -12.78962543 -6.07507208 0 0 Z " fill="#F9AC00" transform="translate(270.65625,178.55078125)"/>
<path d="M0 0 C0.65418915 -0.00671722 1.3083783 -0.01343445 1.98239136 -0.02035522 C4.13954315 -0.03931309 6.29638343 -0.04325826 8.45361328 -0.04541016 C9.95810065 -0.05183978 11.46258677 -0.05856826 12.96707153 -0.06558228 C16.11935321 -0.07754958 19.27152534 -0.08126368 22.42382812 -0.08007812 C26.45453932 -0.07987499 30.48454496 -0.10717257 34.51508904 -0.14162254 C37.62243854 -0.16390846 40.72961872 -0.16791516 43.83703995 -0.16685867 C45.32254594 -0.16921227 46.80805676 -0.17802225 48.29348373 -0.19352341 C50.37583946 -0.21321881 52.45668006 -0.20733354 54.5390625 -0.1953125 C55.72168671 -0.19816254 56.90431091 -0.20101257 58.12277222 -0.20394897 C62.88496673 0.51481844 65.96731353 2.78944868 69.25048828 6.23193359 C71.37562007 10.04126847 70.89292171 14.06411775 70.39892578 18.29052734 C69.08575018 21.71937474 68.00174077 22.89058278 64.96142578 24.90771484 C60.07217183 26.80551736 55.71401011 26.61516372 50.52392578 26.47802734 C49.54939453 26.46449219 48.57486328 26.45095703 47.57080078 26.43701172 C45.17959715 26.40184696 42.78955603 26.35263404 40.39892578 26.29052734 C40.45113281 28.16804688 40.45113281 28.16804688 40.50439453 30.08349609 C40.62849192 34.54640576 39.34627912 36.86522482 36.39892578 40.29052734 C32.83928884 43.25689146 29.82147473 43.77481527 25.32080078 43.57177734 C20.97643939 42.93601714 18.87474808 40.84351001 16.08642578 37.60302734 C13.9483158 33.40599663 14.26940123 30.94861392 14.39892578 26.29052734 C13.49182861 26.31409302 13.49182861 26.31409302 12.56640625 26.33813477 C9.80234283 26.40084614 7.03842958 26.43963146 4.27392578 26.47802734 C2.84693359 26.51573242 2.84693359 26.51573242 1.39111328 26.55419922 C-4.04748946 26.61085133 -7.91856856 26.39718975 -12.60107422 23.29052734 C-16.00849715 19.54236212 -16.16822906 15.60607212 -16.02294922 10.73193359 C-15.32178448 6.67426729 -13.6289389 5.0431316 -10.60107422 2.29052734 C-7.1045068 0.02860626 -4.11390202 0.02655534 0 0 Z " fill="#9B8279" transform="translate(228.60107421875,433.70947265625)"/>
<path d="M0 0 C2.57444272 1.32267776 5.07785223 2.7302908 7.57910156 4.18652344 C8.42601562 4.66089844 9.27292969 5.13527344 10.14550781 5.62402344 C26.40813295 14.83868087 26.40813295 14.83868087 29.70410156 20.06152344 C30.72700766 24.59153617 31.09691778 26.92672104 29.57910156 31.31152344 C26.87131019 35.28295078 24.46749908 37.52483724 19.82910156 38.93652344 C11.34739754 39.2757916 4.576953 34.40342456 -2.48339844 30.24902344 C-3.56298828 29.63220703 -4.64257812 29.01539063 -5.75488281 28.37988281 C-6.79322266 27.77337891 -7.8315625 27.166875 -8.90136719 26.54199219 C-9.84133545 25.99438232 -10.78130371 25.44677246 -11.74975586 24.88256836 C-15.14078651 22.45724497 -17.73026153 19.83879786 -19.01074219 15.81542969 C-19.53090794 10.69590361 -19.33553041 7.46374905 -16.29589844 3.06152344 C-11.60734023 -1.18748244 -5.99329391 -2.44983218 0 0 Z " fill="#FCDB34" transform="translate(440.2958984375,255.9384765625)"/>
<path d="M0 0 C3.00685978 1.79132072 4.52657334 3.24682123 6.375 6.1875 C7.27050141 10.21725635 7.18214643 14.03233612 6 18 C2.0750424 23.60083326 -2.97862308 26.40663261 -8.8059082 29.78588867 C-10.54822639 30.80415802 -12.26634466 31.85667057 -13.98632812 32.91210938 C-20.98857497 37.00380802 -26.81012325 39.58609854 -35 38 C-38.48078436 36.53685787 -40.38079492 34.42790827 -41.90625 30.91015625 C-43.08869848 26.79270174 -43.10358543 24.37168891 -41.9375 20.1875 C-38.90264026 15.19466624 -34.60215603 12.6266401 -29.5859375 9.80078125 C-28.57789063 9.23166016 -27.56984375 8.66253906 -26.53125 8.07617188 C-25.4896875 7.49416016 -24.448125 6.91214844 -23.375 6.3125 C-21.80105469 5.42208008 -21.80105469 5.42208008 -20.1953125 4.51367188 C-12.92660052 0.4273511 -8.3410748 -1.89103453 0 0 Z " fill="#FCDB34" transform="translate(84,256)"/>
<path d="M0 0 C1.36044087 0.73574521 2.72390492 1.46591918 4.08984375 2.19140625 C5.51823993 2.96091753 6.94662538 3.7304487 8.375 4.5 C9.05296631 4.85505615 9.73093262 5.2101123 10.42944336 5.57592773 C15.60849759 8.4175043 19.76049402 11.57279453 21.84765625 17.34375 C22.26190299 21.50128087 22.23396055 23.5320789 20.3125 27.375 C15.67009802 32.6447536 15.67009802 32.6447536 11.77563477 33.47314453 C4.64792658 33.57624472 -0.01928412 31.49999041 -6.0625 27.875 C-6.89587891 27.400625 -7.72925781 26.92625 -8.58789062 26.4375 C-24.93228232 17.02516548 -24.93228232 17.02516548 -27.125 12.5625 C-28.46990389 7.08681987 -27.87332088 3.65307167 -25.25 -1.3125 C-17.59378532 -10.45742309 -8.36360532 -4.92154393 0 0 Z " fill="#FCDB34" transform="translate(69,63)"/>
<path d="M0 0 C1.14113754 -0.00855011 1.14113754 -0.00855011 2.30532837 -0.01727295 C3.91415012 -0.02671248 5.52299112 -0.03325278 7.13183594 -0.03710938 C9.58563165 -0.04681201 12.03858839 -0.0778428 14.4921875 -0.109375 C16.05728671 -0.11590585 17.62239189 -0.121156 19.1875 -0.125 C20.28304703 -0.1435202 20.28304703 -0.1435202 21.40072632 -0.16241455 C25.8743296 -0.14297573 28.66884034 0.46042695 32.2265625 3.203125 C34.96181577 6.45585862 36.13461008 8.46750566 36.6640625 12.703125 C36.07005202 17.45520886 34.81232464 20.76602806 31.2265625 24.015625 C27.2085321 26.40133055 23.45305071 26.37826521 18.92578125 26.40625 C18.21178665 26.41195007 17.49779205 26.41765015 16.76216125 26.42352295 C15.25169348 26.43296151 13.74120523 26.43950239 12.23071289 26.44335938 C9.93273464 26.45304629 7.63565836 26.48407106 5.33789062 26.515625 C3.86719279 26.52215756 2.39648858 26.52740704 0.92578125 26.53125 C0.24432541 26.5435968 -0.43713043 26.5559436 -1.13923645 26.56866455 C-5.75207821 26.54738467 -8.85719661 25.62205347 -12.7734375 23.203125 C-15.64329109 19.9556591 -17.02470143 17.43215181 -17.2109375 13.140625 C-16.63245941 7.93432218 -14.79474798 4.55421706 -10.7734375 1.203125 C-7.14172335 -0.00744638 -3.78296115 0.02189112 0 0 Z " fill="#FCDB34" transform="translate(462.7734375,162.796875)"/>
<path d="M0 0 C0.75792847 -0.00287018 1.51585693 -0.00574036 2.29675293 -0.00869751 C3.8936437 -0.01073216 5.49055974 -0.00524427 7.08740234 0.00732422 C9.52368197 0.0233876 11.95830287 0.00745641 14.39453125 -0.01171875 C15.95052447 -0.00973621 17.50651667 -0.00589231 19.0625 0 C19.78659058 -0.00607269 20.51068115 -0.01214539 21.25671387 -0.0184021 C26.66903787 0.05640173 29.73871001 1.43340322 33.78125 4.8984375 C36.33852015 7.96716168 36.3725135 11.47234401 36.30859375 15.3359375 C35.8396252 18.82347823 34.32528799 20.8025524 32.03125 23.3984375 C27.38945346 26.25081978 23.8463619 26.78293463 18.4375 26.796875 C17.37287537 26.80118027 17.37287537 26.80118027 16.28674316 26.80557251 C14.79418128 26.80760346 13.30159219 26.80214172 11.80908203 26.78955078 C9.53747478 26.77348153 7.26764633 26.78943075 4.99609375 26.80859375 C3.53905861 26.80661114 2.08202457 26.80276711 0.625 26.796875 C-1.34436523 26.79179932 -1.34436523 26.79179932 -3.35351562 26.78662109 C-8.09473375 26.27753568 -11.55174458 24.96202969 -14.78125 21.3984375 C-17.16496412 17.38376109 -17.35783515 13.98964225 -16.96875 9.3984375 C-12.99577853 1.74678875 -8.31299737 -0.06971818 0 0 Z " fill="#FCDA34" transform="translate(29.96875,162.6015625)"/>
<path d="M0 0 C3.57154547 1.75934481 4.99270017 3.17382275 7.09765625 6.66015625 C8.45317616 11.65863594 8.1551208 15.18117973 5.88061523 19.84106445 C3.77895508 22.79570568 1.83950838 24.04258741 -1.3046875 25.828125 C-2.35978516 26.43462891 -3.41488281 27.04113281 -4.50195312 27.66601562 C-5.60345703 28.28283203 -6.70496094 28.89964844 -7.83984375 29.53515625 C-8.93748047 30.16357422 -10.03511719 30.79199219 -11.16601562 31.43945312 C-25.54121535 39.64007042 -25.54121535 39.64007042 -33.90234375 38.34765625 C-37.30336953 36.66796597 -39.33811364 34.25533078 -41.33984375 31.03515625 C-42.45878102 25.68912261 -41.98483836 22.01746176 -39.06640625 17.515625 C-35.08041417 12.97175138 -29.58509984 10.43381088 -24.33984375 7.59765625 C-23.29892578 7.02144531 -22.25800781 6.44523437 -21.18554688 5.8515625 C-18.43321276 4.33291127 -15.67634792 2.82632606 -12.90234375 1.34765625 C-12.20246338 0.96706055 -11.50258301 0.58646484 -10.78149414 0.19433594 C-7.21161221 -1.41412847 -3.67817696 -1.26130504 0 0 Z " fill="#FCDB34" transform="translate(462.90234375,57.65234375)"/>
<path d="M0 0 C9.97991915 0.15472743 16.69971109 3.99744575 23.859375 10.796875 C29.89677487 17.69064365 32.39232875 25.31599785 32.2734375 34.33984375 C31.62170725 43.52441264 27.88285722 51.74164367 21.17578125 58.1015625 C14.38123161 63.52118363 6.52132767 66.48958984 -2.1875 66.375 C-3.52554688 66.36146484 -3.52554688 66.36146484 -4.890625 66.34765625 C-5.56609375 66.33605469 -6.2415625 66.32445312 -6.9375 66.3125 C-7.2675 65.6525 -7.5975 64.9925 -7.9375 64.3125 C-7.380625 64.10496094 -6.82375 63.89742187 -6.25 63.68359375 C3.45226418 59.76663237 9.57830935 54.2931538 13.99609375 44.69921875 C16.51806647 36.68987682 16.34158031 27.20976773 13.16015625 19.3671875 C9.41649141 12.35947324 5.16837431 7.73683551 -2.01953125 4.28515625 C-3.9375 3.3125 -3.9375 3.3125 -5.9375 1.3125 C-4.26551674 -0.35948326 -2.29582392 0.06117904 0 0 Z " fill="#F99601" transform="translate(256.9375,175.6875)"/>
</svg>
