<svg width="512" height="512" version="1.1" xmlns="http://www.w3.org/2000/svg" desc="Created with imagetracer.js version 1.2.6" ><path fill="rgb(0,226,48)" stroke="rgb(0,226,48)" stroke-width="1" opacity="0.5254901960784314" d="M 67.5 5 L 258 5.5 L 67.5 6 L 67.5 5 Z " /><path fill="rgb(0,226,48)" stroke="rgb(0,226,48)" stroke-width="1" opacity="0.5254901960784314" d="M 58.5 6 L 64 6.5 L 58.5 7 L 58.5 6 Z " /><path fill="rgb(0,226,48)" stroke="rgb(0,226,48)" stroke-width="1" opacity="0.5254901960784314" d="M 261.5 6 L 267 6.5 L 261.5 7 L 261.5 6 Z " /><path fill="rgb(0,226,48)" stroke="rgb(0,226,48)" stroke-width="1" opacity="0.5254901960784314" d="M 54.5 7 L 57 7.5 L 54.5 8 L 54.5 7 Z " /><path fill="rgb(0,226,48)" stroke="rgb(0,226,48)" stroke-width="1" opacity="0.5254901960784314" d="M 268.5 7 L 271 7.5 L 268.5 8 L 268.5 7 Z " /><path fill="rgb(0,226,48)" stroke="rgb(0,226,48)" stroke-width="1" opacity="0.5254901960784314" d="M 50.5 8 L 53 8.5 Q 33.5 14 22 27.5 Q 11.8 38.3 7.5 55 L 7 52.5 Q 13.5 32 28.5 20 Q 37.8 12.3 50.5 8 Z " /><path fill="rgb(0,226,48)" stroke="rgb(0,226,48)" stroke-width="1" opacity="0.5254901960784314" d="M 272.5 8 L 282 11.5 L 280.5 12 L 272.5 9 L 272.5 8 Z " /><path fill="rgb(0,226,48)" stroke="rgb(0,226,48)" stroke-width="1" opacity="0.5254901960784314" d="M 285.5 13 Q 297.8 19.2 306 29.5 Q 312.5 37 316 47.5 L 315 47.5 Q 309 31 296.5 21 L 286.5 15 L 285.5 13 Z " /><path fill="rgb(0,226,48)" stroke="rgb(0,226,48)" stroke-width="1" opacity="0.5254901960784314" d="M 64.5 40 L 71 40.5 L 64.5 41 L 64.5 40 Z " /><path fill="rgb(0,226,48)" stroke="rgb(0,226,48)" stroke-width="1" opacity="0.5254901960784314" d="M 254.5 40 L 261 40.5 L 254.5 41 L 254.5 40 Z " /><path fill="rgb(0,226,48)" stroke="rgb(0,226,48)" stroke-width="1" opacity="0.5254901960784314" d="M 60.5 41 L 63 41.5 Q 52.8 44.3 47 51.5 Q 42 56.5 40.5 65 L 40 62.5 Q 43.4 51.9 51.5 46 L 60.5 41 Z " /><path fill="rgb(0,226,48)" stroke="rgb(0,226,48)" stroke-width="1" opacity="0.5254901960784314" d="M 262.5 41 Q 274.1 43.9 280 52.5 L 284 60.5 L 283 60.5 Q 280.2 51.8 273.5 47 L 262.5 42 L 262.5 41 Z " /><path fill="rgb(0,226,48)" stroke="rgb(0,226,48)" stroke-width="1" opacity="0.5254901960784314" d="M 317.5 52 L 319 58.5 L 318 58.5 L 317.5 52 Z " /><path fill="rgb(0,226,48)" stroke="rgb(0,226,48)" stroke-width="1" opacity="0.5254901960784314" d="M 6.5 56 L 7 59.5 L 6 59.5 L 6.5 56 Z " /><path fill="rgb(0,226,48)" stroke="rgb(0,226,48)" stroke-width="1" opacity="0.5254901960784314" d="M 319.5 60 L 320 66.5 L 319 66.5 L 319.5 60 Z " /><path fill="rgb(0,226,48)" stroke="rgb(0,226,48)" stroke-width="1" opacity="0.5254901960784314" d="M 5.5 61 L 6 68.5 L 5 68.5 L 5.5 61 Z " /><path fill="rgb(0,226,48)" stroke="rgb(0,226,48)" stroke-width="1" opacity="0.5254901960784314" d="M 284.5 62 Q 287.6 66.8 286 76.5 L 285 76.5 Q 285.6 66.8 284.5 62 Z " /><path fill="rgb(0,226,48)" stroke="rgb(0,226,48)" stroke-width="1" opacity="0.5254901960784314" d="M 39.5 66 L 40 75.5 L 39 75.5 L 39.5 66 Z " /><path fill="rgb(0,226,48)" stroke="rgb(0,226,48)" stroke-width="1" opacity="0.5254901960784314" d="M 5.5 74 L 6 81.5 L 5 81.5 L 5.5 74 Z " /><path fill="rgb(0,226,48)" stroke="rgb(0,226,48)" stroke-width="1" opacity="0.5254901960784314" d="M 319.5 76 L 320 82.5 L 319 82.5 L 319.5 76 Z " /><path fill="rgb(0,226,48)" stroke="rgb(0,226,48)" stroke-width="1" opacity="0.5254901960784314" d="M 40.5 78 Q 42.7 88.3 49.5 94 Q 54.9 99.6 64 101.5 L 61.5 102 Q 51.8 98.7 46 91.5 L 41 83.5 L 40.5 78 Z " /><path fill="rgb(0,226,48)" stroke="rgb(0,226,48)" stroke-width="1" opacity="0.5254901960784314" d="M 284.5 78 L 285 80.5 Q 281.6 91.1 273.5 97 Q 269.2 101.2 261.5 102 L 261.5 101 Q 272.5 99 278 91.5 Q 283 86.5 284.5 78 Z " /><path fill="rgb(0,226,48)" stroke="rgb(0,226,48)" stroke-width="1" opacity="0.5254901960784314" d="M 6.5 83 L 7 86.5 L 6 86.5 L 6.5 83 Z " /><path fill="rgb(0,226,48)" stroke="rgb(0,226,48)" stroke-width="1" opacity="0.5254901960784314" d="M 318.5 84 L 319 87.5 L 317.5 91 L 317 88.5 L 318.5 84 Z " /><path fill="rgb(0,226,48)" stroke="rgb(0,226,48)" stroke-width="1" opacity="0.5254901960784314" d="M 7.5 88 L 10 95.5 L 9 95.5 L 7.5 88 Z " /><path fill="rgb(0,226,48)" stroke="rgb(0,226,48)" stroke-width="1" opacity="0.5254901960784314" d="M 316.5 92 L 317 93.5 Q 310.4 110.9 297.5 122 Q 287.2 131.2 271.5 135 L 271.5 134 Q 290.8 129.3 302 116.5 Q 311.6 106.6 316.5 92 Z " /><path fill="rgb(0,226,48)" stroke="rgb(0,226,48)" stroke-width="1" opacity="0.5254901960784314" d="M 10.5 97 Q 17.2 113.3 30.5 123 Q 39.7 131.3 54 134.5 L 51.5 135 Q 32.5 129 21 115.5 Q 12.8 107.8 10.5 97 Z " /><path fill="rgb(0,226,48)" stroke="rgb(0,226,48)" stroke-width="1" opacity="0.5254901960784314" d="M 65.5 102 L 260 102.5 L 65.5 103 L 65.5 102 Z " /><path fill="rgb(0,226,48)" stroke="rgb(0,226,48)" stroke-width="1" opacity="0.5254901960784314" d="M 55.5 135 L 59 135.5 L 55.5 136 L 55.5 135 Z " /><path fill="rgb(0,226,48)" stroke="rgb(0,226,48)" stroke-width="1" opacity="0.5254901960784314" d="M 267.5 135 L 270 135.5 L 267.5 136 L 267.5 135 Z " /><path fill="rgb(0,226,48)" stroke="rgb(0,226,48)" stroke-width="1" opacity="0.5254901960784314" d="M 60.5 136 L 67 136.5 L 60.5 137 L 60.5 136 Z " /><path fill="rgb(0,226,48)" stroke="rgb(0,226,48)" stroke-width="1" opacity="0.5254901960784314" d="M 259.5 136 L 266 136.5 L 259.5 137 L 259.5 136 Z " /><path fill="rgb(0,226,48)" stroke="rgb(0,226,48)" stroke-width="1" opacity="0.5254901960784314" d="M 62.5 190 L 450 190.5 L 62.5 191 L 62.5 190 Z " /><path fill="rgb(0,226,48)" stroke="rgb(0,226,48)" stroke-width="1" opacity="0.5254901960784314" d="M 56.5 191 L 61 191.5 Q 33.8 196.3 20 214.5 L 12.5 226 L 13 224.5 Q 18.6 211.6 29.5 204 Q 40.2 194.7 56.5 191 Z " /><path fill="rgb(0,226,48)" stroke="rgb(0,226,48)" stroke-width="1" opacity="0.5254901960784314" d="M 451.5 191 Q 480.2 195.8 494 215.5 L 500 225.5 L 498 224.5 Q 492.4 212.6 482.5 205 L 465.5 195 L 451.5 192 L 451.5 191 Z " /><path fill="rgb(0,226,48)" stroke="rgb(0,226,48)" stroke-width="1" opacity="0.5254901960784314" d="M 68.5 224 L 444 224.5 L 68.5 225 L 68.5 224 Z " /><path fill="rgb(0,226,48)" stroke="rgb(0,226,48)" stroke-width="1" opacity="0.5254901960784314" d="M 62.5 225 L 66 225.5 L 60.5 227 L 60.5 226 L 62.5 225 Z " /><path fill="rgb(0,226,48)" stroke="rgb(0,226,48)" stroke-width="1" opacity="0.5254901960784314" d="M 446.5 225 Q 461.6 227.4 468 238.5 L 471 245.5 L 470 245.5 Q 467.3 235.8 459.5 231 Q 455 226.5 446.5 226 L 446.5 225 Z " /><path fill="rgb(0,226,48)" stroke="rgb(0,226,48)" stroke-width="1" opacity="0.5254901960784314" d="M 11.5 227 L 12 228.5 L 9.5 233 L 9 231.5 L 11.5 227 Z " /><path fill="rgb(0,226,48)" stroke="rgb(0,226,48)" stroke-width="1" opacity="0.5254901960784314" d="M 57.5 227 L 59 227.5 Q 50.1 231.1 45 238.5 L 41.5 246 L 41 244.5 Q 44.6 235.1 52.5 230 L 57.5 227 Z " /><path fill="rgb(0,226,48)" stroke="rgb(0,226,48)" stroke-width="1" opacity="0.5254901960784314" d="M 500.5 227 L 503 232.5 L 502 232.5 L 500.5 227 Z " /><path fill="rgb(0,226,48)" stroke="rgb(0,226,48)" stroke-width="1" opacity="0.5254901960784314" d="M 7.5 237 L 8 239.5 L 6.5 244 L 6 240.5 L 7.5 237 Z " /><path fill="rgb(0,226,48)" stroke="rgb(0,226,48)" stroke-width="1" opacity="0.5254901960784314" d="M 504.5 237 L 506 243.5 L 505 243.5 L 504.5 237 Z " /><path fill="rgb(0,226,48)" stroke="rgb(0,226,48)" stroke-width="1" opacity="0.5254901960784314" d="M 5.5 245 L 6 253.5 L 5 253.5 L 5.5 245 Z " /><path fill="rgb(0,226,48)" stroke="rgb(0,226,48)" stroke-width="1" opacity="0.5254901960784314" d="M 506.5 245 L 507 253.5 L 506 253.5 L 506.5 245 Z " /><path fill="rgb(0,226,48)" stroke="rgb(0,226,48)" stroke-width="1" opacity="0.5254901960784314" d="M 40.5 247 L 41 249.5 L 40 249.5 L 40.5 247 Z " /><path fill="rgb(0,226,48)" stroke="rgb(0,226,48)" stroke-width="1" opacity="0.5254901960784314" d="M 471.5 247 L 472 249.5 L 471 249.5 L 471.5 247 Z " /><path fill="rgb(0,226,48)" stroke="rgb(0,226,48)" stroke-width="1" opacity="0.5254901960784314" d="M 39.5 251 L 40 260.5 L 39 260.5 L 39.5 251 Z " /><path fill="rgb(0,226,48)" stroke="rgb(0,226,48)" stroke-width="1" opacity="0.5254901960784314" d="M 472.5 251 L 473 260.5 L 472 260.5 L 472.5 251 Z " /><path fill="rgb(0,226,48)" stroke="rgb(0,226,48)" stroke-width="1" opacity="0.5254901960784314" d="M 5.5 258 L 6 266.5 L 5 266.5 L 5.5 258 Z " /><path fill="rgb(0,226,48)" stroke="rgb(0,226,48)" stroke-width="1" opacity="0.5254901960784314" d="M 506.5 258 L 507 266.5 L 506 266.5 L 506.5 258 Z " /><path fill="rgb(0,226,48)" stroke="rgb(0,226,48)" stroke-width="1" opacity="0.5254901960784314" d="M 40.5 262 L 41 264.5 L 40 264.5 L 40.5 262 Z " /><path fill="rgb(0,226,48)" stroke="rgb(0,226,48)" stroke-width="1" opacity="0.5254901960784314" d="M 471.5 262 L 472 264.5 L 471 264.5 L 471.5 262 Z " /><path fill="rgb(0,226,48)" stroke="rgb(0,226,48)" stroke-width="1" opacity="0.5254901960784314" d="M 41.5 266 Q 44.6 275.9 52.5 281 Q 57.6 285.4 66 286.5 L 62.5 287 Q 50.6 282.9 44 273.5 L 41.5 266 Z " /><path fill="rgb(0,226,48)" stroke="rgb(0,226,48)" stroke-width="1" opacity="0.5254901960784314" d="M 470.5 266 L 471 267.5 Q 467.4 276.9 459.5 282 Q 455 286.5 446.5 287 L 446.5 286 Q 460.8 283.8 467 273.5 L 470.5 266 Z " /><path fill="rgb(0,226,48)" stroke="rgb(0,226,48)" stroke-width="1" opacity="0.5254901960784314" d="M 6.5 268 L 8 274.5 L 7 274.5 L 6.5 268 Z " /><path fill="rgb(0,226,48)" stroke="rgb(0,226,48)" stroke-width="1" opacity="0.5254901960784314" d="M 505.5 268 L 506 271.5 L 504.5 275 L 504 272.5 L 505.5 268 Z " /><path fill="rgb(0,226,48)" stroke="rgb(0,226,48)" stroke-width="1" opacity="0.5254901960784314" d="M 9.5 279 L 12 284.5 L 11 284.5 L 9.5 279 Z " /><path fill="rgb(0,226,48)" stroke="rgb(0,226,48)" stroke-width="1" opacity="0.5254901960784314" d="M 502.5 279 L 503 280.5 Q 496.1 297.6 482.5 308 Q 471.3 318.8 451.5 321 L 451.5 320 Q 478.6 315.6 492 297.5 L 502.5 279 Z " /><path fill="rgb(0,226,48)" stroke="rgb(0,226,48)" stroke-width="1" opacity="0.5254901960784314" d="M 12.5 286 Q 19 298.5 29.5 307 Q 41.3 317.7 61 320.5 L 56.5 321 Q 31.4 314.6 18 296.5 L 12.5 286 Z " /><path fill="rgb(0,226,48)" stroke="rgb(0,226,48)" stroke-width="1" opacity="0.5254901960784314" d="M 68.5 287 L 444 287.5 L 68.5 288 L 68.5 287 Z " /><path fill="rgb(0,226,48)" stroke="rgb(0,226,48)" stroke-width="1" opacity="0.5254901960784314" d="M 63.5 321 L 449 321.5 L 63.5 322 L 63.5 321 Z " /><path fill="rgb(0,226,48)" stroke="rgb(0,226,48)" stroke-width="1" opacity="0.5254901960784314" d="M 250.5 373 L 449 373.5 L 250.5 374 L 250.5 373 Z " /><path fill="rgb(0,226,48)" stroke="rgb(0,226,48)" stroke-width="1" opacity="0.5254901960784314" d="M 243.5 374 L 248 374.5 Q 220 379.5 206 398.5 L 197.5 413 L 197 411.5 Q 204.1 396.6 216.5 387 Q 227.2 377.7 243.5 374 Z " /><path fill="rgb(0,226,48)" stroke="rgb(0,226,48)" stroke-width="1" opacity="0.5254901960784314" d="M 451.5 374 L 455 374.5 L 451.5 375 L 451.5 374 Z " /><path fill="rgb(0,226,48)" stroke="rgb(0,226,48)" stroke-width="1" opacity="0.5254901960784314" d="M 456.5 375 L 459 375.5 L 456.5 376 L 456.5 375 Z " /><path fill="rgb(0,226,48)" stroke="rgb(0,226,48)" stroke-width="1" opacity="0.5254901960784314" d="M 460.5 376 L 465 377.5 L 463.5 378 L 460.5 377 L 460.5 376 Z " /><path fill="rgb(0,226,48)" stroke="rgb(0,226,48)" stroke-width="1" opacity="0.5254901960784314" d="M 466.5 378 Q 483.2 384.3 493 397.5 Q 499.5 405 503 415.5 L 502 415.5 Q 495.7 398.3 482.5 388 L 466.5 379 L 466.5 378 Z " /><path fill="rgb(0,226,48)" stroke="rgb(0,226,48)" stroke-width="1" opacity="0.5254901960784314" d="M 256.5 407 L 443 407.5 L 256.5 408 L 256.5 407 Z " /><path fill="rgb(0,226,48)" stroke="rgb(0,226,48)" stroke-width="1" opacity="0.5254901960784314" d="M 249.5 408 L 253 408.5 Q 238.5 411 232 421.5 L 230.5 424 L 231 422.5 L 235 416 L 249.5 408 Z " /><path fill="rgb(0,226,48)" stroke="rgb(0,226,48)" stroke-width="1" opacity="0.5254901960784314" d="M 445.5 408 L 449 408.5 L 445.5 409 L 445.5 408 Z " /><path fill="rgb(0,226,48)" stroke="rgb(0,226,48)" stroke-width="1" opacity="0.5254901960784314" d="M 453.5 410 Q 462.9 413.6 468 421.5 L 471 428.5 L 470 428.5 Q 466.8 419.2 459.5 414 L 453.5 411 L 453.5 410 Z " /><path fill="rgb(0,226,48)" stroke="rgb(0,226,48)" stroke-width="1" opacity="0.5254901960784314" d="M 196.5 414 L 197 415.5 L 194.5 422 L 194 419.5 L 196.5 414 Z " /><path fill="rgb(0,226,48)" stroke="rgb(0,226,48)" stroke-width="1" opacity="0.5254901960784314" d="M 504.5 420 L 506 426.5 L 505 426.5 L 504.5 420 Z " /><path fill="rgb(0,226,48)" stroke="rgb(0,226,48)" stroke-width="1" opacity="0.5254901960784314" d="M 193.5 423 L 194 426.5 L 193 426.5 L 193.5 423 Z " /><path fill="rgb(0,226,48)" stroke="rgb(0,226,48)" stroke-width="1" opacity="0.5254901960784314" d="M 228.5 427 L 229 428.5 L 227.5 432 L 227 429.5 L 228.5 427 Z " /><path fill="rgb(0,226,48)" stroke="rgb(0,226,48)" stroke-width="1" opacity="0.5254901960784314" d="M 192.5 428 L 193 433.5 L 192 433.5 L 192.5 428 Z " /><path fill="rgb(0,226,48)" stroke="rgb(0,226,48)" stroke-width="1" opacity="0.5254901960784314" d="M 506.5 428 L 507 436.5 L 506 436.5 L 506.5 428 Z " /><path fill="rgb(0,226,48)" stroke="rgb(0,226,48)" stroke-width="1" opacity="0.5254901960784314" d="M 471.5 430 L 472 432.5 L 471 432.5 L 471.5 430 Z " /><path fill="rgb(0,226,48)" stroke="rgb(0,226,48)" stroke-width="1" opacity="0.5254901960784314" d="M 226.5 433 L 227 444.5 L 226 444.5 L 226.5 433 Z " /><path fill="rgb(0,226,48)" stroke="rgb(0,226,48)" stroke-width="1" opacity="0.5254901960784314" d="M 472.5 434 L 473 443.5 L 472 443.5 L 472.5 434 Z " /><path fill="rgb(0,226,48)" stroke="rgb(0,226,48)" stroke-width="1" opacity="0.5254901960784314" d="M 506.5 441 L 507 449.5 L 506 449.5 L 506.5 441 Z " /><path fill="rgb(0,226,48)" stroke="rgb(0,226,48)" stroke-width="1" opacity="0.5254901960784314" d="M 192.5 444 L 193 450.5 L 192 450.5 L 192.5 444 Z " /><path fill="rgb(0,226,48)" stroke="rgb(0,226,48)" stroke-width="1" opacity="0.5254901960784314" d="M 471.5 445 L 472 447.5 L 471 447.5 L 471.5 445 Z " /><path fill="rgb(0,226,48)" stroke="rgb(0,226,48)" stroke-width="1" opacity="0.5254901960784314" d="M 227.5 446 L 229 450.5 L 228 450.5 L 227.5 446 Z " /><path fill="rgb(0,226,48)" stroke="rgb(0,226,48)" stroke-width="1" opacity="0.5254901960784314" d="M 470.5 449 L 471 450.5 Q 467.1 460.6 458.5 466 Q 454 469.5 446.5 470 L 446.5 469 Q 460.8 466.8 467 456.5 L 470.5 449 Z " /><path fill="rgb(0,226,48)" stroke="rgb(0,226,48)" stroke-width="1" opacity="0.5254901960784314" d="M 505.5 451 L 506 454.5 L 504.5 458 L 504 455.5 L 505.5 451 Z " /><path fill="rgb(0,226,48)" stroke="rgb(0,226,48)" stroke-width="1" opacity="0.5254901960784314" d="M 193.5 452 L 194 454.5 L 193 454.5 L 193.5 452 Z " /><path fill="rgb(0,226,48)" stroke="rgb(0,226,48)" stroke-width="1" opacity="0.5254901960784314" d="M 229.5 452 Q 233.3 460.2 240.5 465 L 253 469.5 L 249.5 470 Q 239.9 467.1 234 460.5 L 229 453.5 L 229.5 452 Z " /><path fill="rgb(0,226,48)" stroke="rgb(0,226,48)" stroke-width="1" opacity="0.5254901960784314" d="M 194.5 456 L 197 463.5 L 196 463.5 L 194.5 456 Z " /><path fill="rgb(0,226,48)" stroke="rgb(0,226,48)" stroke-width="1" opacity="0.5254901960784314" d="M 502.5 462 L 503 463.5 Q 495.8 481.3 481.5 492 L 465.5 501 L 451.5 504 L 451.5 503 Q 478.6 498.6 492 480.5 Q 499 473 502.5 462 Z " /><path fill="rgb(0,226,48)" stroke="rgb(0,226,48)" stroke-width="1" opacity="0.5254901960784314" d="M 197.5 465 Q 204.1 480.4 216.5 490 Q 226.5 499 242 502.5 L 239.5 503 L 223.5 496 L 210 486 L 199 470.5 L 197.5 465 Z " /><path fill="rgb(0,226,48)" stroke="rgb(0,226,48)" stroke-width="1" opacity="0.5254901960784314" d="M 254.5 470 L 445 470.5 L 254.5 471 L 254.5 470 Z " /><path fill="rgb(0,226,48)" stroke="rgb(0,226,48)" stroke-width="1" opacity="0.5254901960784314" d="M 243.5 503 L 247 503.5 L 243.5 504 L 243.5 503 Z " /><path fill="rgb(0,226,48)" stroke="rgb(0,226,48)" stroke-width="1" opacity="0.5254901960784314" d="M 249.5 504 L 450 504.5 L 249.5 505 L 249.5 504 Z " /><path fill="rgb(92,255,122)" stroke="rgb(92,255,122)" stroke-width="1" opacity="0.47843137254901963" d="M 433.5 7 L 450 7.5 L 433.5 8 L 433.5 7 Z " /><path fill="rgb(92,255,122)" stroke="rgb(92,255,122)" stroke-width="1" opacity="0.47843137254901963" d="M 427.5 8 L 431 8.5 L 427.5 9 L 427.5 8 Z " /><path fill="rgb(92,255,122)" stroke="rgb(92,255,122)" stroke-width="1" opacity="0.47843137254901963" d="M 452.5 8 L 456 8.5 L 452.5 9 L 452.5 8 Z " /><path fill="rgb(92,255,122)" stroke="rgb(92,255,122)" stroke-width="1" opacity="0.47843137254901963" d="M 423.5 9 L 426 9.5 L 423.5 10 L 423.5 9 Z " /><path fill="rgb(92,255,122)" stroke="rgb(92,255,122)" stroke-width="1" opacity="0.47843137254901963" d="M 457.5 9 Q 481.5 15 494 32.5 L 499 40.5 L 497 39.5 Q 491.9 28.6 482.5 22 L 465.5 12 L 457.5 10 L 457.5 9 Z " /><path fill="rgb(92,255,122)" stroke="rgb(92,255,122)" stroke-width="1" opacity="0.47843137254901963" d="M 417.5 11 L 419 11.5 L 415.5 13 L 415.5 12 L 417.5 11 Z " /><path fill="rgb(92,255,122)" stroke="rgb(92,255,122)" stroke-width="1" opacity="0.47843137254901963" d="M 412.5 13 L 414 13.5 Q 401.5 19 393 28.5 Q 385.1 37.1 380.5 49 L 380 47.5 Q 386.4 32.9 397.5 23 L 412.5 13 Z " /><path fill="rgb(92,255,122)" stroke="rgb(92,255,122)" stroke-width="1" opacity="0.47843137254901963" d="M 438.5 41 L 444 41.5 L 438.5 42 L 438.5 41 Z " /><path fill="rgb(92,255,122)" stroke="rgb(92,255,122)" stroke-width="1" opacity="0.47843137254901963" d="M 433.5 42 L 437 42.5 L 433.5 43 L 433.5 42 Z " /><path fill="rgb(92,255,122)" stroke="rgb(92,255,122)" stroke-width="1" opacity="0.47843137254901963" d="M 446.5 42 Q 454.2 42.3 458 46.5 L 456.5 46 L 446.5 43 L 446.5 42 Z " /><path fill="rgb(92,255,122)" stroke="rgb(92,255,122)" stroke-width="1" opacity="0.47843137254901963" d="M 430.5 43 L 432 43.5 L 428.5 45 L 428.5 44 L 430.5 43 Z " /><path fill="rgb(92,255,122)" stroke="rgb(92,255,122)" stroke-width="1" opacity="0.47843137254901963" d="M 426.5 45 L 425.5 47 L 417 53.5 L 412.5 62 L 412 60.5 Q 415.3 52.8 421.5 48 L 426.5 45 Z " /><path fill="rgb(92,255,122)" stroke="rgb(92,255,122)" stroke-width="1" opacity="0.47843137254901963" d="M 501.5 46 L 503 49.5 L 502 49.5 L 501.5 46 Z " /><path fill="rgb(92,255,122)" stroke="rgb(92,255,122)" stroke-width="1" opacity="0.47843137254901963" d="M 459.5 47 Q 467.9 52 471 62.5 L 470 62.5 L 467 55.5 L 459.5 47 Z " /><path fill="rgb(92,255,122)" stroke="rgb(92,255,122)" stroke-width="1" opacity="0.47843137254901963" d="M 379.5 50 L 380 51.5 L 378.5 55 L 378 52.5 L 379.5 50 Z " /><path fill="rgb(92,255,122)" stroke="rgb(92,255,122)" stroke-width="1" opacity="0.47843137254901963" d="M 504.5 54 L 506 60.5 L 505 60.5 L 504.5 54 Z " /><path fill="rgb(92,255,122)" stroke="rgb(92,255,122)" stroke-width="1" opacity="0.47843137254901963" d="M 377.5 56 L 378 58.5 L 377 58.5 L 377.5 56 Z " /><path fill="rgb(92,255,122)" stroke="rgb(92,255,122)" stroke-width="1" opacity="0.47843137254901963" d="M 376.5 60 L 377 64.5 L 376 64.5 L 376.5 60 Z " /><path fill="rgb(92,255,122)" stroke="rgb(92,255,122)" stroke-width="1" opacity="0.47843137254901963" d="M 506.5 62 L 507 69.5 L 506 69.5 L 506.5 62 Z " /><path fill="rgb(92,255,122)" stroke="rgb(92,255,122)" stroke-width="1" opacity="0.47843137254901963" d="M 471.5 64 L 472 66.5 L 471 66.5 L 471.5 64 Z " /><path fill="rgb(92,255,122)" stroke="rgb(92,255,122)" stroke-width="1" opacity="0.47843137254901963" d="M 410.5 66 L 411 70.5 L 410 70.5 L 410.5 66 Z " /><path fill="rgb(92,255,122)" stroke="rgb(92,255,122)" stroke-width="1" opacity="0.47843137254901963" d="M 375.5 68 L 376 77.5 L 375 77.5 L 375.5 68 Z " /><path fill="rgb(92,255,122)" stroke="rgb(92,255,122)" stroke-width="1" opacity="0.47843137254901963" d="M 472.5 68 L 473 77.5 L 472 77.5 L 472.5 68 Z " /><path fill="rgb(92,255,122)" stroke="rgb(92,255,122)" stroke-width="1" opacity="0.47843137254901963" d="M 410.5 74 L 411 79.5 L 410 79.5 L 410.5 74 Z " /><path fill="rgb(92,255,122)" stroke="rgb(92,255,122)" stroke-width="1" opacity="0.47843137254901963" d="M 506.5 76 L 507 82.5 L 506 82.5 L 506.5 76 Z " /><path fill="rgb(92,255,122)" stroke="rgb(92,255,122)" stroke-width="1" opacity="0.47843137254901963" d="M 471.5 79 L 472 81.5 L 471 81.5 L 471.5 79 Z " /><path fill="rgb(92,255,122)" stroke="rgb(92,255,122)" stroke-width="1" opacity="0.47843137254901963" d="M 376.5 81 L 377 85.5 L 376 85.5 L 376.5 81 Z " /><path fill="rgb(92,255,122)" stroke="rgb(92,255,122)" stroke-width="1" opacity="0.47843137254901963" d="M 470.5 83 L 471 84.5 Q 467.4 93.9 459.5 99 L 453.5 102 L 453.5 101 Q 462.3 97.8 467 90.5 L 470.5 83 Z " /><path fill="rgb(92,255,122)" stroke="rgb(92,255,122)" stroke-width="1" opacity="0.47843137254901963" d="M 412.5 84 L 420.5 96 Q 426.5 102 437 103.5 L 433.5 104 Q 423.1 100.9 417 93.5 L 412 85.5 L 412.5 84 Z " /><path fill="rgb(92,255,122)" stroke="rgb(92,255,122)" stroke-width="1" opacity="0.47843137254901963" d="M 505.5 85 L 506 87.5 L 505 87.5 L 505.5 85 Z " /><path fill="rgb(92,255,122)" stroke="rgb(92,255,122)" stroke-width="1" opacity="0.47843137254901963" d="M 377.5 87 L 378 89.5 L 377 89.5 L 377.5 87 Z " /><path fill="rgb(92,255,122)" stroke="rgb(92,255,122)" stroke-width="1" opacity="0.47843137254901963" d="M 504.5 89 L 505 91.5 L 504 91.5 L 504.5 89 Z " /><path fill="rgb(92,255,122)" stroke="rgb(92,255,122)" stroke-width="1" opacity="0.47843137254901963" d="M 502.5 96 L 503 97.5 Q 495.9 114.4 482.5 125 L 466.5 134 L 466.5 133 Q 482.5 127 492 114.5 L 502.5 96 Z " /><path fill="rgb(92,255,122)" stroke="rgb(92,255,122)" stroke-width="1" opacity="0.47843137254901963" d="M 380.5 97 Q 387.4 114.6 401.5 125 L 405 127.5 L 402.5 126 L 393 118.5 Q 383.6 109.6 380.5 97 Z " /><path fill="rgb(92,255,122)" stroke="rgb(92,255,122)" stroke-width="1" opacity="0.47843137254901963" d="M 445.5 103 L 449 103.5 L 445.5 104 L 445.5 103 Z " /><path fill="rgb(92,255,122)" stroke="rgb(92,255,122)" stroke-width="1" opacity="0.47843137254901963" d="M 440.5 104 L 443 104.5 L 440.5 105 L 440.5 104 Z " /><path fill="rgb(92,255,122)" stroke="rgb(92,255,122)" stroke-width="1" opacity="0.47843137254901963" d="M 406.5 128 L 410 130.5 L 408.5 130 L 406.5 128 Z " /><path fill="rgb(92,255,122)" stroke="rgb(92,255,122)" stroke-width="1" opacity="0.47843137254901963" d="M 413.5 132 L 426 136.5 L 423.5 137 L 413.5 133 L 413.5 132 Z " /><path fill="rgb(92,255,122)" stroke="rgb(92,255,122)" stroke-width="1" opacity="0.47843137254901963" d="M 463.5 134 L 465 134.5 L 460.5 136 L 460.5 135 L 463.5 134 Z " /><path fill="rgb(92,255,122)" stroke="rgb(92,255,122)" stroke-width="1" opacity="0.47843137254901963" d="M 456.5 136 L 459 136.5 L 456.5 137 L 456.5 136 Z " /><path fill="rgb(92,255,122)" stroke="rgb(92,255,122)" stroke-width="1" opacity="0.47843137254901963" d="M 427.5 137 L 432 137.5 L 427.5 138 L 427.5 137 Z " /><path fill="rgb(92,255,122)" stroke="rgb(92,255,122)" stroke-width="1" opacity="0.47843137254901963" d="M 451.5 137 L 455 137.5 L 451.5 138 L 451.5 137 Z " /><path fill="rgb(92,255,122)" stroke="rgb(92,255,122)" stroke-width="1" opacity="0.47843137254901963" d="M 434.5 138 L 449 138.5 L 434.5 139 L 434.5 138 Z " /><path fill="rgb(92,255,122)" stroke="rgb(92,255,122)" stroke-width="1" opacity="0.47843137254901963" d="M 60.5 375 L 66 375.5 L 60.5 376 L 60.5 375 Z " /><path fill="rgb(92,255,122)" stroke="rgb(92,255,122)" stroke-width="1" opacity="0.47843137254901963" d="M 75.5 375 L 82 375.5 L 75.5 376 L 75.5 375 Z " /><path fill="rgb(92,255,122)" stroke="rgb(92,255,122)" stroke-width="1" opacity="0.47843137254901963" d="M 55.5 376 L 58 376.5 L 55.5 377 L 55.5 376 Z " /><path fill="rgb(92,255,122)" stroke="rgb(92,255,122)" stroke-width="1" opacity="0.47843137254901963" d="M 83.5 376 L 90 377.5 L 87.5 378 L 83.5 377 L 83.5 376 Z " /><path fill="rgb(92,255,122)" stroke="rgb(92,255,122)" stroke-width="1" opacity="0.47843137254901963" d="M 51.5 377 L 54 377.5 L 37.5 384 L 24 394 L 14 407.5 L 10.5 415 L 10 413.5 Q 15.8 400.8 25.5 392 Q 35.9 381.9 51.5 377 Z " /><path fill="rgb(92,255,122)" stroke="rgb(92,255,122)" stroke-width="1" opacity="0.47843137254901963" d="M 94.5 379 Q 111.7 385.3 122 398.5 L 128 407.5 L 126 406.5 Q 121 396.5 112.5 390 Q 105 383.5 94.5 380 L 94.5 379 Z " /><path fill="rgb(92,255,122)" stroke="rgb(92,255,122)" stroke-width="1" opacity="0.47843137254901963" d="M 65.5 409 L 76 409.5 L 65.5 410 L 65.5 409 Z " /><path fill="rgb(92,255,122)" stroke="rgb(92,255,122)" stroke-width="1" opacity="0.47843137254901963" d="M 128.5 409 L 131 413.5 L 130 413.5 L 128.5 409 Z " /><path fill="rgb(92,255,122)" stroke="rgb(92,255,122)" stroke-width="1" opacity="0.47843137254901963" d="M 61.5 410 L 64 410.5 L 55.5 414 L 56.5 412 L 61.5 410 Z " /><path fill="rgb(92,255,122)" stroke="rgb(92,255,122)" stroke-width="1" opacity="0.47843137254901963" d="M 77.5 410 L 80 410.5 L 77.5 411 L 77.5 410 Z " /><path fill="rgb(92,255,122)" stroke="rgb(92,255,122)" stroke-width="1" opacity="0.47843137254901963" d="M 81.5 411 Q 91.5 414.5 97 422.5 L 99 426.5 L 97 425.5 Q 95.4 418.6 89.5 416 L 81.5 412 L 81.5 411 Z " /><path fill="rgb(92,255,122)" stroke="rgb(92,255,122)" stroke-width="1" opacity="0.47843137254901963" d="M 53.5 414 L 51.5 417 L 47 420.5 L 42.5 428 L 42 426.5 L 50.5 416 L 53.5 414 Z " /><path fill="rgb(92,255,122)" stroke="rgb(92,255,122)" stroke-width="1" opacity="0.47843137254901963" d="M 131.5 415 L 135 426.5 L 134 426.5 L 131.5 415 Z " /><path fill="rgb(92,255,122)" stroke="rgb(92,255,122)" stroke-width="1" opacity="0.47843137254901963" d="M 9.5 416 L 10 417.5 L 7.5 424 L 7 421.5 L 9.5 416 Z " /><path fill="rgb(92,255,122)" stroke="rgb(92,255,122)" stroke-width="1" opacity="0.47843137254901963" d="M 6.5 425 L 7 428.5 L 6 428.5 L 6.5 425 Z " /><path fill="rgb(92,255,122)" stroke="rgb(92,255,122)" stroke-width="1" opacity="0.47843137254901963" d="M 99.5 428 L 101 432.5 L 100 432.5 L 99.5 428 Z " /><path fill="rgb(92,255,122)" stroke="rgb(92,255,122)" stroke-width="1" opacity="0.47843137254901963" d="M 135.5 428 L 136 432.5 L 135 432.5 L 135.5 428 Z " /><path fill="rgb(92,255,122)" stroke="rgb(92,255,122)" stroke-width="1" opacity="0.47843137254901963" d="M 41.5 429 L 42 430.5 L 40.5 434 L 40 431.5 L 41.5 429 Z " /><path fill="rgb(92,255,122)" stroke="rgb(92,255,122)" stroke-width="1" opacity="0.47843137254901963" d="M 5.5 430 L 6 436.5 L 5 436.5 L 5.5 430 Z " /><path fill="rgb(92,255,122)" stroke="rgb(92,255,122)" stroke-width="1" opacity="0.47843137254901963" d="M 101.5 434 L 102 438.5 L 101 438.5 L 101.5 434 Z " /><path fill="rgb(92,255,122)" stroke="rgb(92,255,122)" stroke-width="1" opacity="0.47843137254901963" d="M 39.5 436 L 40 445.5 L 39 445.5 L 39.5 436 Z " /><path fill="rgb(92,255,122)" stroke="rgb(92,255,122)" stroke-width="1" opacity="0.47843137254901963" d="M 136.5 436 L 137 445.5 L 136 445.5 L 136.5 436 Z " /><path fill="rgb(92,255,122)" stroke="rgb(92,255,122)" stroke-width="1" opacity="0.47843137254901963" d="M 101.5 442 L 102 447.5 L 99.5 453 L 99 451.5 Q 101.8 448.3 101.5 442 Z " /><path fill="rgb(92,255,122)" stroke="rgb(92,255,122)" stroke-width="1" opacity="0.47843137254901963" d="M 5.5 444 L 6 450.5 L 5 450.5 L 5.5 444 Z " /><path fill="rgb(92,255,122)" stroke="rgb(92,255,122)" stroke-width="1" opacity="0.47843137254901963" d="M 40.5 447 Q 43.1 458.9 51.5 465 L 60 469.5 L 58.5 470 Q 50.1 466.4 45 459.5 Q 40.1 454.6 40.5 447 Z " /><path fill="rgb(92,255,122)" stroke="rgb(92,255,122)" stroke-width="1" opacity="0.47843137254901963" d="M 135.5 448 L 136 452.5 L 135 452.5 L 135.5 448 Z " /><path fill="rgb(92,255,122)" stroke="rgb(92,255,122)" stroke-width="1" opacity="0.47843137254901963" d="M 6.5 452 L 7 455.5 L 6 455.5 L 6.5 452 Z " /><path fill="rgb(92,255,122)" stroke="rgb(92,255,122)" stroke-width="1" opacity="0.47843137254901963" d="M 98.5 454 L 99 455.5 L 88.5 467 L 86.5 468 L 87.5 466 L 96 458.5 L 98.5 454 Z " /><path fill="rgb(92,255,122)" stroke="rgb(92,255,122)" stroke-width="1" opacity="0.47843137254901963" d="M 134.5 454 L 135 457.5 L 133.5 461 L 133 458.5 L 134.5 454 Z " /><path fill="rgb(92,255,122)" stroke="rgb(92,255,122)" stroke-width="1" opacity="0.47843137254901963" d="M 7.5 457 Q 12.8 477.2 26.5 489 Q 34.9 497.1 47 501.5 L 45.5 502 Q 29.8 495.7 20 483.5 L 9 465.5 L 7.5 457 Z " /><path fill="rgb(92,255,122)" stroke="rgb(92,255,122)" stroke-width="1" opacity="0.47843137254901963" d="M 132.5 462 L 133 463.5 Q 126.1 482.1 111.5 493 L 97.5 501 L 97.5 500 Q 112.7 493.7 122 481.5 Q 128.8 473.3 132.5 462 Z " /><path fill="rgb(92,255,122)" stroke="rgb(92,255,122)" stroke-width="1" opacity="0.47843137254901963" d="M 81.5 469 L 83 469.5 L 78.5 471 L 78.5 470 L 81.5 469 Z " /><path fill="rgb(92,255,122)" stroke="rgb(92,255,122)" stroke-width="1" opacity="0.47843137254901963" d="M 64.5 471 L 77 471.5 L 64.5 472 L 64.5 471 Z " /><path fill="rgb(92,255,122)" stroke="rgb(92,255,122)" stroke-width="1" opacity="0.47843137254901963" d="M 94.5 501 L 96 501.5 L 88.5 504 L 88.5 503 L 94.5 501 Z " /><path fill="rgb(92,255,122)" stroke="rgb(92,255,122)" stroke-width="1" opacity="0.47843137254901963" d="M 48.5 502 L 53 503.5 L 50.5 504 L 48.5 502 Z " /><path fill="rgb(92,255,122)" stroke="rgb(92,255,122)" stroke-width="1" opacity="0.47843137254901963" d="M 54.5 504 L 57 504.5 L 54.5 505 L 54.5 504 Z " /><path fill="rgb(92,255,122)" stroke="rgb(92,255,122)" stroke-width="1" opacity="0.47843137254901963" d="M 84.5 504 L 87 504.5 L 84.5 505 L 84.5 504 Z " /><path fill="rgb(92,255,122)" stroke="rgb(92,255,122)" stroke-width="1" opacity="0.47843137254901963" d="M 59.5 505 L 64 505.5 L 59.5 506 L 59.5 505 Z " /><path fill="rgb(92,255,122)" stroke="rgb(92,255,122)" stroke-width="1" opacity="0.47843137254901963" d="M 78.5 505 L 83 505.5 L 78.5 506 L 78.5 505 Z " /><path fill="rgb(92,255,122)" stroke="rgb(92,255,122)" stroke-width="1" opacity="0.47843137254901963" d="M 68.5 506 L 74 506.5 L 68.5 507 L 68.5 506 Z " /><path fill="rgb(0,0,0)" stroke="rgb(0,0,0)" stroke-width="1" opacity="0" d="M 0 0 L 512 0 L 512 512 L 0 512 L 0 0 Z M 68 5 L 48 9 L 29 20 Q 10 34 5 62 L 5 82 L 7 91 Q 12 105 21 116 Q 35 132 61 137 L 266 137 Q 285 133 298 122 Q 315 108 320 83 L 320 61 L 319 56 Q 315 40 306 30 L 290 15 L 275 8 L 258 5 L 68 5 Z M 434 7 L 413 13 L 398 23 Q 385 33 379 50 L 375 69 L 375 78 L 378 94 Q 383 108 393 119 Q 407 135 434 139 L 449 139 L 463 136 Q 474 132 483 125 Q 501 111 507 84 L 507 63 L 506 58 Q 502 43 494 33 Q 483 19 466 11 L 450 7 L 434 7 Z M 63 190 L 47 194 L 30 204 Q 11 218 5 246 L 5 267 L 6 272 Q 10 286 18 297 L 37 313 L 53 320 L 64 322 L 449 322 L 466 318 L 483 308 Q 501 294 507 267 L 507 246 L 506 241 Q 502 226 494 216 Q 479 195 450 190 L 63 190 Z M 251 373 L 234 377 L 217 387 Q 197 401 192 429 L 192 451 L 194 459 L 199 471 L 210 486 L 224 496 L 234 501 L 250 505 L 450 505 L 466 501 L 482 492 Q 494 483 501 469 L 507 450 L 507 429 L 506 424 Q 502 408 493 398 L 476 382 L 463 376 L 449 373 L 251 373 Z M 61 375 Q 39 379 27 391 Q 10 405 5 431 L 5 451 L 7 460 Q 11 474 20 484 Q 30 496 46 502 L 55 505 L 68 506 L 69 507 L 88 505 Q 102 501 112 493 Q 122 485 129 473 L 135 458 L 136 447 L 137 446 L 137 436 L 136 435 L 135 424 Q 131 409 122 399 Q 112 386 96 379 L 82 375 L 61 375 Z " /><path fill="rgb(0,0,0)" stroke="rgb(0,0,0)" stroke-width="1" opacity="0" d="M 71.5 40 L 253.5 40 L 264.5 42 Q 273.5 45.5 279 52.5 L 285 65.5 L 285 77.5 Q 282.3 88.8 274.5 95 L 260.5 102 L 64.5 102 Q 54.2 99.3 48 92.5 Q 42.3 86.7 40 77.5 L 40 65.5 Q 43 53.5 51.5 47 L 60.5 42 L 71.5 40 Z " /><path fill="rgb(0,0,0)" stroke="rgb(0,0,0)" stroke-width="1" opacity="0" d="M 437.5 42 L 445.5 42 L 452.5 44 Q 461.5 48 467 55.5 L 472 67.5 L 472 78.5 Q 468.7 91.2 459.5 98 Q 452.1 104.6 437.5 104 L 430.5 102 L 419 95 L 412 83.5 L 410 72.5 L 412 62.5 L 420.5 50 L 432.5 43 L 437.5 42 Z " /><path fill="rgb(0,0,0)" stroke="rgb(0,0,0)" stroke-width="1" opacity="0" d="M 66.5 225 L 445.5 225 Q 459.9 228.1 467 238.5 L 472 250.5 L 472 261.5 Q 469 274.5 459.5 281 L 445.5 287 L 66.5 287 Q 52.1 283.9 45 273.5 L 40 261.5 L 40 250.5 Q 43 237.5 52.5 231 L 66.5 225 Z " /><path fill="rgb(0,0,0)" stroke="rgb(0,0,0)" stroke-width="1" opacity="0" d="M 253.5 408 L 444.5 408 Q 459 410.5 466 420.5 Q 473.4 428.1 472 444.5 Q 469 457.5 459.5 464 L 445.5 470 L 253.5 470 Q 238.9 467.1 232 456.5 L 227 445.5 L 227 432.5 Q 230.7 419.7 240.5 413 L 253.5 408 Z " /><path fill="rgb(0,0,0)" stroke="rgb(0,0,0)" stroke-width="1" opacity="0" d="M 64.5 410 L 80.5 411 Q 89.5 414.5 95 421.5 Q 101.2 428.8 102 441.5 L 98 455.5 L 88.5 466 L 77.5 471 L 63.5 471 Q 53.1 467.9 47 460.5 L 40 446.5 L 40 434.5 Q 42.7 424.2 49.5 418 Q 55.3 412.3 64.5 410 Z " /><path fill="rgb(0,226,48)" stroke="rgb(0,226,48)" stroke-width="1" opacity="0.996078431372549" d="M 64.5 6 L 67 6.5 L 64.5 7 L 64.5 6 Z " /><path fill="rgb(0,226,48)" stroke="rgb(0,226,48)" stroke-width="1" opacity="0.996078431372549" d="M 258.5 6 L 261 6.5 L 258.5 7 L 258.5 6 Z " /><path fill="rgb(0,226,48)" stroke="rgb(0,226,48)" stroke-width="1" opacity="0.996078431372549" d="M 35.5 16 L 34.5 18 L 35.5 16 Z " /><path fill="rgb(0,226,48)" stroke="rgb(0,226,48)" stroke-width="1" opacity="0.996078431372549" d="M 289.5 16 L 290.5 18 L 289.5 16 Z " /><path fill="rgb(0,226,48)" stroke="rgb(0,226,48)" stroke-width="1" opacity="0.996078431372549" d="M 292.5 18 L 293.5 20 L 292.5 18 Z " /><path fill="rgb(0,226,48)" stroke="rgb(0,226,48)" stroke-width="1" opacity="0.996078431372549" d="M 31.5 19 L 30.5 21 L 31.5 19 Z " /><path fill="rgb(0,226,48)" stroke="rgb(0,226,48)" stroke-width="1" opacity="0.996078431372549" d="M 296.5 21 L 303.5 29 L 296.5 21 Z " /><path fill="rgb(0,226,48)" stroke="rgb(0,226,48)" stroke-width="1" opacity="0.996078431372549" d="M 27.5 22 L 22.5 28 L 27.5 22 Z " /><path fill="rgb(0,226,48)" stroke="rgb(0,226,48)" stroke-width="1" opacity="0.996078431372549" d="M 19.5 31 L 18.5 33 L 19.5 31 Z " /><path fill="rgb(0,226,48)" stroke="rgb(0,226,48)" stroke-width="1" opacity="0.996078431372549" d="M 305.5 31 L 307.5 34 L 305.5 31 Z " /><path fill="rgb(0,226,48)" stroke="rgb(0,226,48)" stroke-width="1" opacity="0.996078431372549" d="M 308.5 35 L 309.5 37 L 308.5 35 Z " /><path fill="rgb(0,226,48)" stroke="rgb(0,226,48)" stroke-width="1" opacity="0.996078431372549" d="M 53.5 44 L 52.5 46 L 53.5 44 Z " /><path fill="rgb(0,226,48)" stroke="rgb(0,226,48)" stroke-width="1" opacity="0.996078431372549" d="M 271.5 44 L 272.5 46 L 271.5 44 Z " /><path fill="rgb(0,226,48)" stroke="rgb(0,226,48)" stroke-width="1" opacity="0.996078431372549" d="M 274.5 46 L 278.5 51 L 274.5 46 Z " /><path fill="rgb(0,226,48)" stroke="rgb(0,226,48)" stroke-width="1" opacity="0.996078431372549" d="M 49.5 47 L 46.5 51 L 49.5 47 Z " /><path fill="rgb(0,226,48)" stroke="rgb(0,226,48)" stroke-width="1" opacity="0.996078431372549" d="M 280.5 53 L 281.5 55 L 280.5 53 Z " /><path fill="rgb(0,226,48)" stroke="rgb(0,226,48)" stroke-width="1" opacity="0.996078431372549" d="M 319.5 67 L 320 75.5 L 319 75.5 L 319.5 67 Z " /><path fill="rgb(0,226,48)" stroke="rgb(0,226,48)" stroke-width="1" opacity="0.996078431372549" d="M 5.5 69 L 6 73.5 L 5 73.5 L 5.5 69 Z " /><path fill="rgb(0,226,48)" stroke="rgb(0,226,48)" stroke-width="1" opacity="0.996078431372549" d="M 42.5 86 L 43.5 88 L 42.5 86 Z " /><path fill="rgb(0,226,48)" stroke="rgb(0,226,48)" stroke-width="1" opacity="0.996078431372549" d="M 44.5 89 L 45.5 91 L 44.5 89 Z " /><path fill="rgb(0,226,48)" stroke="rgb(0,226,48)" stroke-width="1" opacity="0.996078431372549" d="M 277.5 93 L 276.5 95 L 277.5 93 Z " /><path fill="rgb(0,226,48)" stroke="rgb(0,226,48)" stroke-width="1" opacity="0.996078431372549" d="M 51.5 96 L 52.5 98 L 51.5 96 Z " /><path fill="rgb(0,226,48)" stroke="rgb(0,226,48)" stroke-width="1" opacity="0.996078431372549" d="M 54.5 98 L 55.5 100 L 54.5 98 Z " /><path fill="rgb(0,226,48)" stroke="rgb(0,226,48)" stroke-width="1" opacity="0.996078431372549" d="M 14.5 104 L 15.5 106 L 14.5 104 Z " /><path fill="rgb(0,226,48)" stroke="rgb(0,226,48)" stroke-width="1" opacity="0.996078431372549" d="M 16.5 107 L 17.5 109 L 16.5 107 Z " /><path fill="rgb(0,226,48)" stroke="rgb(0,226,48)" stroke-width="1" opacity="0.996078431372549" d="M 18.5 110 L 20.5 113 L 18.5 110 Z " /><path fill="rgb(0,226,48)" stroke="rgb(0,226,48)" stroke-width="1" opacity="0.996078431372549" d="M 306.5 110 L 305.5 112 L 306.5 110 Z " /><path fill="rgb(0,226,48)" stroke="rgb(0,226,48)" stroke-width="1" opacity="0.996078431372549" d="M 301.5 116 L 299.5 119 L 301.5 116 Z " /><path fill="rgb(0,226,48)" stroke="rgb(0,226,48)" stroke-width="1" opacity="0.996078431372549" d="M 29.5 121 L 30.5 123 L 29.5 121 Z " /><path fill="rgb(0,226,48)" stroke="rgb(0,226,48)" stroke-width="1" opacity="0.996078431372549" d="M 294.5 122 L 293.5 124 L 294.5 122 Z " /><path fill="rgb(0,226,48)" stroke="rgb(0,226,48)" stroke-width="1" opacity="0.996078431372549" d="M 33.5 124 L 34.5 126 L 33.5 124 Z " /><path fill="rgb(0,226,48)" stroke="rgb(0,226,48)" stroke-width="1" opacity="0.996078431372549" d="M 36.5 126 L 37.5 128 L 36.5 126 Z " /><path fill="rgb(0,226,48)" stroke="rgb(0,226,48)" stroke-width="1" opacity="0.996078431372549" d="M 67.5 136 L 259 136.5 L 67.5 137 L 67.5 136 Z " /><path fill="rgb(0,226,48)" stroke="rgb(0,226,48)" stroke-width="1" opacity="0.996078431372549" d="M 36.5 200 L 35.5 202 L 36.5 200 Z " /><path fill="rgb(0,226,48)" stroke="rgb(0,226,48)" stroke-width="1" opacity="0.996078431372549" d="M 475.5 200 L 476.5 202 L 475.5 200 Z " /><path fill="rgb(0,226,48)" stroke="rgb(0,226,48)" stroke-width="1" opacity="0.996078431372549" d="M 33.5 202 L 32.5 204 L 33.5 202 Z " /><path fill="rgb(0,226,48)" stroke="rgb(0,226,48)" stroke-width="1" opacity="0.996078431372549" d="M 478.5 202 L 479.5 204 L 478.5 202 Z " /><path fill="rgb(0,226,48)" stroke="rgb(0,226,48)" stroke-width="1" opacity="0.996078431372549" d="M 29.5 205 L 20.5 215 L 29.5 205 Z " /><path fill="rgb(0,226,48)" stroke="rgb(0,226,48)" stroke-width="1" opacity="0.996078431372549" d="M 482.5 205 L 491.5 215 L 482.5 205 Z " /><path fill="rgb(0,226,48)" stroke="rgb(0,226,48)" stroke-width="1" opacity="0.996078431372549" d="M 18.5 217 L 17.5 219 L 18.5 217 Z " /><path fill="rgb(0,226,48)" stroke="rgb(0,226,48)" stroke-width="1" opacity="0.996078431372549" d="M 493.5 217 L 494.5 219 L 493.5 217 Z " /><path fill="rgb(0,226,48)" stroke="rgb(0,226,48)" stroke-width="1" opacity="0.996078431372549" d="M 54.5 228 L 53.5 230 L 54.5 228 Z " /><path fill="rgb(0,226,48)" stroke="rgb(0,226,48)" stroke-width="1" opacity="0.996078431372549" d="M 457.5 228 L 458.5 230 L 457.5 228 Z " /><path fill="rgb(0,226,48)" stroke="rgb(0,226,48)" stroke-width="1" opacity="0.996078431372549" d="M 51.5 230 L 45.5 237 L 51.5 230 Z " /><path fill="rgb(0,226,48)" stroke="rgb(0,226,48)" stroke-width="1" opacity="0.996078431372549" d="M 460.5 230 L 466.5 237 L 460.5 230 Z " /><path fill="rgb(0,226,48)" stroke="rgb(0,226,48)" stroke-width="1" opacity="0.996078431372549" d="M 5.5 254 L 6 257.5 L 5 257.5 L 5.5 254 Z " /><path fill="rgb(0,226,48)" stroke="rgb(0,226,48)" stroke-width="1" opacity="0.996078431372549" d="M 506.5 254 L 507 257.5 L 506 257.5 L 506.5 254 Z " /><path fill="rgb(0,226,48)" stroke="rgb(0,226,48)" stroke-width="1" opacity="0.996078431372549" d="M 45.5 275 L 51.5 282 L 45.5 275 Z " /><path fill="rgb(0,226,48)" stroke="rgb(0,226,48)" stroke-width="1" opacity="0.996078431372549" d="M 466.5 275 L 460.5 282 L 466.5 275 Z " /><path fill="rgb(0,226,48)" stroke="rgb(0,226,48)" stroke-width="1" opacity="0.996078431372549" d="M 53.5 282 L 54.5 284 L 53.5 282 Z " /><path fill="rgb(0,226,48)" stroke="rgb(0,226,48)" stroke-width="1" opacity="0.996078431372549" d="M 458.5 282 L 457.5 284 L 458.5 282 Z " /><path fill="rgb(0,226,48)" stroke="rgb(0,226,48)" stroke-width="1" opacity="0.996078431372549" d="M 17.5 293 L 18.5 295 L 17.5 293 Z " /><path fill="rgb(0,226,48)" stroke="rgb(0,226,48)" stroke-width="1" opacity="0.996078431372549" d="M 494.5 293 L 493.5 295 L 494.5 293 Z " /><path fill="rgb(0,226,48)" stroke="rgb(0,226,48)" stroke-width="1" opacity="0.996078431372549" d="M 20.5 297 L 29.5 307 L 20.5 297 Z " /><path fill="rgb(0,226,48)" stroke="rgb(0,226,48)" stroke-width="1" opacity="0.996078431372549" d="M 491.5 297 L 482.5 307 L 491.5 297 Z " /><path fill="rgb(0,226,48)" stroke="rgb(0,226,48)" stroke-width="1" opacity="0.996078431372549" d="M 32.5 308 L 33.5 310 L 32.5 308 Z " /><path fill="rgb(0,226,48)" stroke="rgb(0,226,48)" stroke-width="1" opacity="0.996078431372549" d="M 479.5 308 L 478.5 310 L 479.5 308 Z " /><path fill="rgb(0,226,48)" stroke="rgb(0,226,48)" stroke-width="1" opacity="0.996078431372549" d="M 35.5 310 L 36.5 312 L 35.5 310 Z " /><path fill="rgb(0,226,48)" stroke="rgb(0,226,48)" stroke-width="1" opacity="0.996078431372549" d="M 476.5 310 L 475.5 312 L 476.5 310 Z " /><path fill="rgb(0,226,48)" stroke="rgb(0,226,48)" stroke-width="1" opacity="0.996078431372549" d="M 475.5 383 L 476.5 385 L 475.5 383 Z " /><path fill="rgb(0,226,48)" stroke="rgb(0,226,48)" stroke-width="1" opacity="0.996078431372549" d="M 220.5 385 L 219.5 387 L 220.5 385 Z " /><path fill="rgb(0,226,48)" stroke="rgb(0,226,48)" stroke-width="1" opacity="0.996078431372549" d="M 478.5 385 L 479.5 387 L 478.5 385 Z " /><path fill="rgb(0,226,48)" stroke="rgb(0,226,48)" stroke-width="1" opacity="0.996078431372549" d="M 216.5 388 L 214.5 391 L 216.5 388 Z " /><path fill="rgb(0,226,48)" stroke="rgb(0,226,48)" stroke-width="1" opacity="0.996078431372549" d="M 482.5 388 L 491.5 398 L 482.5 388 Z " /><path fill="rgb(0,226,48)" stroke="rgb(0,226,48)" stroke-width="1" opacity="0.996078431372549" d="M 209.5 395 L 206.5 399 L 209.5 395 Z " /><path fill="rgb(0,226,48)" stroke="rgb(0,226,48)" stroke-width="1" opacity="0.996078431372549" d="M 205.5 400 L 203.5 403 L 205.5 400 Z " /><path fill="rgb(0,226,48)" stroke="rgb(0,226,48)" stroke-width="1" opacity="0.996078431372549" d="M 493.5 400 L 494.5 402 L 493.5 400 Z " /><path fill="rgb(0,226,48)" stroke="rgb(0,226,48)" stroke-width="1" opacity="0.996078431372549" d="M 253.5 407 L 256 407.5 L 253.5 408 L 253.5 407 Z " /><path fill="rgb(0,226,48)" stroke="rgb(0,226,48)" stroke-width="1" opacity="0.996078431372549" d="M 443.5 407 L 446 407.5 L 443.5 408 L 443.5 407 Z " /><path fill="rgb(0,226,48)" stroke="rgb(0,226,48)" stroke-width="1" opacity="0.996078431372549" d="M 457.5 411 L 458.5 413 L 457.5 411 Z " /><path fill="rgb(0,226,48)" stroke="rgb(0,226,48)" stroke-width="1" opacity="0.996078431372549" d="M 238.5 413 L 236.5 416 L 238.5 413 Z " /><path fill="rgb(0,226,48)" stroke="rgb(0,226,48)" stroke-width="1" opacity="0.996078431372549" d="M 460.5 413 L 466.5 420 L 460.5 413 Z " /><path fill="rgb(0,226,48)" stroke="rgb(0,226,48)" stroke-width="1" opacity="0.996078431372549" d="M 234.5 417 L 231.5 421 L 234.5 417 Z " /><path fill="rgb(0,226,48)" stroke="rgb(0,226,48)" stroke-width="1" opacity="0.996078431372549" d="M 192.5 434 L 193 443.5 L 192 443.5 L 192.5 434 Z " /><path fill="rgb(0,226,48)" stroke="rgb(0,226,48)" stroke-width="1" opacity="0.996078431372549" d="M 506.5 437 L 507 440.5 L 506 440.5 L 506.5 437 Z " /><path fill="rgb(0,226,48)" stroke="rgb(0,226,48)" stroke-width="1" opacity="0.996078431372549" d="M 231.5 457 L 233.5 460 L 231.5 457 Z " /><path fill="rgb(0,226,48)" stroke="rgb(0,226,48)" stroke-width="1" opacity="0.996078431372549" d="M 466.5 458 L 460.5 465 L 466.5 458 Z " /><path fill="rgb(0,226,48)" stroke="rgb(0,226,48)" stroke-width="1" opacity="0.996078431372549" d="M 237.5 463 L 238.5 465 L 237.5 463 Z " /><path fill="rgb(0,226,48)" stroke="rgb(0,226,48)" stroke-width="1" opacity="0.996078431372549" d="M 203.5 475 L 204.5 477 L 203.5 475 Z " /><path fill="rgb(0,226,48)" stroke="rgb(0,226,48)" stroke-width="1" opacity="0.996078431372549" d="M 494.5 476 L 493.5 478 L 494.5 476 Z " /><path fill="rgb(0,226,48)" stroke="rgb(0,226,48)" stroke-width="1" opacity="0.996078431372549" d="M 206.5 479 L 209.5 483 L 206.5 479 Z " /><path fill="rgb(0,226,48)" stroke="rgb(0,226,48)" stroke-width="1" opacity="0.996078431372549" d="M 491.5 480 L 482.5 490 L 491.5 480 Z " /><path fill="rgb(0,226,48)" stroke="rgb(0,226,48)" stroke-width="1" opacity="0.996078431372549" d="M 213.5 486 L 216.5 490 L 213.5 486 Z " /><path fill="rgb(0,226,48)" stroke="rgb(0,226,48)" stroke-width="1" opacity="0.996078431372549" d="M 219.5 491 L 220.5 493 L 219.5 491 Z " /><path fill="rgb(0,226,48)" stroke="rgb(0,226,48)" stroke-width="1" opacity="0.996078431372549" d="M 479.5 491 L 478.5 493 L 479.5 491 Z " /><path fill="rgb(0,226,48)" stroke="rgb(0,226,48)" stroke-width="1" opacity="0.996078431372549" d="M 476.5 493 L 475.5 495 L 476.5 493 Z " /><path fill="rgb(0,226,48)" stroke="rgb(0,226,48)" stroke-width="1" opacity="1" d="M 67.5 6 L 257.5 6 L 258.5 7 L 270.5 8 L 285.5 14 Q 297.1 20.5 305 30.5 Q 312.9 39.6 317 52.5 L 319 61.5 L 319 81.5 Q 313.5 108 295.5 122 Q 283.3 132.3 264.5 136 L 60.5 136 Q 35 130.5 21 113.5 Q 12.4 103.6 8 89.5 L 6 80.5 L 6 61.5 Q 11.5 35 29.5 21 L 48.5 10 L 67.5 6 Z M 64 40 L 50 47 Q 41 53 39 66 L 39 78 L 44 90 Q 50 100 65 103 L 262 103 Q 271 101 277 95 Q 283 89 286 79 L 286 65 L 279 51 Q 273 43 262 40 L 64 40 Z " /><path fill="rgb(0,226,48)" stroke="rgb(0,226,48)" stroke-width="1" opacity="1" d="M 63.5 191 L 448.5 191 Q 478.3 196.3 493 216.5 Q 500.2 225.3 504 237.5 L 506 246.5 L 506 265.5 Q 500.5 294 480.5 308 L 464.5 317 L 448.5 321 L 63.5 321 Q 33.8 315.8 19 295.5 Q 11.8 286.7 8 274.5 L 6 265.5 L 6 246.5 Q 11.5 218 31.5 204 L 47.5 195 L 63.5 191 Z M 67 224 L 59 226 L 52 230 Q 42 237 39 250 L 39 263 L 45 276 Q 52 286 67 288 L 446 288 L 454 286 L 461 282 Q 470 275 473 263 L 473 250 L 467 237 Q 460 226 446 224 L 67 224 Z " /><path fill="rgb(0,226,48)" stroke="rgb(0,226,48)" stroke-width="1" opacity="1" d="M 250.5 374 L 448.5 374 Q 478.3 379.3 493 399.5 Q 500.2 408.3 504 420.5 L 506 429.5 L 506 448.5 Q 500.5 477 480.5 491 L 464.5 500 L 448.5 504 L 249.5 504 Q 223.9 499.6 210 483.5 Q 198.9 472.1 194 454.5 L 193 449.5 L 193 428.5 Q 198 404.5 213.5 391 Q 222.2 382.7 234.5 378 L 250.5 374 Z M 254 407 L 246 409 L 239 413 Q 229 419 226 433 L 226 446 L 231 458 Q 238 468 253 471 L 446 471 L 454 469 L 461 465 Q 470 458 473 446 L 473 433 L 467 420 Q 460 409 446 407 L 254 407 Z " /><path fill="rgb(92,254,122)" stroke="rgb(92,254,122)" stroke-width="1" opacity="0.996078431372549" d="M 431.5 8 L 451.5 8 L 465.5 12 Q 482.4 19.1 493 32.5 Q 500.2 41.3 504 53.5 L 506 61.5 L 507 75.5 L 504 92.5 L 497 107.5 L 482.5 124 Q 473 132 459.5 136 L 450.5 138 L 432.5 138 Q 403.1 132.9 389 112.5 L 378 90.5 L 376 80.5 L 376 65.5 L 380 49.5 Q 385.7 35.7 395.5 26 Q 408.8 12.3 431.5 8 Z M 439 41 Q 428 43 422 48 Q 413 55 410 67 L 410 80 L 417 94 Q 422 100 431 103 L 441 105 L 449 104 L 460 99 Q 470 92 473 78 L 473 69 L 468 56 Q 462 47 453 43 L 439 41 Z " /><path fill="rgb(92,254,122)" stroke="rgb(92,254,122)" stroke-width="1" opacity="0.996078431372549" d="M 66.5 375 L 82.5 376 L 93.5 379 Q 110.3 385.7 121 398.5 Q 129.9 408.6 134 423.5 L 136 433.5 L 136 447.5 L 133 461.5 L 128 472.5 Q 121.6 484.1 111.5 492 Q 101.6 500.1 87.5 504 L 77.5 506 L 64.5 506 L 47.5 502 L 35.5 496 L 22 484.5 Q 6 468.5 5 437.5 L 6 436.5 L 7 424.5 L 10 415.5 L 14 407.5 L 24 394 L 37.5 384 L 45.5 380 L 58.5 376 Q 64.8 377.8 66.5 375 Z M 66 409 Q 56 411 51 416 Q 41 423 39 437 Q 38 452 45 460 Q 52 469 65 472 L 77 472 L 89 467 Q 98 460 102 448 L 102 435 L 97 423 Q 92 415 83 411 L 76 409 L 66 409 Z " /></svg>