<?xml version="1.0" encoding="UTF-8"?>
<svg version="1.1" xmlns="http://www.w3.org/2000/svg" width="512" height="512">
<path d="M0 0 C4.89005114 3.01984946 8.0072581 6.54183827 10.234375 11.89453125 C10.7751949 15.00779176 10.75876181 18.04846467 10.71539307 21.20225525 C10.71881077 22.1188684 10.72222847 23.03548155 10.72574973 23.97987086 C10.73231942 27.04020641 10.71036733 30.09965785 10.68847656 33.15991211 C10.68734789 35.35796081 10.68798233 37.55601102 10.69024658 39.75405884 C10.69139387 45.71433039 10.66788171 51.67427972 10.63995075 57.63447642 C10.61493986 63.86580314 10.61259533 70.0971373 10.60784912 76.32850647 C10.59683065 86.78522204 10.57184857 97.24182739 10.53613281 107.69848633 C10.49939122 118.46670951 10.47109001 129.23490058 10.45410156 140.00317383 C10.45305067 140.66743478 10.45199977 141.33169573 10.45091704 142.0160858 C10.44569671 145.34863905 10.44065095 148.68119252 10.43566942 152.01374614 C10.39386307 179.64075674 10.32350911 207.26763568 10.234375 234.89453125 C11.37536117 234.88900049 12.51634733 234.88346973 13.69190884 234.87777138 C41.45948032 234.74455156 69.22701034 234.64596613 96.99483395 234.58365822 C99.66851263 234.57753919 102.34219099 234.57129127 105.01586914 234.56494141 C106.01268859 234.56258061 106.01268859 234.56258061 107.02964581 234.56017213 C117.78073499 234.53408569 128.53163107 234.48679024 139.28260582 234.43161447 C150.31947067 234.37544516 161.35622914 234.34261482 172.39322954 234.33000028 C178.59038352 234.32218087 184.78709999 234.30381432 190.98411369 234.26015091 C196.81919979 234.21937139 202.6536689 234.20687336 208.48888397 234.21588516 C210.62822639 234.21423695 212.76758982 234.20233435 214.90680885 234.1792984 C234.44757106 233.97922921 234.44757106 233.97922921 240.77097416 239.31300926 C246.37630234 245.37078203 246.99931648 250.23349718 246.74609375 258.44140625 C245.9783642 263.62211556 244.05630418 267.31941942 240.234375 270.89453125 C234.6254797 274.74061462 230.64773231 275.46797296 223.926651 275.37554932 C223.01003785 275.37896702 222.0934247 275.38238472 221.14903539 275.38590598 C218.08869984 275.39247567 215.0292484 275.37052358 211.96899414 275.34863281 C209.77094544 275.34750414 207.57289523 275.34813858 205.37484741 275.35040283 C199.41457586 275.35155012 193.45462653 275.32803796 187.49442983 275.300107 C181.26310311 275.27509611 175.03176895 275.27275158 168.80039978 275.26800537 C158.34368421 275.2569869 147.88707886 275.23200482 137.43041992 275.19628906 C126.66219674 275.15954747 115.89400567 275.13124626 105.12573242 275.11425781 C104.46147147 275.11320692 103.79721052 275.11215602 103.11282045 275.11107329 C99.7802672 275.10585296 96.44771373 275.1008072 93.11516011 275.09582567 C65.48814951 275.05401932 37.86127057 274.98366536 10.234375 274.89453125 C10.23990576 276.03551742 10.24543652 277.17650358 10.25113487 278.35206509 C10.38435469 306.11963657 10.48294012 333.88716659 10.54524803 361.6549902 C10.55136706 364.32866888 10.55761498 367.00234724 10.56396484 369.67602539 C10.56553871 370.34057169 10.56711257 371.00511799 10.56873412 371.68980206 C10.59482056 382.44089124 10.64211601 393.19178732 10.69729178 403.94276207 C10.75346109 414.97962692 10.78629143 426.01638539 10.79890597 437.05338579 C10.80672538 443.25053977 10.82509193 449.44725624 10.86875534 455.64426994 C10.90953486 461.47935604 10.92203289 467.31382515 10.91302109 473.14904022 C10.9146693 475.28838264 10.9265719 477.42774607 10.94960785 479.5669651 C11.14967704 499.10772731 11.14967704 499.10772731 5.81589699 505.43113041 C-0.24187578 511.03645859 -5.10459093 511.65947273 -13.3125 511.40625 C-18.49320931 510.63852045 -22.19051317 508.71646043 -25.765625 504.89453125 C-29.61170837 499.28563595 -30.33906671 495.30788856 -30.24664307 488.58680725 C-30.25006077 487.6701941 -30.25347847 486.75358095 -30.25699973 485.80919164 C-30.26356942 482.74885609 -30.24161733 479.68940465 -30.21972656 476.62915039 C-30.21859789 474.43110169 -30.21923233 472.23305148 -30.22149658 470.03500366 C-30.22264387 464.07473211 -30.19913171 458.11478278 -30.17120075 452.15458608 C-30.14618986 445.92325936 -30.14384533 439.6919252 -30.13909912 433.46055603 C-30.12808065 423.00384046 -30.10309857 412.54723511 -30.06738281 402.09057617 C-30.03064122 391.32235299 -30.00234001 380.55416192 -29.98535156 369.78588867 C-29.98430067 369.12162772 -29.98324977 368.45736677 -29.98216704 367.7729767 C-29.97694671 364.44042345 -29.97190095 361.10786998 -29.96691942 357.77531636 C-29.92511307 330.14830576 -29.85475911 302.52142682 -29.765625 274.89453125 C-30.90661117 274.90006201 -32.04759733 274.90559277 -33.22315884 274.91129112 C-60.99073032 275.04451094 -88.75826034 275.14309637 -116.52608395 275.20540428 C-119.19976263 275.21152331 -121.87344099 275.21777123 -124.54711914 275.22412109 C-125.54393859 275.22648189 -125.54393859 275.22648189 -126.56089581 275.22889037 C-137.31198499 275.25497681 -148.06288107 275.30227226 -158.81385582 275.35744803 C-169.85072067 275.41361734 -180.88747914 275.44644768 -191.92447954 275.45906222 C-198.12163352 275.46688163 -204.31834999 275.48524818 -210.51536369 275.52891159 C-216.35044979 275.56969111 -222.1849189 275.58218914 -228.02013397 275.57317734 C-230.15947639 275.57482555 -232.29883982 275.58672815 -234.43805885 275.6097641 C-253.97882106 275.80983329 -253.97882106 275.80983329 -260.30222416 270.47605324 C-265.90755234 264.41828047 -266.53056648 259.55556532 -266.27734375 251.34765625 C-265.5096142 246.16694694 -263.58755418 242.46964308 -259.765625 238.89453125 C-254.1567297 235.04844788 -250.17898231 234.32108954 -243.457901 234.41351318 C-242.54128785 234.41009548 -241.6246747 234.40667778 -240.68028539 234.40315652 C-237.61994984 234.39658683 -234.5604984 234.41853892 -231.50024414 234.44042969 C-229.30219544 234.44155836 -227.10414523 234.44092392 -224.90609741 234.43865967 C-218.94582586 234.43751238 -212.98587653 234.46102454 -207.02567983 234.4889555 C-200.79435311 234.51396639 -194.56301895 234.51631092 -188.33164978 234.52105713 C-177.87493421 234.5320756 -167.41832886 234.55705768 -156.96166992 234.59277344 C-146.19344674 234.62951503 -135.42525567 234.65781624 -124.65698242 234.67480469 C-123.99272147 234.67585558 -123.32846052 234.67690648 -122.64407045 234.67798921 C-119.3115172 234.68320954 -115.97896373 234.6882553 -112.64641011 234.69323683 C-85.01939951 234.73504318 -57.39252057 234.80539714 -29.765625 234.89453125 C-29.77115576 233.75354508 -29.77668652 232.61255892 -29.78238487 231.43699741 C-29.91560469 203.66942593 -30.01419012 175.90189591 -30.07649803 148.1340723 C-30.08261706 145.46039362 -30.08886498 142.78671526 -30.09521484 140.11303711 C-30.09678871 139.44849081 -30.09836257 138.78394451 -30.09998412 138.09926044 C-30.12607056 127.34817126 -30.17336601 116.59727518 -30.22854178 105.84630043 C-30.28471109 94.80943558 -30.31754143 83.77267711 -30.33015597 72.73567671 C-30.33797538 66.53852273 -30.35634193 60.34180626 -30.40000534 54.14479256 C-30.44078486 48.30970646 -30.45328289 42.47523735 -30.44427109 36.64002228 C-30.4459193 34.50067986 -30.4578219 32.36131643 -30.48085785 30.2220974 C-30.68092704 10.68133519 -30.68092704 10.68133519 -25.34714699 4.35793209 C-18.32634467 -2.13849863 -9.09223451 -3.63432537 0 0 Z " fill="#000000" transform="translate(265.765625,1.10546875)"/>
</svg>
