<svg width="512" height="512" version="1.1" xmlns="http://www.w3.org/2000/svg" desc="Created with imagetracer.js version 1.2.6" ><path fill="rgb(0,0,0)" stroke="rgb(0,0,0)" stroke-width="1" opacity="0" d="M 0 0 L 252 0.5 L 248 4.5 L 248 52.5 Q 249.8 58.8 259.5 57 L 264 52.5 L 264 4.5 L 260.5 0 L 512 0 L 512 251.5 L 507.5 248 L 459.5 248 L 455 252.5 Q 453.3 262.3 459.5 264 L 507.5 264 L 511.5 260 L 512 512 L 260 511.5 L 264 507.5 L 264 459.5 Q 262.3 453.3 252.5 455 L 248 459.5 L 248 507.5 L 251.5 512 L 0 512 L 0 260.5 L 4.5 264 L 52.5 264 L 57 259.5 Q 58.8 249.8 52.5 248 L 4.5 248 L 0.5 252 L 0 0 Z M 130 33 L 124 38 L 124 45 L 146 83 L 150 85 L 156 85 L 159 83 L 161 79 L 159 71 L 140 38 Q 138 32 130 33 Z M 378 33 L 376 34 L 372 38 L 351 76 L 353 83 L 357 85 L 363 85 L 366 83 L 388 45 L 388 38 Q 386 32 378 33 Z M 241 111 L 216 116 L 199 122 Q 177 132 161 146 Q 142 162 129 185 L 122 199 L 116 216 L 111 241 L 111 272 L 116 297 Q 126 329 146 352 Q 162 370 185 383 L 199 390 L 216 396 L 241 401 L 271 401 L 297 396 Q 329 386 352 366 Q 370 350 383 328 L 390 314 L 396 297 L 401 271 L 401 242 L 396 216 Q 386 183 366 161 Q 345 136 314 122 L 297 116 L 272 111 L 241 111 Z M 38 124 L 33 130 L 34 137 L 38 140 L 75 161 Q 80 162 83 159 L 85 155 L 84 149 L 80 144 L 47 125 L 38 124 Z M 468 124 L 433 144 L 427 151 L 428 158 L 434 161 Q 439 162 442 159 L 475 140 L 479 135 L 478 128 Q 476 122 468 124 Z M 76 351 L 38 372 L 33 378 Q 32 386 38 388 L 45 388 L 80 368 L 85 362 Q 86 355 83 353 L 76 351 Z M 434 351 L 429 353 L 427 358 L 428 364 L 433 368 L 466 387 L 475 388 L 479 383 L 478 376 L 475 372 L 442 353 L 434 351 Z M 151 427 L 149 428 L 144 433 L 124 468 Q 122 477 129 479 L 137 478 L 140 475 L 161 437 L 159 429 Q 157 426 151 427 Z M 358 427 L 353 429 L 351 434 L 353 442 L 372 475 L 378 479 Q 387 481 388 475 L 388 468 L 368 433 Q 366 427 358 427 Z " /><path fill="rgb(254,192,51)" stroke="rgb(254,192,51)" stroke-width="1" opacity="0.9215686274509803" d="M 240.5 111 L 271.5 111 L 296.5 116 L 313.5 122 Q 345 136 366 160.5 Q 386.1 182.9 396 215.5 L 401 241.5 L 401 270.5 L 396 296.5 L 390 313.5 L 383 327.5 Q 370.3 349.8 351.5 366 Q 329.1 386.1 296.5 396 L 270.5 401 L 242.5 401 L 242.5 400 L 267.5 395 L 295.5 383 Q 319.3 369.8 336 349.5 Q 354.4 328.4 364 298.5 L 369 275.5 L 370 246.5 L 369 245.5 L 368 229.5 L 364 213.5 L 352 185.5 Q 338.8 161.7 318.5 145 Q 303.4 131.6 283.5 123 Q 265.1 114.4 240.5 112 L 240.5 111 Z " /><path fill="rgb(254,211,71)" stroke="rgb(254,211,71)" stroke-width="1" opacity="0.9921568627450981" d="M 252.5 0 Q 262.3 -1.8 264 4.5 L 264 52.5 L 259.5 57 Q 249.8 58.8 248 52.5 L 248 4.5 L 252.5 0 Z M 254 1 L 252 2 L 249 6 L 249 52 L 251 55 L 254 56 Q 259 57 261 55 L 263 52 L 263 6 L 262 4 Q 260 0 254 1 Z " /><path fill="rgb(254,211,71)" stroke="rgb(254,211,71)" stroke-width="1" opacity="0.9921568627450981" d="M 129.5 33 Q 137.1 31.9 139 36.5 L 159 70.5 L 161 78.5 L 159 83 Q 156.7 85.6 150.5 85 L 145 80.5 L 125 46.5 L 124 38.5 L 127.5 34 L 129.5 33 Z M 130 34 L 126 36 L 125 39 L 126 46 L 146 81 L 151 84 L 157 83 L 160 79 L 160 76 L 157 70 L 139 39 L 135 34 L 130 34 Z " /><path fill="rgb(254,211,71)" stroke="rgb(254,211,71)" stroke-width="1" opacity="0.9921568627450981" d="M 377.5 33 Q 385.1 31.9 387 36.5 L 388 44.5 L 369 77.5 L 363.5 84 L 357.5 85 L 353 83 L 351 75.5 L 368 44.5 L 375.5 34 L 377.5 33 Z M 378 34 L 373 39 L 352 76 L 353 81 L 358 84 L 364 83 L 387 44 Q 388 38 386 36 L 383 34 L 378 34 Z " /><path fill="rgb(254,211,71)" stroke="rgb(254,211,71)" stroke-width="1" opacity="0.9921568627450981" d="M 234.5 112 L 241 112.5 L 228.5 114 L 212.5 118 L 183.5 131 Q 161.1 144.1 145 163.5 Q 127.6 184.1 118 212.5 L 112 241.5 L 112 270.5 L 118 299.5 L 131 328.5 Q 144.1 350.9 163.5 367 Q 180.1 380.9 201.5 390 L 212.5 394 L 228.5 398 L 240.5 399 L 242 400.5 L 240.5 400 L 227.5 399 L 212.5 395 L 186.5 384 Q 162.9 371.1 146 351.5 Q 127 330 117 299.5 L 113 284.5 L 113 278.5 L 111 270.5 L 111 241.5 L 112 240.5 L 113 227.5 L 117 212.5 L 128 186.5 Q 140.9 162.9 160.5 146 L 179.5 132 L 196.5 123 L 212.5 117 L 234.5 112 Z " /><path fill="rgb(254,211,71)" stroke="rgb(254,211,71)" stroke-width="1" opacity="0.9921568627450981" d="M 38.5 124 L 46.5 125 L 77.5 143 L 84 148.5 L 85 154.5 L 83 159 L 75.5 161 L 44.5 144 L 34 136.5 L 33 129.5 L 36.5 125 L 38.5 124 Z M 39 125 L 36 126 L 34 130 L 34 135 L 39 139 L 76 160 L 81 159 L 84 155 L 83 149 L 48 127 Q 45 124 39 125 Z " /><path fill="rgb(254,211,71)" stroke="rgb(254,211,71)" stroke-width="1" opacity="0.9921568627450981" d="M 467.5 124 Q 475.8 122.7 478 127.5 L 479 134.5 L 475.5 139 L 441.5 159 L 433.5 161 L 429 159 Q 426.4 156.7 427 150.5 L 431.5 145 L 467.5 124 Z M 469 125 L 431 147 L 428 151 L 429 157 L 434 160 L 437 160 L 450 153 L 474 139 L 478 135 L 478 130 L 476 126 Q 474 124 469 125 Z " /><path fill="rgb(254,211,71)" stroke="rgb(254,211,71)" stroke-width="1" opacity="0.9921568627450981" d="M 4.5 248 L 52.5 248 L 57 252.5 Q 58.8 262.3 52.5 264 L 4.5 264 L 0 259.5 Q -1.8 249.8 4.5 248 Z M 6 249 L 4 250 L 1 254 L 2 261 L 6 263 L 52 263 L 55 261 L 56 259 Q 57 253 55 251 L 52 249 L 6 249 Z " /><path fill="rgb(254,211,71)" stroke="rgb(254,211,71)" stroke-width="1" opacity="0.9921568627450981" d="M 459.5 248 L 507.5 248 L 512 252.5 Q 513.8 262.3 507.5 264 L 459.5 264 L 455 259.5 Q 453.3 249.8 459.5 248 Z M 461 249 L 457 251 L 456 254 Q 455 259 457 261 L 461 263 L 507 263 L 509 262 L 511 259 L 510 252 L 507 249 L 461 249 Z " /><path fill="rgb(254,211,71)" stroke="rgb(254,211,71)" stroke-width="1" opacity="0.9921568627450981" d="M 75.5 351 L 83 353 Q 85.6 355.3 85 361.5 L 80.5 367 L 44.5 388 L 37.5 388 Q 31.9 386.1 33 377.5 L 36.5 373 L 75.5 351 Z M 76 352 L 39 373 L 34 378 L 35 385 L 39 387 Q 45 388 48 385 L 82 365 L 84 362 L 83 356 Q 82 351 76 352 Z " /><path fill="rgb(254,211,71)" stroke="rgb(254,211,71)" stroke-width="1" opacity="0.9921568627450981" d="M 433.5 351 L 441.5 353 L 478 375.5 L 479 382.5 L 474.5 388 L 465.5 387 L 434.5 369 L 428 363.5 L 427 357.5 L 429 353 L 433.5 351 Z M 434 352 L 432 353 L 428 358 L 429 364 L 469 387 L 476 386 Q 479 384 478 378 L 474 373 L 450 359 L 437 352 L 434 352 Z " /><path fill="rgb(254,211,71)" stroke="rgb(254,211,71)" stroke-width="1" opacity="0.9921568627450981" d="M 150.5 427 Q 156.7 426.4 159 429 L 161 436.5 L 144 467.5 L 136.5 478 L 129.5 479 L 125 475.5 L 124 467.5 L 143 434.5 L 148.5 428 L 150.5 427 Z M 151 428 L 149 429 L 125 469 Q 124 474 126 476 L 130 478 L 135 478 L 139 474 L 160 437 L 159 432 Q 157 427 151 428 Z " /><path fill="rgb(254,211,71)" stroke="rgb(254,211,71)" stroke-width="1" opacity="0.9921568627450981" d="M 357.5 427 Q 365.4 426.1 367 431.5 L 387 465.5 L 388 473.5 L 384.5 478 L 377.5 479 L 373 475.5 L 353 441.5 L 351 433.5 L 353 429 L 357.5 427 Z M 358 428 L 356 429 L 352 434 L 352 437 L 359 450 L 373 474 L 378 478 L 383 478 L 386 476 L 387 474 Q 388 467 385 465 L 365 431 Q 363 427 358 428 Z " /><path fill="rgb(254,211,71)" stroke="rgb(254,211,71)" stroke-width="1" opacity="0.9921568627450981" d="M 252.5 455 Q 262.3 453.3 264 459.5 L 264 507.5 L 259.5 512 Q 249.8 513.8 248 507.5 L 248 459.5 L 252.5 455 Z M 254 456 L 251 457 L 249 461 L 249 507 L 250 509 L 254 511 L 261 510 L 263 507 L 263 461 L 261 457 Q 259 455 254 456 Z " /><path fill="rgb(255,211,71)" stroke="rgb(255,211,71)" stroke-width="1" opacity="1" d="M 253.5 1 Q 260 0 262 3.5 L 263 5.5 L 263 51.5 L 261 55 Q 258.9 56.6 253.5 56 L 251 55 L 249 51.5 L 249 5.5 L 251.5 2 L 253.5 1 Z " /><path fill="rgb(255,211,71)" stroke="rgb(255,211,71)" stroke-width="1" opacity="1" d="M 129.5 34 L 134.5 34 L 139 38.5 L 157 69.5 L 160 75.5 L 160 78.5 L 156.5 83 L 150.5 84 L 146 80.5 L 126 45.5 L 125 38.5 L 126 36 L 129.5 34 Z " /><path fill="rgb(255,211,71)" stroke="rgb(255,211,71)" stroke-width="1" opacity="1" d="M 377.5 34 L 382.5 34 L 386 36 Q 387.6 38.1 387 43.5 L 363.5 83 L 357.5 84 L 353 80.5 L 352 75.5 L 373 38.5 L 377.5 34 Z " /><path fill="rgb(255,211,71)" stroke="rgb(255,211,71)" stroke-width="1" opacity="1" d="M 241.5 112 L 267.5 117 L 295.5 129 Q 319.3 142.2 336 162.5 Q 354.4 183.6 364 213.5 L 369 236.5 L 370 265.5 L 369 266.5 L 368 282.5 L 364 298.5 L 352 326.5 Q 338.8 350.3 318.5 367 Q 303.4 380.4 283.5 389 Q 265.5 397.5 241.5 400 L 212.5 394 L 183.5 381 Q 161.1 367.9 145 348.5 Q 127.6 327.9 118 299.5 L 112 270.5 L 112 241.5 L 118 212.5 L 131 183.5 Q 144.1 161.1 163.5 145 Q 180.1 131.1 201.5 122 L 212.5 118 L 241.5 112 Z " /><path fill="rgb(255,211,71)" stroke="rgb(255,211,71)" stroke-width="1" opacity="1" d="M 38.5 125 Q 44.8 124.2 47.5 127 L 83 148.5 L 84 154.5 L 80.5 159 L 75.5 160 L 38.5 139 L 34 134.5 L 34 129.5 L 36 126 L 38.5 125 Z " /><path fill="rgb(255,211,71)" stroke="rgb(255,211,71)" stroke-width="1" opacity="1" d="M 468.5 125 Q 473.9 124.4 476 126 L 478 129.5 L 478 134.5 L 473.5 139 L 449.5 153 L 436.5 160 L 433.5 160 L 429 156.5 L 428 150.5 L 430.5 147 L 468.5 125 Z " /><path fill="rgb(255,211,71)" stroke="rgb(255,211,71)" stroke-width="1" opacity="1" d="M 5.5 249 L 51.5 249 L 55 251 Q 56.6 253.1 56 258.5 L 55 261 L 51.5 263 L 5.5 263 L 2 260.5 L 1 253.5 L 3.5 250 L 5.5 249 Z " /><path fill="rgb(255,211,71)" stroke="rgb(255,211,71)" stroke-width="1" opacity="1" d="M 460.5 249 L 506.5 249 L 510 251.5 L 511 258.5 L 508.5 262 L 506.5 263 L 460.5 263 L 457 261 Q 455.4 258.9 456 253.5 L 457 251 L 460.5 249 Z " /><path fill="rgb(255,211,71)" stroke="rgb(255,211,71)" stroke-width="1" opacity="1" d="M 75.5 352 Q 81.7 351.3 83 355.5 L 84 361.5 L 81.5 365 L 47.5 385 Q 44.8 387.8 38.5 387 L 35 384.5 L 34 377.5 L 38.5 373 L 75.5 352 Z " /><path fill="rgb(255,211,71)" stroke="rgb(255,211,71)" stroke-width="1" opacity="1" d="M 433.5 352 L 436.5 352 L 449.5 359 L 473.5 373 L 478 377.5 Q 479 384 475.5 386 L 468.5 387 L 429 363.5 L 428 357.5 L 431.5 353 L 433.5 352 Z " /><path fill="rgb(255,211,71)" stroke="rgb(255,211,71)" stroke-width="1" opacity="1" d="M 150.5 428 Q 157.4 427.1 159 431.5 L 160 436.5 L 139 473.5 L 134.5 478 L 129.5 478 L 126 476 Q 124.4 473.9 125 468.5 L 148.5 429 L 150.5 428 Z " /><path fill="rgb(255,211,71)" stroke="rgb(255,211,71)" stroke-width="1" opacity="1" d="M 357.5 428 Q 363.3 427.2 365 430.5 L 385 464.5 Q 387.8 467.2 387 473.5 L 386 476 L 382.5 478 L 377.5 478 L 373 473.5 L 359 449.5 L 352 436.5 L 352 433.5 L 355.5 429 L 357.5 428 Z " /><path fill="rgb(255,211,71)" stroke="rgb(255,211,71)" stroke-width="1" opacity="1" d="M 253.5 456 Q 258.9 455.4 261 457 L 263 460.5 L 263 506.5 L 260.5 510 L 253.5 511 L 250 508.5 L 249 506.5 L 249 460.5 L 251 457 L 253.5 456 Z " /></svg>