<svg width="512" height="512" version="1.1" xmlns="http://www.w3.org/2000/svg" desc="Created with imagetracer.js version 1.2.6" ><path fill="rgb(137,210,248)" stroke="rgb(137,210,248)" stroke-width="1" opacity="1" d="M 161.5 25 L 165.5 25 L 196.5 56 L 315.5 56 L 346.5 25 L 350.5 25 L 360 29.5 L 360 58.5 L 359 59.5 L 359 69.5 L 358 70.5 L 356 89.5 L 347 122.5 L 338 144 L 268.5 144 L 264 148.5 L 264 187.5 L 268.5 192 L 309 192.5 L 277.5 228 Q 220.9 283.1 136 309 L 136 269.5 L 139.5 269 Q 172.7 259.2 192 235.5 Q 204.9 220.4 212 199.5 L 216 181.5 L 216 154.5 Q 208 111 179.5 88 Q 167.4 77.6 151.5 71 L 136 67 L 136 54.5 L 138 45.5 Q 141.5 36.5 148.5 31 L 161.5 25 Z M 272 80 L 272 96 L 273 96 L 336 96 L 336 81 L 336 80 L 272 80 Z M 224 112 L 224 128 L 225 128 L 320 128 L 320 113 L 320 112 L 224 112 Z " /><path fill="rgb(0,0,0)" stroke="rgb(0,0,0)" stroke-width="1" opacity="0" d="M 0 0 L 512 0 L 512 512 L 0 512 L 0 0 Z M 162 8 Q 148 10 140 17 Q 128 25 123 39 L 120 50 L 120 64 L 102 64 L 76 70 Q 56 78 42 91 Q 29 103 20 119 L 12 138 L 8 158 L 8 179 L 14 205 Q 22 224 35 239 Q 52 257 79 267 L 102 272 L 120 272 L 120 328 L 120 328 L 104 328 L 104 302 L 103 300 L 99 296 L 92 297 L 37 344 L 32 350 L 33 357 L 94 408 L 101 407 L 104 403 L 104 376 L 120 376 L 120 463 Q 122 476 129 485 Q 140 500 162 504 L 351 504 Q 364 502 373 495 Q 384 487 389 474 L 392 463 L 392 448 L 411 448 L 434 443 Q 455 435 471 421 Q 483 409 492 394 L 500 375 L 504 355 L 504 334 L 499 311 Q 491 289 477 274 Q 460 255 434 245 L 411 240 L 392 240 L 392 192 L 408 192 L 408 219 L 409 221 L 414 224 L 421 223 L 476 176 L 480 171 L 479 164 L 419 112 L 412 113 L 408 118 L 408 144 L 392 144 L 392 50 Q 390 36 383 28 Q 372 12 351 8 L 162 8 Z " /><path fill="rgb(244,213,149)" stroke="rgb(244,213,149)" stroke-width="1" opacity="1" d="M 188.5 24 L 324 24.5 L 308.5 40 L 203.5 40 L 188.5 24 Z " /><path fill="rgb(244,213,149)" stroke="rgb(244,213,149)" stroke-width="1" opacity="1" d="M 109.5 80 L 130.5 82 L 148.5 88 Q 167.4 97.1 180 112.5 L 183 116.5 L 184 140.5 L 181 157.5 L 171 181.5 Q 161.8 197.3 148.5 209 Q 136.3 220.7 120 227 Q 117.9 221.8 122.5 223 Q 133.2 219.2 139 210.5 L 144 199.5 L 144 184.5 Q 140.3 171.7 130.5 165 L 119.5 160 L 106.5 159 L 98 151.5 L 96 143.5 L 98 136.5 L 104.5 130 L 112.5 128 L 119.5 130 L 126 136.5 L 127 142.5 L 128.5 144 L 144 144 L 144 136.5 Q 140.3 123.7 130.5 117 L 120 113 L 120 96 L 104 96 L 104 112.5 L 101.5 113 Q 90.8 116.8 85 125.5 L 80 136.5 L 80 151.5 Q 83.7 164.3 93.5 171 L 104.5 176 L 117.5 177 L 126 184.5 L 128 192.5 L 126 199.5 L 119.5 206 L 112.5 208 L 104.5 206 L 98 199.5 L 97 193.5 L 95.5 192 L 80 192 L 80 199.5 Q 83.7 212.3 93.5 219 L 104 223 L 104 233.5 L 102.5 234 L 82.5 239 L 62.5 240 Q 51.5 233.5 44 223.5 Q 35.2 213.3 30 199.5 L 25 181.5 L 24 166.5 L 25 165.5 L 26 149.5 L 32 131.5 Q 41.1 112.6 56.5 100 Q 66.7 91.2 80.5 86 L 93.5 82 L 108.5 81 L 109.5 80 Z " /><path fill="rgb(244,213,149)" stroke="rgb(244,213,149)" stroke-width="1" opacity="1" d="M 400.5 256 L 418.5 258 L 436.5 264 Q 455.7 272.8 468 288.5 L 471 292.5 L 472 316.5 L 469 333.5 L 459 357.5 Q 449.8 373.3 436.5 385 Q 424.3 396.7 408 403 Q 405.9 397.8 410.5 399 Q 421.2 395.2 427 386.5 L 432 375.5 L 432 360.5 Q 428.3 347.7 418.5 341 L 407.5 336 L 394.5 335 L 386 327.5 L 384 319.5 L 386 312.5 L 392.5 306 L 400.5 304 L 407.5 306 L 414 312.5 L 415 318.5 L 416.5 320 L 432 320 L 432 312.5 Q 428.3 299.7 418.5 293 L 408 289 L 408 272 L 392 272 L 392 288.5 L 389.5 289 Q 378.8 292.8 373 301.5 L 368 312.5 L 368 327.5 Q 371.7 340.3 381.5 347 L 392.5 352 L 405.5 353 L 414 360.5 L 416 368.5 L 414 375.5 L 407.5 382 L 400.5 384 L 392.5 382 L 386 375.5 L 385 369.5 L 383.5 368 L 368 368 L 368 375.5 Q 371.7 388.3 381.5 395 L 392 399 L 392 409.5 L 390.5 410 L 370.5 415 L 350.5 416 Q 339.5 409.5 332 399.5 Q 323.2 389.3 318 375.5 L 314 362.5 L 312 343.5 L 313 342.5 L 314 325.5 L 320 307.5 Q 329.1 288.6 344.5 276 Q 354.7 267.2 368.5 262 L 381.5 258 L 399.5 257 L 400.5 256 Z " /><path fill="rgb(244,213,149)" stroke="rgb(244,213,149)" stroke-width="1" opacity="1" d="M 207.5 472 L 304.5 472 L 311 476.5 L 312 488 L 200.5 488 L 200 487.5 L 200 479.5 L 204.5 473 L 207.5 472 Z " /><path fill="rgb(43,45,39)" stroke="rgb(43,45,39)" stroke-width="1" opacity="1" d="M 165.5 24 L 194.5 54 L 165.5 24 Z " /><path fill="rgb(43,45,39)" stroke="rgb(43,45,39)" stroke-width="1" opacity="1" d="M 187.5 24 L 202.5 40 L 187.5 24 Z " /><path fill="rgb(43,45,39)" stroke="rgb(43,45,39)" stroke-width="1" opacity="1" d="M 324.5 24 L 309.5 40 L 324.5 24 Z " /><path fill="rgb(43,45,39)" stroke="rgb(43,45,39)" stroke-width="1" opacity="1" d="M 346.5 24 L 317.5 54 L 346.5 24 Z " /><path fill="rgb(43,45,39)" stroke="rgb(43,45,39)" stroke-width="1" opacity="1" d="M 148.5 30 L 147.5 32 L 148.5 30 Z " /><path fill="rgb(43,45,39)" stroke="rgb(43,45,39)" stroke-width="1" opacity="1" d="M 363.5 30 L 364.5 32 L 363.5 30 Z " /><path fill="rgb(43,45,39)" stroke="rgb(43,45,39)" stroke-width="1" opacity="1" d="M 368.5 35 L 369.5 37 L 368.5 35 Z " /><path fill="rgb(43,45,39)" stroke="rgb(43,45,39)" stroke-width="1" opacity="1" d="M 177.5 87 L 178.5 89 L 177.5 87 Z " /><path fill="rgb(43,45,39)" stroke="rgb(43,45,39)" stroke-width="1" opacity="1" d="M 159.5 93 L 160.5 95 L 159.5 93 Z " /><path fill="rgb(43,45,39)" stroke="rgb(43,45,39)" stroke-width="1" opacity="1" d="M 57.5 98 L 56.5 100 L 57.5 98 Z " /><path fill="rgb(43,45,39)" stroke="rgb(43,45,39)" stroke-width="1" opacity="1" d="M 166.5 98 L 167.5 100 L 166.5 98 Z " /><path fill="rgb(43,45,39)" stroke="rgb(43,45,39)" stroke-width="1" opacity="1" d="M 191.5 101 L 192.5 103 L 191.5 101 Z " /><path fill="rgb(43,45,39)" stroke="rgb(43,45,39)" stroke-width="1" opacity="1" d="M 197.5 109 L 198.5 111 L 197.5 109 Z " /><path fill="rgb(43,45,39)" stroke="rgb(43,45,39)" stroke-width="1" opacity="1" d="M 44.5 111 L 42.5 114 L 44.5 111 Z " /><path fill="rgb(43,45,39)" stroke="rgb(43,45,39)" stroke-width="1" opacity="1" d="M 180.5 112 L 181.5 114 L 180.5 112 Z " /><path fill="rgb(43,45,39)" stroke="rgb(43,45,39)" stroke-width="1" opacity="1" d="M 129.5 117 L 130.5 119 L 129.5 117 Z " /><path fill="rgb(43,45,39)" stroke="rgb(43,45,39)" stroke-width="1" opacity="1" d="M 185.5 119 L 186.5 121 L 185.5 119 Z " /><path fill="rgb(43,45,39)" stroke="rgb(43,45,39)" stroke-width="1" opacity="1" d="M 101.5 131 L 99.5 134 L 101.5 131 Z " /><path fill="rgb(43,45,39)" stroke="rgb(43,45,39)" stroke-width="1" opacity="1" d="M 424.5 137 L 425.5 139 L 424.5 137 Z " /><path fill="rgb(43,45,39)" stroke="rgb(43,45,39)" stroke-width="1" opacity="1" d="M 80.5 139 L 81 141.5 L 80 141.5 L 80.5 139 Z " /><path fill="rgb(43,45,39)" stroke="rgb(43,45,39)" stroke-width="1" opacity="1" d="M 143.5 139 L 144 141.5 L 143 141.5 L 143.5 139 Z " /><path fill="rgb(43,45,39)" stroke="rgb(43,45,39)" stroke-width="1" opacity="1" d="M 430.5 142 L 432.5 145 L 430.5 142 Z " /><path fill="rgb(43,45,39)" stroke="rgb(43,45,39)" stroke-width="1" opacity="1" d="M 80.5 146 L 81 148.5 L 80 148.5 L 80.5 146 Z " /><path fill="rgb(43,45,39)" stroke="rgb(43,45,39)" stroke-width="1" opacity="1" d="M 266.5 146 L 265.5 148 L 266.5 146 Z " /><path fill="rgb(43,45,39)" stroke="rgb(43,45,39)" stroke-width="1" opacity="1" d="M 437.5 148 L 439.5 151 L 437.5 148 Z " /><path fill="rgb(43,45,39)" stroke="rgb(43,45,39)" stroke-width="1" opacity="1" d="M 444.5 154 L 446.5 157 L 444.5 154 Z " /><path fill="rgb(43,45,39)" stroke="rgb(43,45,39)" stroke-width="1" opacity="1" d="M 215.5 159 L 216 163.5 L 215 163.5 L 215.5 159 Z " /><path fill="rgb(43,45,39)" stroke="rgb(43,45,39)" stroke-width="1" opacity="1" d="M 114.5 160 L 117 160.5 L 114.5 161 L 114.5 160 Z " /><path fill="rgb(43,45,39)" stroke="rgb(43,45,39)" stroke-width="1" opacity="1" d="M 451.5 160 L 453.5 163 L 451.5 160 Z " /><path fill="rgb(43,45,39)" stroke="rgb(43,45,39)" stroke-width="1" opacity="1" d="M 88.5 165 L 90.5 168 L 88.5 165 Z " /><path fill="rgb(43,45,39)" stroke="rgb(43,45,39)" stroke-width="1" opacity="1" d="M 458.5 166 L 460 168.5 L 458 169.5 L 459 167.5 L 458.5 166 Z " /><path fill="rgb(43,45,39)" stroke="rgb(43,45,39)" stroke-width="1" opacity="1" d="M 133.5 168 L 135.5 171 L 133.5 168 Z " /><path fill="rgb(43,45,39)" stroke="rgb(43,45,39)" stroke-width="1" opacity="1" d="M 215.5 172 L 216 176.5 L 215 176.5 L 215.5 172 Z " /><path fill="rgb(43,45,39)" stroke="rgb(43,45,39)" stroke-width="1" opacity="1" d="M 453.5 173 L 451.5 176 L 453.5 173 Z " /><path fill="rgb(43,45,39)" stroke="rgb(43,45,39)" stroke-width="1" opacity="1" d="M 107.5 175 L 110 175.5 L 107.5 176 L 107.5 175 Z " /><path fill="rgb(43,45,39)" stroke="rgb(43,45,39)" stroke-width="1" opacity="1" d="M 122.5 179 L 124.5 182 L 122.5 179 Z " /><path fill="rgb(43,45,39)" stroke="rgb(43,45,39)" stroke-width="1" opacity="1" d="M 446.5 179 L 444.5 182 L 446.5 179 Z " /><path fill="rgb(43,45,39)" stroke="rgb(43,45,39)" stroke-width="1" opacity="1" d="M 439.5 185 L 437.5 188 L 439.5 185 Z " /><path fill="rgb(43,45,39)" stroke="rgb(43,45,39)" stroke-width="1" opacity="1" d="M 143.5 187 L 144 189.5 L 143 189.5 L 143.5 187 Z " /><path fill="rgb(43,45,39)" stroke="rgb(43,45,39)" stroke-width="1" opacity="1" d="M 432.5 191 L 430.5 194 L 432.5 191 Z " /><path fill="rgb(43,45,39)" stroke="rgb(43,45,39)" stroke-width="1" opacity="1" d="M 80.5 194 L 81 196.5 L 80 196.5 L 80.5 194 Z " /><path fill="rgb(43,45,39)" stroke="rgb(43,45,39)" stroke-width="1" opacity="1" d="M 143.5 194 L 144 196.5 L 143 196.5 L 143.5 194 Z " /><path fill="rgb(43,45,39)" stroke="rgb(43,45,39)" stroke-width="1" opacity="1" d="M 425.5 197 L 424.5 199 L 425.5 197 Z " /><path fill="rgb(43,45,39)" stroke="rgb(43,45,39)" stroke-width="1" opacity="1" d="M 99.5 202 L 101.5 205 L 99.5 202 Z " /><path fill="rgb(43,45,39)" stroke="rgb(43,45,39)" stroke-width="1" opacity="1" d="M 124.5 202 L 122.5 205 L 124.5 202 Z " /><path fill="rgb(43,45,39)" stroke="rgb(43,45,39)" stroke-width="1" opacity="1" d="M 93.5 217 L 94.5 219 L 93.5 217 Z " /><path fill="rgb(43,45,39)" stroke="rgb(43,45,39)" stroke-width="1" opacity="1" d="M 42.5 222 L 44.5 225 L 42.5 222 Z " /><path fill="rgb(43,45,39)" stroke="rgb(43,45,39)" stroke-width="1" opacity="1" d="M 198.5 225 L 197.5 227 L 198.5 225 Z " /><path fill="rgb(43,45,39)" stroke="rgb(43,45,39)" stroke-width="1" opacity="1" d="M 192.5 233 L 191.5 235 L 192.5 233 Z " /><path fill="rgb(43,45,39)" stroke="rgb(43,45,39)" stroke-width="1" opacity="1" d="M 168.5 235 L 166.5 238 L 168.5 235 Z " /><path fill="rgb(43,45,39)" stroke="rgb(43,45,39)" stroke-width="1" opacity="1" d="M 178.5 247 L 177.5 249 L 178.5 247 Z " /><path fill="rgb(43,45,39)" stroke="rgb(43,45,39)" stroke-width="1" opacity="1" d="M 342.5 257 L 341.5 259 L 342.5 257 Z " /><path fill="rgb(43,45,39)" stroke="rgb(43,45,39)" stroke-width="1" opacity="1" d="M 339.5 259 L 338.5 261 L 339.5 259 Z " /><path fill="rgb(43,45,39)" stroke="rgb(43,45,39)" stroke-width="1" opacity="1" d="M 334.5 263 L 333.5 265 L 334.5 263 Z " /><path fill="rgb(43,45,39)" stroke="rgb(43,45,39)" stroke-width="1" opacity="1" d="M 352.5 269 L 351.5 271 L 352.5 269 Z " /><path fill="rgb(43,45,39)" stroke="rgb(43,45,39)" stroke-width="1" opacity="1" d="M 450.5 271 L 451.5 273 L 450.5 271 Z " /><path fill="rgb(43,45,39)" stroke="rgb(43,45,39)" stroke-width="1" opacity="1" d="M 345.5 274 L 344.5 276 L 345.5 274 Z " /><path fill="rgb(43,45,39)" stroke="rgb(43,45,39)" stroke-width="1" opacity="1" d="M 454.5 274 L 455.5 276 L 454.5 274 Z " /><path fill="rgb(43,45,39)" stroke="rgb(43,45,39)" stroke-width="1" opacity="1" d="M 320.5 277 L 318.5 280 L 320.5 277 Z " /><path fill="rgb(43,45,39)" stroke="rgb(43,45,39)" stroke-width="1" opacity="1" d="M 316.5 282 L 315.5 284 L 316.5 282 Z " /><path fill="rgb(43,45,39)" stroke="rgb(43,45,39)" stroke-width="1" opacity="1" d="M 312.5 288 L 311.5 290 L 312.5 288 Z " /><path fill="rgb(43,45,39)" stroke="rgb(43,45,39)" stroke-width="1" opacity="1" d="M 331.5 288 L 330.5 290 L 331.5 288 Z " /><path fill="rgb(43,45,39)" stroke="rgb(43,45,39)" stroke-width="1" opacity="1" d="M 468.5 288 L 469.5 290 L 468.5 288 Z " /><path fill="rgb(43,45,39)" stroke="rgb(43,45,39)" stroke-width="1" opacity="1" d="M 417.5 293 L 418.5 295 L 417.5 293 Z " /><path fill="rgb(43,45,39)" stroke="rgb(43,45,39)" stroke-width="1" opacity="1" d="M 326.5 295 L 325.5 297 L 326.5 295 Z " /><path fill="rgb(43,45,39)" stroke="rgb(43,45,39)" stroke-width="1" opacity="1" d="M 389.5 307 L 387.5 310 L 389.5 307 Z " /><path fill="rgb(43,45,39)" stroke="rgb(43,45,39)" stroke-width="1" opacity="1" d="M 368.5 315 L 369 317.5 L 368 317.5 L 368.5 315 Z " /><path fill="rgb(43,45,39)" stroke="rgb(43,45,39)" stroke-width="1" opacity="1" d="M 431.5 315 L 432 317.5 L 431 317.5 L 431.5 315 Z " /><path fill="rgb(43,45,39)" stroke="rgb(43,45,39)" stroke-width="1" opacity="1" d="M 87.5 321 L 86.5 323 L 87.5 321 Z " /><path fill="rgb(43,45,39)" stroke="rgb(43,45,39)" stroke-width="1" opacity="1" d="M 368.5 322 L 369 324.5 L 368 324.5 L 368.5 322 Z " /><path fill="rgb(43,45,39)" stroke="rgb(43,45,39)" stroke-width="1" opacity="1" d="M 81.5 326 L 79.5 329 L 81.5 326 Z " /><path fill="rgb(43,45,39)" stroke="rgb(43,45,39)" stroke-width="1" opacity="1" d="M 244.5 329 L 246.5 332 L 244.5 329 Z " /><path fill="rgb(43,45,39)" stroke="rgb(43,45,39)" stroke-width="1" opacity="1" d="M 74.5 332 L 72.5 335 L 74.5 332 Z " /><path fill="rgb(43,45,39)" stroke="rgb(43,45,39)" stroke-width="1" opacity="1" d="M 296.5 334 L 297 338.5 L 296 338.5 L 296.5 334 Z " /><path fill="rgb(43,45,39)" stroke="rgb(43,45,39)" stroke-width="1" opacity="1" d="M 402.5 336 L 405 336.5 L 402.5 337 L 402.5 336 Z " /><path fill="rgb(43,45,39)" stroke="rgb(43,45,39)" stroke-width="1" opacity="1" d="M 67.5 338 L 65.5 341 L 67.5 338 Z " /><path fill="rgb(43,45,39)" stroke="rgb(43,45,39)" stroke-width="1" opacity="1" d="M 376.5 341 L 378.5 344 L 376.5 341 Z " /><path fill="rgb(43,45,39)" stroke="rgb(43,45,39)" stroke-width="1" opacity="1" d="M 421.5 344 L 423.5 347 L 421.5 344 Z " /><path fill="rgb(43,45,39)" stroke="rgb(43,45,39)" stroke-width="1" opacity="1" d="M 59.5 345 L 58.5 347 L 59.5 345 Z " /><path fill="rgb(43,45,39)" stroke="rgb(43,45,39)" stroke-width="1" opacity="1" d="M 296.5 349 L 297 353.5 L 296 353.5 L 296.5 349 Z " /><path fill="rgb(43,45,39)" stroke="rgb(43,45,39)" stroke-width="1" opacity="1" d="M 53.5 350 L 53 351.5 L 54 353.5 L 52 352.5 L 53.5 350 Z " /><path fill="rgb(43,45,39)" stroke="rgb(43,45,39)" stroke-width="1" opacity="1" d="M 395.5 351 L 398 351.5 L 395.5 352 L 395.5 351 Z " /><path fill="rgb(43,45,39)" stroke="rgb(43,45,39)" stroke-width="1" opacity="1" d="M 410.5 355 L 412.5 358 L 410.5 355 Z " /><path fill="rgb(43,45,39)" stroke="rgb(43,45,39)" stroke-width="1" opacity="1" d="M 58.5 357 L 60.5 360 L 58.5 357 Z " /><path fill="rgb(43,45,39)" stroke="rgb(43,45,39)" stroke-width="1" opacity="1" d="M 91.5 361 L 89.5 364 L 91.5 361 Z " /><path fill="rgb(43,45,39)" stroke="rgb(43,45,39)" stroke-width="1" opacity="1" d="M 65.5 363 L 67.5 366 L 65.5 363 Z " /><path fill="rgb(43,45,39)" stroke="rgb(43,45,39)" stroke-width="1" opacity="1" d="M 431.5 363 L 432 365.5 L 431 365.5 L 431.5 363 Z " /><path fill="rgb(43,45,39)" stroke="rgb(43,45,39)" stroke-width="1" opacity="1" d="M 72.5 369 L 74.5 372 L 72.5 369 Z " /><path fill="rgb(43,45,39)" stroke="rgb(43,45,39)" stroke-width="1" opacity="1" d="M 368.5 370 L 369 372.5 L 368 372.5 L 368.5 370 Z " /><path fill="rgb(43,45,39)" stroke="rgb(43,45,39)" stroke-width="1" opacity="1" d="M 431.5 370 L 432 372.5 L 431 372.5 L 431.5 370 Z " /><path fill="rgb(43,45,39)" stroke="rgb(43,45,39)" stroke-width="1" opacity="1" d="M 246.5 372 L 244.5 375 L 246.5 372 Z " /><path fill="rgb(43,45,39)" stroke="rgb(43,45,39)" stroke-width="1" opacity="1" d="M 79.5 375 L 81.5 378 L 79.5 375 Z " /><path fill="rgb(43,45,39)" stroke="rgb(43,45,39)" stroke-width="1" opacity="1" d="M 387.5 378 L 389.5 381 L 387.5 378 Z " /><path fill="rgb(43,45,39)" stroke="rgb(43,45,39)" stroke-width="1" opacity="1" d="M 412.5 378 L 410.5 381 L 412.5 378 Z " /><path fill="rgb(43,45,39)" stroke="rgb(43,45,39)" stroke-width="1" opacity="1" d="M 86.5 381 L 87.5 383 L 86.5 381 Z " /><path fill="rgb(43,45,39)" stroke="rgb(43,45,39)" stroke-width="1" opacity="1" d="M 381.5 393 L 382.5 395 L 381.5 393 Z " /><path fill="rgb(43,45,39)" stroke="rgb(43,45,39)" stroke-width="1" opacity="1" d="M 327.5 394 L 328.5 396 L 327.5 394 Z " /><path fill="rgb(43,45,39)" stroke="rgb(43,45,39)" stroke-width="1" opacity="1" d="M 311.5 398 L 312.5 400 L 311.5 398 Z " /><path fill="rgb(43,45,39)" stroke="rgb(43,45,39)" stroke-width="1" opacity="1" d="M 330.5 398 L 331.5 400 L 330.5 398 Z " /><path fill="rgb(43,45,39)" stroke="rgb(43,45,39)" stroke-width="1" opacity="1" d="M 468.5 399 L 467.5 401 L 468.5 399 Z " /><path fill="rgb(43,45,39)" stroke="rgb(43,45,39)" stroke-width="1" opacity="1" d="M 313.5 401 L 314.5 403 L 313.5 401 Z " /><path fill="rgb(43,45,39)" stroke="rgb(43,45,39)" stroke-width="1" opacity="1" d="M 315.5 404 L 316.5 406 L 315.5 404 Z " /><path fill="rgb(43,45,39)" stroke="rgb(43,45,39)" stroke-width="1" opacity="1" d="M 319.5 409 L 320.5 411 L 319.5 409 Z " /><path fill="rgb(43,45,39)" stroke="rgb(43,45,39)" stroke-width="1" opacity="1" d="M 456.5 411 L 455.5 413 L 456.5 411 Z " /><path fill="rgb(43,45,39)" stroke="rgb(43,45,39)" stroke-width="1" opacity="1" d="M 344.5 412 L 345.5 414 L 344.5 412 Z " /><path fill="rgb(43,45,39)" stroke="rgb(43,45,39)" stroke-width="1" opacity="1" d="M 333.5 423 L 334.5 425 L 333.5 423 Z " /><path fill="rgb(43,45,39)" stroke="rgb(43,45,39)" stroke-width="1" opacity="1" d="M 341.5 429 L 342.5 431 L 341.5 429 Z " /><path fill="rgb(43,45,39)" stroke="rgb(43,45,39)" stroke-width="1" opacity="1" d="M 240.5 438 L 304 438.5 L 240.5 439 L 240.5 438 Z " /><path fill="rgb(43,45,39)" stroke="rgb(43,45,39)" stroke-width="1" opacity="1" d="M 203.5 456 L 206 456.5 L 203.5 457 L 203.5 456 Z " /><path fill="rgb(43,45,39)" stroke="rgb(43,45,39)" stroke-width="1" opacity="1" d="M 306.5 456 L 309 456.5 L 306.5 457 L 306.5 456 Z " /><path fill="rgb(43,45,39)" stroke="rgb(43,45,39)" stroke-width="1" opacity="1" d="M 141.5 474 L 142.5 476 L 141.5 474 Z " /><path fill="rgb(43,45,39)" stroke="rgb(43,45,39)" stroke-width="1" opacity="1" d="M 370.5 474 L 369.5 476 L 370.5 474 Z " /><path fill="rgb(43,45,39)" stroke="rgb(43,45,39)" stroke-width="1" opacity="1" d="M 184.5 475 L 185 477.5 L 184 477.5 L 184.5 475 Z " /><path fill="rgb(43,45,39)" stroke="rgb(43,45,39)" stroke-width="1" opacity="1" d="M 327.5 475 L 328 477.5 L 327 477.5 L 327.5 475 Z " /><path fill="rgb(43,45,39)" stroke="rgb(43,45,39)" stroke-width="1" opacity="1" d="M 148.5 481 L 149.5 483 L 148.5 481 Z " /><path fill="rgb(43,45,39)" stroke="rgb(43,45,39)" stroke-width="1" opacity="1" d="M 363.5 481 L 362.5 483 L 363.5 481 Z " /><path fill="rgb(0,0,0)" stroke="rgb(0,0,0)" stroke-width="1" opacity="0.803921568627451" d="M 161.5 8 L 166 8.5 L 161.5 9 L 161.5 8 Z " /><path fill="rgb(0,0,0)" stroke="rgb(0,0,0)" stroke-width="1" opacity="0.803921568627451" d="M 346.5 8 L 351 8.5 L 346.5 9 L 346.5 8 Z " /><path fill="rgb(0,0,0)" stroke="rgb(0,0,0)" stroke-width="1" opacity="0.803921568627451" d="M 139.5 17 L 138.5 19 L 139.5 17 Z " /><path fill="rgb(0,0,0)" stroke="rgb(0,0,0)" stroke-width="1" opacity="0.803921568627451" d="M 372.5 17 L 373.5 19 L 372.5 17 Z " /><path fill="rgb(0,0,0)" stroke="rgb(0,0,0)" stroke-width="1" opacity="0.803921568627451" d="M 130.5 26 L 129.5 28 L 130.5 26 Z " /><path fill="rgb(0,0,0)" stroke="rgb(0,0,0)" stroke-width="1" opacity="0.803921568627451" d="M 381.5 26 L 382.5 28 L 381.5 26 Z " /><path fill="rgb(0,0,0)" stroke="rgb(0,0,0)" stroke-width="1" opacity="0.803921568627451" d="M 120.5 49 L 121 53.5 L 120 53.5 L 120.5 49 Z " /><path fill="rgb(0,0,0)" stroke="rgb(0,0,0)" stroke-width="1" opacity="0.803921568627451" d="M 391.5 49 L 392 53.5 L 391 53.5 L 391.5 49 Z " /><path fill="rgb(0,0,0)" stroke="rgb(0,0,0)" stroke-width="1" opacity="0.803921568627451" d="M 101.5 64 L 108 64.5 L 101.5 65 L 101.5 64 Z " /><path fill="rgb(0,0,0)" stroke="rgb(0,0,0)" stroke-width="1" opacity="0.803921568627451" d="M 115.5 64 L 120 64.5 L 115.5 65 L 115.5 64 Z " /><path fill="rgb(0,0,0)" stroke="rgb(0,0,0)" stroke-width="1" opacity="0.803921568627451" d="M 94.5 65 L 97 65.5 L 94.5 66 L 94.5 65 Z " /><path fill="rgb(0,0,0)" stroke="rgb(0,0,0)" stroke-width="1" opacity="0.803921568627451" d="M 62.5 76 L 61.5 78 L 62.5 76 Z " /><path fill="rgb(0,0,0)" stroke="rgb(0,0,0)" stroke-width="1" opacity="0.803921568627451" d="M 57.5 79 L 56.5 81 L 57.5 79 Z " /><path fill="rgb(0,0,0)" stroke="rgb(0,0,0)" stroke-width="1" opacity="0.803921568627451" d="M 51.5 83 L 50.5 85 L 51.5 83 Z " /><path fill="rgb(0,0,0)" stroke="rgb(0,0,0)" stroke-width="1" opacity="0.803921568627451" d="M 47.5 86 L 45.5 89 L 47.5 86 Z " /><path fill="rgb(0,0,0)" stroke="rgb(0,0,0)" stroke-width="1" opacity="0.803921568627451" d="M 41.5 91 L 35.5 98 L 41.5 91 Z " /><path fill="rgb(0,0,0)" stroke="rgb(0,0,0)" stroke-width="1" opacity="0.803921568627451" d="M 32.5 101 L 30.5 104 L 32.5 101 Z " /><path fill="rgb(0,0,0)" stroke="rgb(0,0,0)" stroke-width="1" opacity="0.803921568627451" d="M 28.5 106 L 27.5 108 L 28.5 106 Z " /><path fill="rgb(0,0,0)" stroke="rgb(0,0,0)" stroke-width="1" opacity="0.803921568627451" d="M 24.5 112 L 23.5 114 L 24.5 112 Z " /><path fill="rgb(0,0,0)" stroke="rgb(0,0,0)" stroke-width="1" opacity="0.803921568627451" d="M 411.5 113 L 409.5 116 L 411.5 113 Z " /><path fill="rgb(0,0,0)" stroke="rgb(0,0,0)" stroke-width="1" opacity="0.803921568627451" d="M 420.5 113 L 422.5 116 L 420.5 113 Z " /><path fill="rgb(0,0,0)" stroke="rgb(0,0,0)" stroke-width="1" opacity="0.803921568627451" d="M 21.5 117 L 20.5 119 L 21.5 117 Z " /><path fill="rgb(0,0,0)" stroke="rgb(0,0,0)" stroke-width="1" opacity="0.803921568627451" d="M 426.5 118 L 429.5 122 L 426.5 118 Z " /><path fill="rgb(0,0,0)" stroke="rgb(0,0,0)" stroke-width="1" opacity="0.803921568627451" d="M 432.5 123 L 436.5 128 L 432.5 123 Z " /><path fill="rgb(0,0,0)" stroke="rgb(0,0,0)" stroke-width="1" opacity="0.803921568627451" d="M 440.5 130 L 443.5 134 L 440.5 130 Z " /><path fill="rgb(0,0,0)" stroke="rgb(0,0,0)" stroke-width="1" opacity="0.803921568627451" d="M 446.5 135 L 450.5 140 L 446.5 135 Z " /><path fill="rgb(0,0,0)" stroke="rgb(0,0,0)" stroke-width="1" opacity="0.803921568627451" d="M 454.5 142 L 457.5 146 L 454.5 142 Z " /><path fill="rgb(0,0,0)" stroke="rgb(0,0,0)" stroke-width="1" opacity="0.803921568627451" d="M 461.5 148 L 464.5 152 L 461.5 148 Z " /><path fill="rgb(0,0,0)" stroke="rgb(0,0,0)" stroke-width="1" opacity="0.803921568627451" d="M 9.5 150 L 10 152.5 L 9 152.5 L 9.5 150 Z " /><path fill="rgb(0,0,0)" stroke="rgb(0,0,0)" stroke-width="1" opacity="0.803921568627451" d="M 468.5 154 L 471.5 158 L 468.5 154 Z " /><path fill="rgb(0,0,0)" stroke="rgb(0,0,0)" stroke-width="1" opacity="0.803921568627451" d="M 8.5 157 L 9 163.5 L 8 163.5 L 8.5 157 Z " /><path fill="rgb(0,0,0)" stroke="rgb(0,0,0)" stroke-width="1" opacity="0.803921568627451" d="M 475.5 160 L 478.5 164 L 475.5 160 Z " /><path fill="rgb(0,0,0)" stroke="rgb(0,0,0)" stroke-width="1" opacity="0.803921568627451" d="M 8.5 172 L 9 178.5 L 8 178.5 L 8.5 172 Z " /><path fill="rgb(0,0,0)" stroke="rgb(0,0,0)" stroke-width="1" opacity="0.803921568627451" d="M 478.5 172 L 475.5 176 L 478.5 172 Z " /><path fill="rgb(0,0,0)" stroke="rgb(0,0,0)" stroke-width="1" opacity="0.803921568627451" d="M 471.5 178 L 468.5 182 L 471.5 178 Z " /><path fill="rgb(0,0,0)" stroke="rgb(0,0,0)" stroke-width="1" opacity="0.803921568627451" d="M 9.5 183 L 10 185.5 L 9 185.5 L 9.5 183 Z " /><path fill="rgb(0,0,0)" stroke="rgb(0,0,0)" stroke-width="1" opacity="0.803921568627451" d="M 464.5 184 L 461.5 188 L 464.5 184 Z " /><path fill="rgb(0,0,0)" stroke="rgb(0,0,0)" stroke-width="1" opacity="0.803921568627451" d="M 457.5 190 L 454.5 194 L 457.5 190 Z " /><path fill="rgb(0,0,0)" stroke="rgb(0,0,0)" stroke-width="1" opacity="0.803921568627451" d="M 450.5 196 L 446.5 201 L 450.5 196 Z " /><path fill="rgb(0,0,0)" stroke="rgb(0,0,0)" stroke-width="1" opacity="0.803921568627451" d="M 443.5 202 L 440.5 206 L 443.5 202 Z " /><path fill="rgb(0,0,0)" stroke="rgb(0,0,0)" stroke-width="1" opacity="0.803921568627451" d="M 436.5 208 L 432.5 213 L 436.5 208 Z " /><path fill="rgb(0,0,0)" stroke="rgb(0,0,0)" stroke-width="1" opacity="0.803921568627451" d="M 429.5 214 L 426.5 218 L 429.5 214 Z " /><path fill="rgb(0,0,0)" stroke="rgb(0,0,0)" stroke-width="1" opacity="0.803921568627451" d="M 20.5 217 L 21.5 219 L 20.5 217 Z " /><path fill="rgb(0,0,0)" stroke="rgb(0,0,0)" stroke-width="1" opacity="0.803921568627451" d="M 409.5 220 L 411.5 223 L 409.5 220 Z " /><path fill="rgb(0,0,0)" stroke="rgb(0,0,0)" stroke-width="1" opacity="0.803921568627451" d="M 422.5 220 L 420.5 223 L 422.5 220 Z " /><path fill="rgb(0,0,0)" stroke="rgb(0,0,0)" stroke-width="1" opacity="0.803921568627451" d="M 23.5 222 L 24.5 224 L 23.5 222 Z " /><path fill="rgb(0,0,0)" stroke="rgb(0,0,0)" stroke-width="1" opacity="0.803921568627451" d="M 27.5 228 L 28.5 230 L 27.5 228 Z " /><path fill="rgb(0,0,0)" stroke="rgb(0,0,0)" stroke-width="1" opacity="0.803921568627451" d="M 30.5 232 L 32.5 235 L 30.5 232 Z " /><path fill="rgb(0,0,0)" stroke="rgb(0,0,0)" stroke-width="1" opacity="0.803921568627451" d="M 35.5 238 L 41.5 245 L 35.5 238 Z " /><path fill="rgb(0,0,0)" stroke="rgb(0,0,0)" stroke-width="1" opacity="0.803921568627451" d="M 392.5 240 L 397 240.5 L 392.5 241 L 392.5 240 Z " /><path fill="rgb(0,0,0)" stroke="rgb(0,0,0)" stroke-width="1" opacity="0.803921568627451" d="M 404.5 240 L 411 240.5 L 404.5 241 L 404.5 240 Z " /><path fill="rgb(0,0,0)" stroke="rgb(0,0,0)" stroke-width="1" opacity="0.803921568627451" d="M 415.5 241 L 418 241.5 L 415.5 242 L 415.5 241 Z " /><path fill="rgb(0,0,0)" stroke="rgb(0,0,0)" stroke-width="1" opacity="0.803921568627451" d="M 45.5 247 L 47.5 250 L 45.5 247 Z " /><path fill="rgb(0,0,0)" stroke="rgb(0,0,0)" stroke-width="1" opacity="0.803921568627451" d="M 50.5 251 L 51.5 253 L 50.5 251 Z " /><path fill="rgb(0,0,0)" stroke="rgb(0,0,0)" stroke-width="1" opacity="0.803921568627451" d="M 449.5 252 L 450.5 254 L 449.5 252 Z " /><path fill="rgb(0,0,0)" stroke="rgb(0,0,0)" stroke-width="1" opacity="0.803921568627451" d="M 56.5 255 L 57.5 257 L 56.5 255 Z " /><path fill="rgb(0,0,0)" stroke="rgb(0,0,0)" stroke-width="1" opacity="0.803921568627451" d="M 454.5 255 L 455.5 257 L 454.5 255 Z " /><path fill="rgb(0,0,0)" stroke="rgb(0,0,0)" stroke-width="1" opacity="0.803921568627451" d="M 61.5 258 L 62.5 260 L 61.5 258 Z " /><path fill="rgb(0,0,0)" stroke="rgb(0,0,0)" stroke-width="1" opacity="0.803921568627451" d="M 460.5 259 L 461.5 261 L 460.5 259 Z " /><path fill="rgb(0,0,0)" stroke="rgb(0,0,0)" stroke-width="1" opacity="0.803921568627451" d="M 464.5 262 L 466.5 265 L 464.5 262 Z " /><path fill="rgb(0,0,0)" stroke="rgb(0,0,0)" stroke-width="1" opacity="0.803921568627451" d="M 470.5 267 L 476.5 274 L 470.5 267 Z " /><path fill="rgb(0,0,0)" stroke="rgb(0,0,0)" stroke-width="1" opacity="0.803921568627451" d="M 94.5 270 L 97 270.5 L 94.5 271 L 94.5 270 Z " /><path fill="rgb(0,0,0)" stroke="rgb(0,0,0)" stroke-width="1" opacity="0.803921568627451" d="M 101.5 271 L 108 271.5 L 101.5 272 L 101.5 271 Z " /><path fill="rgb(0,0,0)" stroke="rgb(0,0,0)" stroke-width="1" opacity="0.803921568627451" d="M 115.5 271 L 120 271.5 L 115.5 272 L 115.5 271 Z " /><path fill="rgb(0,0,0)" stroke="rgb(0,0,0)" stroke-width="1" opacity="0.803921568627451" d="M 479.5 277 L 481.5 280 L 479.5 277 Z " /><path fill="rgb(0,0,0)" stroke="rgb(0,0,0)" stroke-width="1" opacity="0.803921568627451" d="M 483.5 282 L 484.5 284 L 483.5 282 Z " /><path fill="rgb(0,0,0)" stroke="rgb(0,0,0)" stroke-width="1" opacity="0.803921568627451" d="M 487.5 288 L 488.5 290 L 487.5 288 Z " /><path fill="rgb(0,0,0)" stroke="rgb(0,0,0)" stroke-width="1" opacity="0.803921568627451" d="M 490.5 293 L 491.5 295 L 490.5 293 Z " /><path fill="rgb(0,0,0)" stroke="rgb(0,0,0)" stroke-width="1" opacity="0.803921568627451" d="M 91.5 297 L 89.5 300 L 91.5 297 Z " /><path fill="rgb(0,0,0)" stroke="rgb(0,0,0)" stroke-width="1" opacity="0.803921568627451" d="M 100.5 297 L 102.5 300 L 100.5 297 Z " /><path fill="rgb(0,0,0)" stroke="rgb(0,0,0)" stroke-width="1" opacity="0.803921568627451" d="M 85.5 302 L 82.5 306 L 85.5 302 Z " /><path fill="rgb(0,0,0)" stroke="rgb(0,0,0)" stroke-width="1" opacity="0.803921568627451" d="M 78.5 308 L 75.5 312 L 78.5 308 Z " /><path fill="rgb(0,0,0)" stroke="rgb(0,0,0)" stroke-width="1" opacity="0.803921568627451" d="M 71.5 314 L 68.5 318 L 71.5 314 Z " /><path fill="rgb(0,0,0)" stroke="rgb(0,0,0)" stroke-width="1" opacity="0.803921568627451" d="M 64.5 320 L 61.5 324 L 64.5 320 Z " /><path fill="rgb(0,0,0)" stroke="rgb(0,0,0)" stroke-width="1" opacity="0.803921568627451" d="M 57.5 326 L 54.5 330 L 57.5 326 Z " /><path fill="rgb(0,0,0)" stroke="rgb(0,0,0)" stroke-width="1" opacity="0.803921568627451" d="M 502.5 326 L 503 328.5 L 502 328.5 L 502.5 326 Z " /><path fill="rgb(0,0,0)" stroke="rgb(0,0,0)" stroke-width="1" opacity="0.803921568627451" d="M 50.5 332 L 47.5 336 L 50.5 332 Z " /><path fill="rgb(0,0,0)" stroke="rgb(0,0,0)" stroke-width="1" opacity="0.803921568627451" d="M 503.5 333 L 504 339.5 L 503 339.5 L 503.5 333 Z " /><path fill="rgb(0,0,0)" stroke="rgb(0,0,0)" stroke-width="1" opacity="0.803921568627451" d="M 43.5 338 L 40.5 342 L 43.5 338 Z " /><path fill="rgb(0,0,0)" stroke="rgb(0,0,0)" stroke-width="1" opacity="0.803921568627451" d="M 36.5 344 L 33.5 348 L 36.5 344 Z " /><path fill="rgb(0,0,0)" stroke="rgb(0,0,0)" stroke-width="1" opacity="0.803921568627451" d="M 503.5 348 L 504 354.5 L 503 354.5 L 503.5 348 Z " /><path fill="rgb(0,0,0)" stroke="rgb(0,0,0)" stroke-width="1" opacity="0.803921568627451" d="M 33.5 356 L 36.5 360 L 33.5 356 Z " /><path fill="rgb(0,0,0)" stroke="rgb(0,0,0)" stroke-width="1" opacity="0.803921568627451" d="M 502.5 359 L 503 361.5 L 502 361.5 L 502.5 359 Z " /><path fill="rgb(0,0,0)" stroke="rgb(0,0,0)" stroke-width="1" opacity="0.803921568627451" d="M 40.5 362 L 43.5 366 L 40.5 362 Z " /><path fill="rgb(0,0,0)" stroke="rgb(0,0,0)" stroke-width="1" opacity="0.803921568627451" d="M 47.5 368 L 50.5 372 L 47.5 368 Z " /><path fill="rgb(0,0,0)" stroke="rgb(0,0,0)" stroke-width="1" opacity="0.803921568627451" d="M 54.5 374 L 57.5 378 L 54.5 374 Z " /><path fill="rgb(0,0,0)" stroke="rgb(0,0,0)" stroke-width="1" opacity="0.803921568627451" d="M 61.5 380 L 64.5 384 L 61.5 380 Z " /><path fill="rgb(0,0,0)" stroke="rgb(0,0,0)" stroke-width="1" opacity="0.803921568627451" d="M 68.5 386 L 71.5 390 L 68.5 386 Z " /><path fill="rgb(0,0,0)" stroke="rgb(0,0,0)" stroke-width="1" opacity="0.803921568627451" d="M 75.5 392 L 78.5 396 L 75.5 392 Z " /><path fill="rgb(0,0,0)" stroke="rgb(0,0,0)" stroke-width="1" opacity="0.803921568627451" d="M 491.5 393 L 490.5 395 L 491.5 393 Z " /><path fill="rgb(0,0,0)" stroke="rgb(0,0,0)" stroke-width="1" opacity="0.803921568627451" d="M 82.5 398 L 85.5 402 L 82.5 398 Z " /><path fill="rgb(0,0,0)" stroke="rgb(0,0,0)" stroke-width="1" opacity="0.803921568627451" d="M 488.5 398 L 487.5 400 L 488.5 398 Z " /><path fill="rgb(0,0,0)" stroke="rgb(0,0,0)" stroke-width="1" opacity="0.803921568627451" d="M 486.5 401 L 485.5 403 L 486.5 401 Z " /><path fill="rgb(0,0,0)" stroke="rgb(0,0,0)" stroke-width="1" opacity="0.803921568627451" d="M 89.5 404 L 91.5 407 L 89.5 404 Z " /><path fill="rgb(0,0,0)" stroke="rgb(0,0,0)" stroke-width="1" opacity="0.803921568627451" d="M 102.5 404 L 100.5 407 L 102.5 404 Z " /><path fill="rgb(0,0,0)" stroke="rgb(0,0,0)" stroke-width="1" opacity="0.803921568627451" d="M 484.5 404 L 483.5 406 L 484.5 404 Z " /><path fill="rgb(0,0,0)" stroke="rgb(0,0,0)" stroke-width="1" opacity="0.803921568627451" d="M 481.5 408 L 479.5 411 L 481.5 408 Z " /><path fill="rgb(0,0,0)" stroke="rgb(0,0,0)" stroke-width="1" opacity="0.803921568627451" d="M 476.5 414 L 470.5 421 L 476.5 414 Z " /><path fill="rgb(0,0,0)" stroke="rgb(0,0,0)" stroke-width="1" opacity="0.803921568627451" d="M 466.5 423 L 464.5 426 L 466.5 423 Z " /><path fill="rgb(0,0,0)" stroke="rgb(0,0,0)" stroke-width="1" opacity="0.803921568627451" d="M 461.5 427 L 460.5 429 L 461.5 427 Z " /><path fill="rgb(0,0,0)" stroke="rgb(0,0,0)" stroke-width="1" opacity="0.803921568627451" d="M 458.5 429 L 457.5 431 L 458.5 429 Z " /><path fill="rgb(0,0,0)" stroke="rgb(0,0,0)" stroke-width="1" opacity="0.803921568627451" d="M 455.5 431 L 454.5 433 L 455.5 431 Z " /><path fill="rgb(0,0,0)" stroke="rgb(0,0,0)" stroke-width="1" opacity="0.803921568627451" d="M 450.5 434 L 449.5 436 L 450.5 434 Z " /><path fill="rgb(0,0,0)" stroke="rgb(0,0,0)" stroke-width="1" opacity="0.803921568627451" d="M 415.5 446 L 418 446.5 L 415.5 447 L 415.5 446 Z " /><path fill="rgb(0,0,0)" stroke="rgb(0,0,0)" stroke-width="1" opacity="0.803921568627451" d="M 392.5 447 L 397 447.5 L 392.5 448 L 392.5 447 Z " /><path fill="rgb(0,0,0)" stroke="rgb(0,0,0)" stroke-width="1" opacity="0.803921568627451" d="M 404.5 447 L 411 447.5 L 404.5 448 L 404.5 447 Z " /><path fill="rgb(0,0,0)" stroke="rgb(0,0,0)" stroke-width="1" opacity="0.803921568627451" d="M 120.5 458 L 121 462.5 L 120 462.5 L 120.5 458 Z " /><path fill="rgb(0,0,0)" stroke="rgb(0,0,0)" stroke-width="1" opacity="0.803921568627451" d="M 391.5 458 L 392 462.5 L 391 462.5 L 391.5 458 Z " /><path fill="rgb(0,0,0)" stroke="rgb(0,0,0)" stroke-width="1" opacity="0.803921568627451" d="M 129.5 484 L 130.5 486 L 129.5 484 Z " /><path fill="rgb(0,0,0)" stroke="rgb(0,0,0)" stroke-width="1" opacity="0.803921568627451" d="M 382.5 484 L 380.5 487 L 382.5 484 Z " /><path fill="rgb(0,0,0)" stroke="rgb(0,0,0)" stroke-width="1" opacity="0.803921568627451" d="M 137.5 492 L 139.5 495 L 137.5 492 Z " /><path fill="rgb(0,0,0)" stroke="rgb(0,0,0)" stroke-width="1" opacity="0.803921568627451" d="M 373.5 493 L 372.5 495 L 373.5 493 Z " /><path fill="rgb(0,0,0)" stroke="rgb(0,0,0)" stroke-width="1" opacity="0.803921568627451" d="M 161.5 503 L 166 503.5 L 161.5 504 L 161.5 503 Z " /><path fill="rgb(0,0,0)" stroke="rgb(0,0,0)" stroke-width="1" opacity="0.803921568627451" d="M 346.5 503 L 351 503.5 L 346.5 504 L 346.5 503 Z " /><path fill="rgb(100,175,215)" stroke="rgb(100,175,215)" stroke-width="1" opacity="1" d="M 150.5 29 L 149.5 31 L 150.5 29 Z " /><path fill="rgb(100,175,215)" stroke="rgb(100,175,215)" stroke-width="1" opacity="1" d="M 369.5 37 L 370.5 39 L 369.5 37 Z " /><path fill="rgb(100,175,215)" stroke="rgb(100,175,215)" stroke-width="1" opacity="1" d="M 136.5 51 L 137 53.5 L 136 53.5 L 136.5 51 Z " /><path fill="rgb(100,175,215)" stroke="rgb(100,175,215)" stroke-width="1" opacity="1" d="M 375.5 52 L 376 54.5 L 375 54.5 L 375.5 52 Z " /><path fill="rgb(100,175,215)" stroke="rgb(100,175,215)" stroke-width="1" opacity="1" d="M 174.5 84 L 175.5 86 L 174.5 84 Z " /><path fill="rgb(100,175,215)" stroke="rgb(100,175,215)" stroke-width="1" opacity="1" d="M 179.5 88 L 181.5 91 L 179.5 88 Z " /><path fill="rgb(100,175,215)" stroke="rgb(100,175,215)" stroke-width="1" opacity="1" d="M 189.5 98 L 191.5 101 L 189.5 98 Z " /><path fill="rgb(100,175,215)" stroke="rgb(100,175,215)" stroke-width="1" opacity="1" d="M 194.5 104 L 195.5 106 L 194.5 104 Z " /><path fill="rgb(100,175,215)" stroke="rgb(100,175,215)" stroke-width="1" opacity="1" d="M 215.5 154 L 216 156.5 L 215 156.5 L 215.5 154 Z " /><path fill="rgb(100,175,215)" stroke="rgb(100,175,215)" stroke-width="1" opacity="1" d="M 215.5 179 L 216 181.5 L 215 181.5 L 215.5 179 Z " /><path fill="rgb(100,175,215)" stroke="rgb(100,175,215)" stroke-width="1" opacity="1" d="M 195.5 230 L 194.5 232 L 195.5 230 Z " /><path fill="rgb(100,175,215)" stroke="rgb(100,175,215)" stroke-width="1" opacity="1" d="M 191.5 235 L 189.5 238 L 191.5 235 Z " /><path fill="rgb(100,175,215)" stroke="rgb(100,175,215)" stroke-width="1" opacity="1" d="M 181.5 245 L 179.5 248 L 181.5 245 Z " /><path fill="rgb(100,175,215)" stroke="rgb(100,175,215)" stroke-width="1" opacity="1" d="M 175.5 250 L 174.5 252 L 175.5 250 Z " /><path fill="rgb(100,175,215)" stroke="rgb(100,175,215)" stroke-width="1" opacity="1" d="M 337.5 260 L 336.5 262 L 337.5 260 Z " /><path fill="rgb(100,175,215)" stroke="rgb(100,175,215)" stroke-width="1" opacity="1" d="M 333.5 263 L 330.5 267 L 333.5 263 Z " /><path fill="rgb(100,175,215)" stroke="rgb(100,175,215)" stroke-width="1" opacity="1" d="M 322.5 274 L 320.5 277 L 322.5 274 Z " /><path fill="rgb(100,175,215)" stroke="rgb(100,175,215)" stroke-width="1" opacity="1" d="M 317.5 280 L 316.5 282 L 317.5 280 Z " /><path fill="rgb(100,175,215)" stroke="rgb(100,175,215)" stroke-width="1" opacity="1" d="M 314.5 284 L 313.5 286 L 314.5 284 Z " /><path fill="rgb(100,175,215)" stroke="rgb(100,175,215)" stroke-width="1" opacity="1" d="M 296.5 330 L 297 332.5 L 296 332.5 L 296.5 330 Z " /><path fill="rgb(100,175,215)" stroke="rgb(100,175,215)" stroke-width="1" opacity="1" d="M 296.5 355 L 297 357.5 L 296 357.5 L 296.5 355 Z " /><path fill="rgb(100,175,215)" stroke="rgb(100,175,215)" stroke-width="1" opacity="1" d="M 316.5 406 L 317.5 408 L 316.5 406 Z " /><path fill="rgb(100,175,215)" stroke="rgb(100,175,215)" stroke-width="1" opacity="1" d="M 320.5 411 L 322.5 414 L 320.5 411 Z " /><path fill="rgb(100,175,215)" stroke="rgb(100,175,215)" stroke-width="1" opacity="1" d="M 330.5 421 L 332.5 424 L 330.5 421 Z " /><path fill="rgb(100,175,215)" stroke="rgb(100,175,215)" stroke-width="1" opacity="1" d="M 240.5 422 L 304 422.5 L 240.5 423 L 240.5 422 Z " /><path fill="rgb(100,175,215)" stroke="rgb(100,175,215)" stroke-width="1" opacity="1" d="M 336.5 426 L 337.5 428 L 336.5 426 Z " /><path fill="rgb(100,175,215)" stroke="rgb(100,175,215)" stroke-width="1" opacity="1" d="M 136.5 457 L 137 460.5 L 136 460.5 L 136.5 457 Z " /><path fill="rgb(100,175,215)" stroke="rgb(100,175,215)" stroke-width="1" opacity="1" d="M 375.5 457 L 376 459.5 L 375 459.5 L 375.5 457 Z " /><path fill="rgb(100,175,215)" stroke="rgb(100,175,215)" stroke-width="1" opacity="1" d="M 193.5 460 L 192.5 462 L 193.5 460 Z " /><path fill="rgb(100,175,215)" stroke="rgb(100,175,215)" stroke-width="1" opacity="1" d="M 318.5 460 L 319.5 462 L 318.5 460 Z " /><path fill="rgb(100,175,215)" stroke="rgb(100,175,215)" stroke-width="1" opacity="1" d="M 189.5 464 L 188.5 466 L 189.5 464 Z " /><path fill="rgb(100,175,215)" stroke="rgb(100,175,215)" stroke-width="1" opacity="1" d="M 322.5 464 L 323.5 466 L 322.5 464 Z " /><path fill="rgb(100,175,215)" stroke="rgb(100,175,215)" stroke-width="1" opacity="1" d="M 370.5 473 L 369.5 475 L 370.5 473 Z " /><path fill="rgb(100,175,215)" stroke="rgb(100,175,215)" stroke-width="1" opacity="1" d="M 149.5 481 L 150.5 483 L 149.5 481 Z " /><path fill="rgb(100,175,215)" stroke="rgb(100,175,215)" stroke-width="1" opacity="1" d="M 164.5 487 L 167 487.5 L 164.5 488 L 164.5 487 Z " /><path fill="rgb(100,175,215)" stroke="rgb(100,175,215)" stroke-width="1" opacity="1" d="M 345.5 487 L 348 487.5 L 345.5 488 L 345.5 487 Z " /><path fill="rgb(109,200,248)" stroke="rgb(109,200,248)" stroke-width="1" opacity="1" d="M 360.5 29 L 369 36.5 L 374 45.5 L 376 55.5 L 376 144 L 338.5 144 L 338 142.5 L 347 122.5 L 356 89.5 L 358 70.5 L 359 69.5 L 359 59.5 L 360 58.5 L 360.5 29 Z " /><path fill="rgb(109,200,248)" stroke="rgb(109,200,248)" stroke-width="1" opacity="1" d="M 309.5 192 L 376 192 L 376 243 Q 340 251.2 320 276.5 Q 306.8 291.3 300 312.5 L 296 330.5 L 296 357.5 L 300 375.5 L 306 390.5 Q 316.2 410.3 332.5 424 Q 344.6 434.4 360.5 441 L 376 445 L 376 456.5 L 374 466.5 Q 370.2 476.2 362.5 482 L 351.5 487 L 328 488 L 328 473.5 L 327 470.5 L 318.5 460 L 310.5 456 L 201.5 456 Q 192.8 458.8 188 465.5 L 184 473.5 L 184 488 L 160.5 487 Q 148.7 483.3 142 474.5 L 138 466.5 L 136 456.5 L 136 376 L 243.5 376 L 248 371.5 L 248 332.5 L 243.5 328 L 136.5 328 L 136 327.5 L 136 309 Q 228.1 280.9 287 218.5 L 309.5 192 Z M 192 392 L 192 408 L 193 408 L 288 408 L 288 393 L 288 392 L 192 392 Z M 240 422 L 240 439 L 241 439 L 304 439 L 304 423 L 304 422 L 240 422 Z " /><path fill="rgb(0,0,0)" stroke="rgb(0,0,0)" stroke-width="1" opacity="1" d="M 166.5 8 L 345.5 8 L 360.5 11 Q 373.2 15.8 381 25.5 L 389 39.5 L 392 54.5 L 392 144 L 408 144 L 408 119.5 L 412.5 113 L 416.5 112 L 423.5 116 L 479 164.5 L 480 168.5 Q 478.4 175.4 472.5 178 L 423.5 220 L 415.5 224 L 409 219.5 L 408 216.5 L 408 192 L 392.5 192 L 392 192.5 L 392 241 L 403.5 240 L 404.5 241 L 420.5 242 L 444.5 250 Q 465 260 479 276.5 Q 490.2 289.2 497 306.5 L 502 323.5 L 504 347.5 L 503 348.5 L 502 364.5 L 494 388.5 Q 484 409 467.5 423 Q 454.5 434 437.5 441 L 420.5 446 L 397.5 448 L 392 447 L 392 457.5 L 389 472.5 Q 384.2 485.2 374.5 493 L 360.5 501 L 345.5 504 L 166.5 504 L 151.5 501 Q 138.8 496.2 131 486.5 L 123 472.5 L 120 457.5 L 120 376 L 104 376 L 104 400.5 L 99.5 407 L 95.5 408 L 88.5 404 L 33 355.5 L 32 351.5 Q 33.6 344.6 39.5 342 L 88.5 300 L 96.5 296 L 103 300.5 L 104 303.5 L 104 328 L 119.5 328 L 120 327.5 L 120 271 L 108.5 272 L 107.5 271 L 91.5 270 L 67.5 262 Q 47 252 33 235.5 Q 21.7 222.7 15 205.5 L 10 188.5 L 8 164.5 L 9 163.5 L 10 147.5 L 18 123.5 Q 28 103 44.5 89 Q 57.2 77.7 74.5 71 L 91.5 66 L 114.5 64 L 120 65 L 120 54.5 L 123 39.5 Q 127.8 26.8 137.5 19 L 151.5 11 L 166.5 8 Z M 162 24 L 149 30 Q 141 36 137 46 Q 134 54 136 67 L 161 76 L 180 89 Q 196 103 206 124 L 214 148 L 215 164 L 216 165 L 214 189 L 209 206 Q 202 223 191 236 Q 172 259 138 268 L 136 270 L 136 328 L 241 328 L 244 329 L 248 336 L 248 369 L 247 372 L 241 376 L 136 376 L 136 463 L 141 475 Q 147 483 158 487 L 162 488 L 184 488 L 185 474 L 189 466 L 197 459 L 207 456 L 306 456 L 314 458 L 319 461 L 326 471 L 328 479 L 328 488 L 351 488 L 363 483 Q 371 477 375 467 Q 378 458 376 446 L 352 436 L 333 423 Q 315 408 305 387 L 298 365 L 297 350 L 296 349 L 298 324 L 303 307 Q 310 289 321 277 Q 340 253 375 244 L 376 243 L 376 192 L 272 192 L 269 191 L 264 185 L 264 152 L 265 149 L 272 144 L 376 144 L 376 50 L 370 37 Q 363 27 351 24 L 347 24 L 316 55 L 313 56 L 200 56 L 197 55 L 166 24 L 162 24 Z M 188 24 L 203 40 L 310 40 L 325 25 L 188 24 Z M 101 80 L 81 85 L 58 98 Q 42 110 33 128 L 27 143 L 24 157 L 24 180 L 27 194 Q 32 210 42 223 Q 62 249 101 256 L 124 256 L 138 253 Q 154 248 167 238 Q 181 226 191 209 L 197 194 L 200 180 L 200 157 L 197 143 Q 192 126 182 114 Q 167 95 144 85 L 124 80 L 101 80 Z M 425 137 L 423 156 L 417 160 L 281 160 L 280 161 L 280 176 L 417 176 L 420 177 L 424 184 L 425 199 L 459 170 L 460 168 L 425 137 Z M 389 256 L 369 261 L 346 274 Q 319 294 312 333 L 312 356 L 315 370 Q 320 386 330 399 Q 350 425 389 432 L 412 432 L 426 429 Q 443 424 456 413 Q 471 401 480 383 L 485 370 L 488 356 L 488 333 L 485 319 Q 480 302 470 290 Q 456 270 432 261 L 412 256 L 389 256 Z M 88 321 L 54 350 L 52 353 L 88 383 L 89 365 L 96 360 L 232 360 L 232 360 L 232 344 L 96 344 L 93 343 L 88 337 L 88 321 Z M 205 472 L 200 477 L 200 488 L 312 488 L 312 488 L 312 477 L 308 472 L 205 472 Z " /><path fill="rgb(0,0,0)" stroke="rgb(0,0,0)" stroke-width="1" opacity="1" d="M 272 80 L 335.5 80 L 336 80.5 L 336 96 L 272.5 96 L 272 95.5 L 272 80 Z " /><path fill="rgb(0,0,0)" stroke="rgb(0,0,0)" stroke-width="1" opacity="1" d="M 104 96 L 120 96 L 120 113.5 L 122.5 114 Q 132.2 117.8 138 125.5 L 143 136.5 Q 142.4 141.9 144 144 L 128.5 144 Q 127.5 144 128 139.5 L 124 132 L 116.5 128 L 107.5 128 L 99 133.5 Q 94.5 138 96 148.5 L 100 156 L 107.5 160 L 113.5 160 L 125.5 163 L 138 173.5 Q 143.8 180.7 144 193.5 L 142 202.5 L 138 210.5 L 130.5 218 L 120 222 L 120 240 L 104 240 L 104 222.5 L 101.5 222 Q 91.8 218.2 86 210.5 L 81 199.5 Q 81.6 194.1 80 192 L 95.5 192 Q 96.5 192 96 196.5 L 101.5 205 Q 106 209.5 116.5 208 L 125 202.5 Q 129.5 198 128 187.5 L 122.5 179 L 116.5 176 L 110.5 176 L 98.5 173 L 86 162.5 Q 80.2 155.3 80 142.5 L 83 130.5 L 93.5 118 L 104 114 L 104 96 Z " /><path fill="rgb(0,0,0)" stroke="rgb(0,0,0)" stroke-width="1" opacity="1" d="M 224 112 L 319.5 112 L 320 112.5 L 320 128 L 224.5 128 L 224 127.5 L 224 112 Z " /><path fill="rgb(0,0,0)" stroke="rgb(0,0,0)" stroke-width="1" opacity="1" d="M 392 272 L 408 272 L 408 289.5 L 410.5 290 Q 420.2 293.8 426 301.5 L 431 312.5 Q 430.4 317.9 432 320 L 416.5 320 Q 415.5 320 416 315.5 L 412 308 L 404.5 304 L 395.5 304 L 387 309.5 Q 382.5 314 384 324.5 L 388 332 L 395.5 336 L 401.5 336 L 413.5 339 L 426 349.5 Q 431.8 356.7 432 369.5 L 430 378.5 L 426 386.5 L 418.5 394 L 408 398 L 408 416 L 392 416 L 392 398.5 L 389.5 398 Q 379.8 394.2 374 386.5 L 369 375.5 Q 369.6 370.1 368 368 L 383.5 368 Q 384.5 368 384 372.5 L 389.5 381 Q 394 385.5 404.5 384 L 413 378.5 Q 417.5 374 416 363.5 L 410.5 355 L 404.5 352 L 398.5 352 L 386.5 349 L 374 338.5 Q 368.2 331.3 368 318.5 L 371 306.5 L 381.5 294 L 392 290 L 392 272 Z " /><path fill="rgb(0,0,0)" stroke="rgb(0,0,0)" stroke-width="1" opacity="1" d="M 192 392 L 287.5 392 L 288 392.5 L 288 408 L 192.5 408 L 192 407.5 L 192 392 Z " /><path fill="rgb(0,0,0)" stroke="rgb(0,0,0)" stroke-width="1" opacity="1" d="M 240 423 L 303.5 423 L 304 423.5 L 304 438 L 240.5 438 L 240 437.5 L 240 423 Z " /><path fill="rgb(129,124,94)" stroke="rgb(129,124,94)" stroke-width="1" opacity="1" d="M 146.5 32 L 143.5 36 L 146.5 32 Z " /><path fill="rgb(129,124,94)" stroke="rgb(129,124,94)" stroke-width="1" opacity="1" d="M 365.5 32 L 367.5 35 L 365.5 32 Z " /><path fill="rgb(129,124,94)" stroke="rgb(129,124,94)" stroke-width="1" opacity="1" d="M 102.5 80 L 106 80.5 L 102.5 81 L 102.5 80 Z " /><path fill="rgb(129,124,94)" stroke="rgb(129,124,94)" stroke-width="1" opacity="1" d="M 118.5 80 L 122 80.5 L 118.5 81 L 118.5 80 Z " /><path fill="rgb(129,124,94)" stroke="rgb(129,124,94)" stroke-width="1" opacity="1" d="M 126.5 81 L 129 81.5 L 126.5 82 L 126.5 81 Z " /><path fill="rgb(129,124,94)" stroke="rgb(129,124,94)" stroke-width="1" opacity="1" d="M 182.5 91 L 188.5 98 L 182.5 91 Z " /><path fill="rgb(129,124,94)" stroke="rgb(129,124,94)" stroke-width="1" opacity="1" d="M 55.5 100 L 53.5 103 L 55.5 100 Z " /><path fill="rgb(129,124,94)" stroke="rgb(129,124,94)" stroke-width="1" opacity="1" d="M 168.5 100 L 171.5 104 L 168.5 100 Z " /><path fill="rgb(129,124,94)" stroke="rgb(129,124,94)" stroke-width="1" opacity="1" d="M 176.5 108 L 179.5 112 L 176.5 108 Z " /><path fill="rgb(129,124,94)" stroke="rgb(129,124,94)" stroke-width="1" opacity="1" d="M 46.5 109 L 45.5 111 L 46.5 109 Z " /><path fill="rgb(129,124,94)" stroke="rgb(129,124,94)" stroke-width="1" opacity="1" d="M 39.5 118 L 38.5 120 L 39.5 118 Z " /><path fill="rgb(129,124,94)" stroke="rgb(129,124,94)" stroke-width="1" opacity="1" d="M 92.5 118 L 90.5 121 L 92.5 118 Z " /><path fill="rgb(129,124,94)" stroke="rgb(129,124,94)" stroke-width="1" opacity="1" d="M 131.5 118 L 137.5 125 L 131.5 118 Z " /><path fill="rgb(129,124,94)" stroke="rgb(129,124,94)" stroke-width="1" opacity="1" d="M 88.5 122 L 86.5 125 L 88.5 122 Z " /><path fill="rgb(129,124,94)" stroke="rgb(129,124,94)" stroke-width="1" opacity="1" d="M 426.5 139 L 428.5 142 L 426.5 139 Z " /><path fill="rgb(129,124,94)" stroke="rgb(129,124,94)" stroke-width="1" opacity="1" d="M 433.5 145 L 435.5 148 L 433.5 145 Z " /><path fill="rgb(129,124,94)" stroke="rgb(129,124,94)" stroke-width="1" opacity="1" d="M 440.5 151 L 442.5 154 L 440.5 151 Z " /><path fill="rgb(129,124,94)" stroke="rgb(129,124,94)" stroke-width="1" opacity="1" d="M 447.5 157 L 449.5 160 L 447.5 157 Z " /><path fill="rgb(129,124,94)" stroke="rgb(129,124,94)" stroke-width="1" opacity="1" d="M 24.5 158 L 25 160.5 L 24 160.5 L 24.5 158 Z " /><path fill="rgb(129,124,94)" stroke="rgb(129,124,94)" stroke-width="1" opacity="1" d="M 199.5 158 L 200 162.5 L 199 162.5 L 199.5 158 Z " /><path fill="rgb(129,124,94)" stroke="rgb(129,124,94)" stroke-width="1" opacity="1" d="M 86.5 163 L 87.5 165 L 86.5 163 Z " /><path fill="rgb(129,124,94)" stroke="rgb(129,124,94)" stroke-width="1" opacity="1" d="M 454.5 163 L 456.5 166 L 454.5 163 Z " /><path fill="rgb(129,124,94)" stroke="rgb(129,124,94)" stroke-width="1" opacity="1" d="M 131.5 166 L 132.5 168 L 131.5 166 Z " /><path fill="rgb(129,124,94)" stroke="rgb(129,124,94)" stroke-width="1" opacity="1" d="M 91.5 168 L 92.5 170 L 91.5 168 Z " /><path fill="rgb(129,124,94)" stroke="rgb(129,124,94)" stroke-width="1" opacity="1" d="M 456.5 170 L 454.5 173 L 456.5 170 Z " /><path fill="rgb(129,124,94)" stroke="rgb(129,124,94)" stroke-width="1" opacity="1" d="M 136.5 171 L 137.5 173 L 136.5 171 Z " /><path fill="rgb(129,124,94)" stroke="rgb(129,124,94)" stroke-width="1" opacity="1" d="M 199.5 173 L 200 177.5 L 199 177.5 L 199.5 173 Z " /><path fill="rgb(129,124,94)" stroke="rgb(129,124,94)" stroke-width="1" opacity="1" d="M 24.5 174 L 25 177.5 L 24 177.5 L 24.5 174 Z " /><path fill="rgb(129,124,94)" stroke="rgb(129,124,94)" stroke-width="1" opacity="1" d="M 449.5 176 L 447.5 179 L 449.5 176 Z " /><path fill="rgb(129,124,94)" stroke="rgb(129,124,94)" stroke-width="1" opacity="1" d="M 442.5 182 L 440.5 185 L 442.5 182 Z " /><path fill="rgb(129,124,94)" stroke="rgb(129,124,94)" stroke-width="1" opacity="1" d="M 435.5 188 L 433.5 191 L 435.5 188 Z " /><path fill="rgb(129,124,94)" stroke="rgb(129,124,94)" stroke-width="1" opacity="1" d="M 428.5 194 L 426.5 197 L 428.5 194 Z " /><path fill="rgb(129,124,94)" stroke="rgb(129,124,94)" stroke-width="1" opacity="1" d="M 86.5 211 L 91.5 217 L 86.5 211 Z " /><path fill="rgb(129,124,94)" stroke="rgb(129,124,94)" stroke-width="1" opacity="1" d="M 137.5 211 L 132.5 217 L 137.5 211 Z " /><path fill="rgb(129,124,94)" stroke="rgb(129,124,94)" stroke-width="1" opacity="1" d="M 182.5 220 L 181.5 222 L 182.5 220 Z " /><path fill="rgb(129,124,94)" stroke="rgb(129,124,94)" stroke-width="1" opacity="1" d="M 179.5 224 L 176.5 228 L 179.5 224 Z " /><path fill="rgb(129,124,94)" stroke="rgb(129,124,94)" stroke-width="1" opacity="1" d="M 45.5 225 L 47.5 228 L 45.5 225 Z " /><path fill="rgb(129,124,94)" stroke="rgb(129,124,94)" stroke-width="1" opacity="1" d="M 173.5 230 L 169.5 235 L 173.5 230 Z " /><path fill="rgb(129,124,94)" stroke="rgb(129,124,94)" stroke-width="1" opacity="1" d="M 51.5 231 L 55.5 236 L 51.5 231 Z " /><path fill="rgb(129,124,94)" stroke="rgb(129,124,94)" stroke-width="1" opacity="1" d="M 165.5 237 L 164.5 239 L 165.5 237 Z " /><path fill="rgb(129,124,94)" stroke="rgb(129,124,94)" stroke-width="1" opacity="1" d="M 188.5 238 L 182.5 245 L 188.5 238 Z " /><path fill="rgb(129,124,94)" stroke="rgb(129,124,94)" stroke-width="1" opacity="1" d="M 102.5 255 L 107 255.5 L 102.5 256 L 102.5 255 Z " /><path fill="rgb(129,124,94)" stroke="rgb(129,124,94)" stroke-width="1" opacity="1" d="M 117.5 255 L 122 255.5 L 117.5 256 L 117.5 255 Z " /><path fill="rgb(129,124,94)" stroke="rgb(129,124,94)" stroke-width="1" opacity="1" d="M 390.5 256 L 394 256.5 L 390.5 257 L 390.5 256 Z " /><path fill="rgb(129,124,94)" stroke="rgb(129,124,94)" stroke-width="1" opacity="1" d="M 406.5 256 L 410 256.5 L 406.5 257 L 406.5 256 Z " /><path fill="rgb(129,124,94)" stroke="rgb(129,124,94)" stroke-width="1" opacity="1" d="M 383.5 257 L 386 257.5 L 383.5 258 L 383.5 257 Z " /><path fill="rgb(129,124,94)" stroke="rgb(129,124,94)" stroke-width="1" opacity="1" d="M 329.5 267 L 323.5 274 L 329.5 267 Z " /><path fill="rgb(129,124,94)" stroke="rgb(129,124,94)" stroke-width="1" opacity="1" d="M 343.5 276 L 340.5 280 L 343.5 276 Z " /><path fill="rgb(129,124,94)" stroke="rgb(129,124,94)" stroke-width="1" opacity="1" d="M 456.5 276 L 459.5 280 L 456.5 276 Z " /><path fill="rgb(129,124,94)" stroke="rgb(129,124,94)" stroke-width="1" opacity="1" d="M 335.5 284 L 332.5 288 L 335.5 284 Z " /><path fill="rgb(129,124,94)" stroke="rgb(129,124,94)" stroke-width="1" opacity="1" d="M 465.5 285 L 467.5 288 L 465.5 285 Z " /><path fill="rgb(129,124,94)" stroke="rgb(129,124,94)" stroke-width="1" opacity="1" d="M 380.5 294 L 378.5 297 L 380.5 294 Z " /><path fill="rgb(129,124,94)" stroke="rgb(129,124,94)" stroke-width="1" opacity="1" d="M 419.5 294 L 425.5 301 L 419.5 294 Z " /><path fill="rgb(129,124,94)" stroke="rgb(129,124,94)" stroke-width="1" opacity="1" d="M 376.5 298 L 374.5 301 L 376.5 298 Z " /><path fill="rgb(129,124,94)" stroke="rgb(129,124,94)" stroke-width="1" opacity="1" d="M 85.5 323 L 83.5 326 L 85.5 323 Z " /><path fill="rgb(129,124,94)" stroke="rgb(129,124,94)" stroke-width="1" opacity="1" d="M 313.5 327 L 314 329.5 L 313 329.5 L 313.5 327 Z " /><path fill="rgb(129,124,94)" stroke="rgb(129,124,94)" stroke-width="1" opacity="1" d="M 78.5 329 L 76.5 332 L 78.5 329 Z " /><path fill="rgb(129,124,94)" stroke="rgb(129,124,94)" stroke-width="1" opacity="1" d="M 312.5 334 L 313 337.5 L 312 337.5 L 312.5 334 Z " /><path fill="rgb(129,124,94)" stroke="rgb(129,124,94)" stroke-width="1" opacity="1" d="M 487.5 334 L 488 338.5 L 487 338.5 L 487.5 334 Z " /><path fill="rgb(129,124,94)" stroke="rgb(129,124,94)" stroke-width="1" opacity="1" d="M 71.5 335 L 69.5 338 L 71.5 335 Z " /><path fill="rgb(129,124,94)" stroke="rgb(129,124,94)" stroke-width="1" opacity="1" d="M 374.5 339 L 375.5 341 L 374.5 339 Z " /><path fill="rgb(129,124,94)" stroke="rgb(129,124,94)" stroke-width="1" opacity="1" d="M 64.5 341 L 62.5 344 L 64.5 341 Z " /><path fill="rgb(129,124,94)" stroke="rgb(129,124,94)" stroke-width="1" opacity="1" d="M 419.5 342 L 420.5 344 L 419.5 342 Z " /><path fill="rgb(129,124,94)" stroke="rgb(129,124,94)" stroke-width="1" opacity="1" d="M 379.5 344 L 380.5 346 L 379.5 344 Z " /><path fill="rgb(129,124,94)" stroke="rgb(129,124,94)" stroke-width="1" opacity="1" d="M 57.5 347 L 55.5 350 L 57.5 347 Z " /><path fill="rgb(129,124,94)" stroke="rgb(129,124,94)" stroke-width="1" opacity="1" d="M 424.5 347 L 425.5 349 L 424.5 347 Z " /><path fill="rgb(129,124,94)" stroke="rgb(129,124,94)" stroke-width="1" opacity="1" d="M 487.5 349 L 488 353.5 L 487 353.5 L 487.5 349 Z " /><path fill="rgb(129,124,94)" stroke="rgb(129,124,94)" stroke-width="1" opacity="1" d="M 312.5 350 L 313 353.5 L 312 353.5 L 312.5 350 Z " /><path fill="rgb(129,124,94)" stroke="rgb(129,124,94)" stroke-width="1" opacity="1" d="M 55.5 354 L 57.5 357 L 55.5 354 Z " /><path fill="rgb(129,124,94)" stroke="rgb(129,124,94)" stroke-width="1" opacity="1" d="M 62.5 360 L 64.5 363 L 62.5 360 Z " /><path fill="rgb(129,124,94)" stroke="rgb(129,124,94)" stroke-width="1" opacity="1" d="M 69.5 366 L 71.5 369 L 69.5 366 Z " /><path fill="rgb(129,124,94)" stroke="rgb(129,124,94)" stroke-width="1" opacity="1" d="M 76.5 372 L 78.5 375 L 76.5 372 Z " /><path fill="rgb(129,124,94)" stroke="rgb(129,124,94)" stroke-width="1" opacity="1" d="M 83.5 378 L 85.5 381 L 83.5 378 Z " /><path fill="rgb(129,124,94)" stroke="rgb(129,124,94)" stroke-width="1" opacity="1" d="M 374.5 387 L 379.5 393 L 374.5 387 Z " /><path fill="rgb(129,124,94)" stroke="rgb(129,124,94)" stroke-width="1" opacity="1" d="M 425.5 387 L 420.5 393 L 425.5 387 Z " /><path fill="rgb(129,124,94)" stroke="rgb(129,124,94)" stroke-width="1" opacity="1" d="M 470.5 396 L 469.5 398 L 470.5 396 Z " /><path fill="rgb(129,124,94)" stroke="rgb(129,124,94)" stroke-width="1" opacity="1" d="M 332.5 400 L 335.5 404 L 332.5 400 Z " /><path fill="rgb(129,124,94)" stroke="rgb(129,124,94)" stroke-width="1" opacity="1" d="M 466.5 401 L 457.5 411 L 466.5 401 Z " /><path fill="rgb(129,124,94)" stroke="rgb(129,124,94)" stroke-width="1" opacity="1" d="M 341.5 409 L 343.5 412 L 341.5 409 Z " /><path fill="rgb(129,124,94)" stroke="rgb(129,124,94)" stroke-width="1" opacity="1" d="M 453.5 413 L 452.5 415 L 453.5 413 Z " /><path fill="rgb(129,124,94)" stroke="rgb(129,124,94)" stroke-width="1" opacity="1" d="M 323.5 414 L 329.5 421 L 323.5 414 Z " /><path fill="rgb(129,124,94)" stroke="rgb(129,124,94)" stroke-width="1" opacity="1" d="M 390.5 431 L 395 431.5 L 390.5 432 L 390.5 431 Z " /><path fill="rgb(129,124,94)" stroke="rgb(129,124,94)" stroke-width="1" opacity="1" d="M 405.5 431 L 410 431.5 L 405.5 432 L 405.5 431 Z " /><path fill="rgb(129,124,94)" stroke="rgb(129,124,94)" stroke-width="1" opacity="1" d="M 191.5 462 L 190.5 464 L 191.5 462 Z " /><path fill="rgb(129,124,94)" stroke="rgb(129,124,94)" stroke-width="1" opacity="1" d="M 320.5 462 L 321.5 464 L 320.5 462 Z " /><path fill="rgb(129,124,94)" stroke="rgb(129,124,94)" stroke-width="1" opacity="1" d="M 203.5 473 L 201.5 476 L 203.5 473 Z " /><path fill="rgb(129,124,94)" stroke="rgb(129,124,94)" stroke-width="1" opacity="1" d="M 308.5 473 L 310.5 476 L 308.5 473 Z " /><path fill="rgb(129,124,94)" stroke="rgb(129,124,94)" stroke-width="1" opacity="1" d="M 143.5 476 L 144.5 478 L 143.5 476 Z " /><path fill="rgb(129,124,94)" stroke="rgb(129,124,94)" stroke-width="1" opacity="1" d="M 368.5 476 L 367.5 478 L 368.5 476 Z " /><path fill="rgb(129,124,94)" stroke="rgb(129,124,94)" stroke-width="1" opacity="1" d="M 146.5 479 L 147.5 481 L 146.5 479 Z " /><path fill="rgb(129,124,94)" stroke="rgb(129,124,94)" stroke-width="1" opacity="1" d="M 365.5 479 L 364.5 481 L 365.5 479 Z " /><path fill="rgb(247,204,115)" stroke="rgb(247,204,115)" stroke-width="1" opacity="1" d="M 106.5 80 L 109 80.5 L 106.5 81 L 106.5 80 Z " /><path fill="rgb(247,204,115)" stroke="rgb(247,204,115)" stroke-width="1" opacity="1" d="M 112.5 80 L 118 80.5 L 112.5 81 L 112.5 80 Z " /><path fill="rgb(247,204,115)" stroke="rgb(247,204,115)" stroke-width="1" opacity="1" d="M 58.5 98 L 57.5 100 L 58.5 98 Z " /><path fill="rgb(247,204,115)" stroke="rgb(247,204,115)" stroke-width="1" opacity="1" d="M 165.5 98 L 166.5 100 L 165.5 98 Z " /><path fill="rgb(247,204,115)" stroke="rgb(247,204,115)" stroke-width="1" opacity="1" d="M 52.5 103 L 47.5 109 L 52.5 103 Z " /><path fill="rgb(247,204,115)" stroke="rgb(247,204,115)" stroke-width="1" opacity="1" d="M 172.5 104 L 175.5 108 L 172.5 104 Z " /><path fill="rgb(247,204,115)" stroke="rgb(247,204,115)" stroke-width="1" opacity="1" d="M 43.5 113 L 42.5 115 L 43.5 113 Z " /><path fill="rgb(247,204,115)" stroke="rgb(247,204,115)" stroke-width="1" opacity="1" d="M 180.5 113 L 181.5 115 L 180.5 113 Z " /><path fill="rgb(247,204,115)" stroke="rgb(247,204,115)" stroke-width="1" opacity="1" d="M 183.5 117 Q 191.6 127.4 196 141.5 L 199 154.5 L 200 172.5 L 199 173.5 L 198 186.5 L 193 202.5 Q 185.9 218.4 174.5 230 Q 161.2 243.7 141.5 251 L 125.5 255 L 107.5 256 L 82.5 251 L 63 240.5 L 82.5 239 L 104 234 L 104 240 L 120 240 L 120 227.5 L 121.5 227 Q 143 216.5 158 199.5 Q 170.7 185.7 178 166.5 L 183 148.5 L 184 123.5 Q 181.4 121.9 183.5 117 Z " /><path fill="rgb(247,204,115)" stroke="rgb(247,204,115)" stroke-width="1" opacity="1" d="M 102.5 131 L 99.5 135 L 102.5 131 Z " /><path fill="rgb(247,204,115)" stroke="rgb(247,204,115)" stroke-width="1" opacity="1" d="M 121.5 131 L 124.5 135 L 121.5 131 Z " /><path fill="rgb(247,204,115)" stroke="rgb(247,204,115)" stroke-width="1" opacity="1" d="M 424.5 138 L 459 167.5 L 457.5 170 L 424.5 198 L 424 181.5 L 420.5 177 L 418.5 176 L 280 176 L 280 160.5 L 280.5 160 L 418.5 160 L 423 156.5 L 424 154.5 L 424.5 138 Z " /><path fill="rgb(247,204,115)" stroke="rgb(247,204,115)" stroke-width="1" opacity="1" d="M 99.5 153 L 102.5 157 L 99.5 153 Z " /><path fill="rgb(247,204,115)" stroke="rgb(247,204,115)" stroke-width="1" opacity="1" d="M 24.5 161 L 25 165.5 L 24 165.5 L 24.5 161 Z " /><path fill="rgb(247,204,115)" stroke="rgb(247,204,115)" stroke-width="1" opacity="1" d="M 24.5 171 L 25 173.5 L 24 173.5 L 24.5 171 Z " /><path fill="rgb(247,204,115)" stroke="rgb(247,204,115)" stroke-width="1" opacity="1" d="M 121.5 179 L 124.5 183 L 121.5 179 Z " /><path fill="rgb(247,204,115)" stroke="rgb(247,204,115)" stroke-width="1" opacity="1" d="M 99.5 201 L 102.5 205 L 99.5 201 Z " /><path fill="rgb(247,204,115)" stroke="rgb(247,204,115)" stroke-width="1" opacity="1" d="M 124.5 201 L 121.5 205 L 124.5 201 Z " /><path fill="rgb(247,204,115)" stroke="rgb(247,204,115)" stroke-width="1" opacity="1" d="M 109.5 207 L 112 207.5 L 109.5 208 L 109.5 207 Z " /><path fill="rgb(247,204,115)" stroke="rgb(247,204,115)" stroke-width="1" opacity="1" d="M 92.5 217 L 93.5 219 L 92.5 217 Z " /><path fill="rgb(247,204,115)" stroke="rgb(247,204,115)" stroke-width="1" opacity="1" d="M 131.5 217 L 130.5 219 L 131.5 217 Z " /><path fill="rgb(247,204,115)" stroke="rgb(247,204,115)" stroke-width="1" opacity="1" d="M 42.5 221 L 43.5 223 L 42.5 221 Z " /><path fill="rgb(247,204,115)" stroke="rgb(247,204,115)" stroke-width="1" opacity="1" d="M 48.5 228 L 50.5 231 L 48.5 228 Z " /><path fill="rgb(247,204,115)" stroke="rgb(247,204,115)" stroke-width="1" opacity="1" d="M 57.5 236 L 58.5 238 L 57.5 236 Z " /><path fill="rgb(247,204,115)" stroke="rgb(247,204,115)" stroke-width="1" opacity="1" d="M 394.5 256 L 400 256.5 L 394.5 257 L 394.5 256 Z " /><path fill="rgb(247,204,115)" stroke="rgb(247,204,115)" stroke-width="1" opacity="1" d="M 403.5 256 L 406 256.5 L 403.5 257 L 403.5 256 Z " /><path fill="rgb(247,204,115)" stroke="rgb(247,204,115)" stroke-width="1" opacity="1" d="M 346.5 274 L 345.5 276 L 346.5 274 Z " /><path fill="rgb(247,204,115)" stroke="rgb(247,204,115)" stroke-width="1" opacity="1" d="M 453.5 274 L 454.5 276 L 453.5 274 Z " /><path fill="rgb(247,204,115)" stroke="rgb(247,204,115)" stroke-width="1" opacity="1" d="M 339.5 280 L 336.5 284 L 339.5 280 Z " /><path fill="rgb(247,204,115)" stroke="rgb(247,204,115)" stroke-width="1" opacity="1" d="M 460.5 280 L 464.5 285 L 460.5 280 Z " /><path fill="rgb(247,204,115)" stroke="rgb(247,204,115)" stroke-width="1" opacity="1" d="M 331.5 289 L 330.5 291 L 331.5 289 Z " /><path fill="rgb(247,204,115)" stroke="rgb(247,204,115)" stroke-width="1" opacity="1" d="M 468.5 289 L 469.5 291 L 468.5 289 Z " /><path fill="rgb(247,204,115)" stroke="rgb(247,204,115)" stroke-width="1" opacity="1" d="M 471.5 293 Q 479.6 303.4 484 317.5 L 487 330.5 L 488 348.5 L 484 370.5 L 476 388.5 Q 467.3 402.8 454.5 413 Q 442.7 422.7 426.5 428 L 413.5 431 L 395.5 432 L 370.5 427 L 351 416.5 L 370.5 415 L 392 410 L 392 416 L 408 416 L 408 403.5 L 409.5 403 Q 431 392.5 446 375.5 Q 458.7 361.7 466 342.5 L 471 324.5 L 472 299.5 Q 469.4 297.9 471.5 293 Z " /><path fill="rgb(247,204,115)" stroke="rgb(247,204,115)" stroke-width="1" opacity="1" d="M 390.5 307 L 387.5 311 L 390.5 307 Z " /><path fill="rgb(247,204,115)" stroke="rgb(247,204,115)" stroke-width="1" opacity="1" d="M 409.5 307 L 412.5 311 L 409.5 307 Z " /><path fill="rgb(247,204,115)" stroke="rgb(247,204,115)" stroke-width="1" opacity="1" d="M 87.5 322 L 88 338.5 L 91.5 343 L 93.5 344 L 232 344 L 232 359.5 L 231.5 360 L 93.5 360 L 89 363.5 L 88 365.5 L 87.5 382 L 53 352.5 L 54.5 350 L 87.5 322 Z " /><path fill="rgb(247,204,115)" stroke="rgb(247,204,115)" stroke-width="1" opacity="1" d="M 387.5 329 L 390.5 333 L 387.5 329 Z " /><path fill="rgb(247,204,115)" stroke="rgb(247,204,115)" stroke-width="1" opacity="1" d="M 312.5 338 L 313 342.5 L 312 342.5 L 312.5 338 Z " /><path fill="rgb(247,204,115)" stroke="rgb(247,204,115)" stroke-width="1" opacity="1" d="M 312.5 347 L 313 349.5 L 312 349.5 L 312.5 347 Z " /><path fill="rgb(247,204,115)" stroke="rgb(247,204,115)" stroke-width="1" opacity="1" d="M 409.5 355 L 412.5 359 L 409.5 355 Z " /><path fill="rgb(247,204,115)" stroke="rgb(247,204,115)" stroke-width="1" opacity="1" d="M 387.5 377 L 390.5 381 L 387.5 377 Z " /><path fill="rgb(247,204,115)" stroke="rgb(247,204,115)" stroke-width="1" opacity="1" d="M 412.5 377 L 409.5 381 L 412.5 377 Z " /><path fill="rgb(247,204,115)" stroke="rgb(247,204,115)" stroke-width="1" opacity="1" d="M 397.5 383 L 400 383.5 L 397.5 384 L 397.5 383 Z " /><path fill="rgb(247,204,115)" stroke="rgb(247,204,115)" stroke-width="1" opacity="1" d="M 380.5 393 L 381.5 395 L 380.5 393 Z " /><path fill="rgb(247,204,115)" stroke="rgb(247,204,115)" stroke-width="1" opacity="1" d="M 419.5 393 L 418.5 395 L 419.5 393 Z " /><path fill="rgb(247,204,115)" stroke="rgb(247,204,115)" stroke-width="1" opacity="1" d="M 330.5 397 L 331.5 399 L 330.5 397 Z " /><path fill="rgb(247,204,115)" stroke="rgb(247,204,115)" stroke-width="1" opacity="1" d="M 336.5 404 L 340.5 409 L 336.5 404 Z " /><path fill="rgb(247,204,115)" stroke="rgb(247,204,115)" stroke-width="1" opacity="1" d="M 345.5 412 L 346.5 414 L 345.5 412 Z " /></svg>