<svg width="512" height="512" version="1.1" xmlns="http://www.w3.org/2000/svg" desc="Created with imagetracer.js version 1.2.6" ><path fill="rgb(0,0,0)" stroke="rgb(0,0,0)" stroke-width="1" opacity="0" d="M 0 0 L 391.5 0 L 392 0.5 L 392 30 L 458.5 30 L 327.5 162 L 315.5 172 L 195.5 53 L 19 228.5 L 17.5 231 L 4 243.5 L 25.5 266 L 176 117.5 L 183.5 109 L 196.5 98 L 316.5 217 L 481.5 53 L 482 120 L 511.5 120 L 512 120.5 L 512 482 L 482.5 482 L 482 481.5 L 482 180 L 392 180 L 392 481.5 L 391.5 482 L 362 482 L 362 300 L 271 300 L 271 481.5 L 270.5 482 L 241 482 L 241 240 L 151 240 L 151 481.5 L 150.5 482 L 121 482 L 121 330 L 30 330 L 30 481.5 L 29.5 482 L 0 482 L 0 0 Z " /><path fill="rgb(47,72,105)" stroke="rgb(47,72,105)" stroke-width="1" opacity="1" d="M 0 482 L 511.5 482 L 512 482.5 L 512 512 L 0.5 512 L 0 511.5 L 0 482 Z " /><path fill="rgb(89,195,105)" stroke="rgb(89,195,105)" stroke-width="1" opacity="0.9764705882352941" d="M 392 0 L 512 0 L 512 120 L 482 120 L 482 53.5 L 470.5 64 L 317.5 216 L 314.5 216 L 273 174.5 L 273 173 L 271.5 173 L 256 157.5 L 256.5 113 L 316.5 172 L 460 30.5 L 392 30 L 392 0 Z " /><path fill="rgb(89,195,105)" stroke="rgb(89,195,105)" stroke-width="1" opacity="0.9764705882352941" d="M 190.5 102 L 185.5 108 L 190.5 102 Z " /><path fill="rgb(240,56,0)" stroke="rgb(240,56,0)" stroke-width="1" opacity="1" d="M 437 180 L 481.5 180 L 482 180.5 L 482 482 L 437.5 482 L 437 481.5 L 437 180 Z " /><path fill="rgb(240,56,0)" stroke="rgb(240,56,0)" stroke-width="1" opacity="1" d="M 196 240 L 240.5 240 L 241 240.5 L 241 482 L 196.5 482 L 196 481.5 L 196 240 Z " /><path fill="rgb(211,218,64)" stroke="rgb(211,218,64)" stroke-width="1" opacity="0.9803921568627451" d="M 459.5 30 L 455.5 35 L 459.5 30 Z " /><path fill="rgb(211,218,64)" stroke="rgb(211,218,64)" stroke-width="1" opacity="0.9803921568627451" d="M 195.5 53 L 256 112.5 L 255.5 157 L 195.5 98 L 185 107.5 Q 185.8 109.8 183.5 109 L 25.5 266 L 4 243.5 L 195.5 53 Z " /><path fill="rgb(211,218,64)" stroke="rgb(211,218,64)" stroke-width="1" opacity="0.9803921568627451" d="M 469.5 64 L 463.5 71 L 469.5 64 Z " /><path fill="rgb(211,218,64)" stroke="rgb(211,218,64)" stroke-width="1" opacity="0.9803921568627451" d="M 271 300 L 315.5 300 L 316 300.5 L 316 482 L 271.5 482 L 271 481.5 L 271 300 Z " /><path fill="rgb(211,218,64)" stroke="rgb(211,218,64)" stroke-width="1" opacity="0.9803921568627451" d="M 30 330 L 75.5 330 L 76 330.5 L 76 482 L 30.5 482 L 30 481.5 L 30 330 Z " /><path fill="rgb(255,100,26)" stroke="rgb(255,100,26)" stroke-width="1" opacity="1" d="M 392 180 L 436.5 180 L 437 180.5 L 437 482 L 392.5 482 L 392 481.5 L 392 180 Z " /><path fill="rgb(255,100,26)" stroke="rgb(255,100,26)" stroke-width="1" opacity="1" d="M 151 240 L 195.5 240 L 196 240.5 L 196 482 L 151.5 482 L 151 481.5 L 151 240 Z " /><path fill="rgb(250,190,43)" stroke="rgb(250,190,43)" stroke-width="1" opacity="0.996078431372549" d="M 175.5 117 L 171.5 122 L 175.5 117 Z " /><path fill="rgb(250,190,43)" stroke="rgb(250,190,43)" stroke-width="1" opacity="0.996078431372549" d="M 31.5 216 L 19.5 229 L 31.5 216 Z " /><path fill="rgb(250,190,43)" stroke="rgb(250,190,43)" stroke-width="1" opacity="0.996078431372549" d="M 316 300 L 361.5 300 L 362 300.5 L 362 482 L 316.5 482 L 316 481.5 L 316 300 Z " /><path fill="rgb(250,190,43)" stroke="rgb(250,190,43)" stroke-width="1" opacity="0.996078431372549" d="M 76 330 L 120.5 330 L 121 330.5 L 121 482 L 76.5 482 L 76 481.5 L 76 330 Z " /></svg>