<svg width="512" height="512" version="1.1" xmlns="http://www.w3.org/2000/svg" desc="Created with imagetracer.js version 1.2.6" ><path fill="rgb(240,56,0)" stroke="rgb(240,56,0)" stroke-width="1" opacity="0.9921568627450981" d="M 315.5 54 L 481.5 218 L 482 150 L 511.5 150 L 512 150.5 L 512 270 L 392.5 270 L 392 269.5 L 392 240 L 460 239.5 Q 389.6 166.4 315.5 97 L 256 155.5 L 256 113.5 L 315.5 54 Z " /><path fill="rgb(0,0,0)" stroke="rgb(0,0,0)" stroke-width="1" opacity="0" d="M 0 0 L 20 0.5 L 0 19.5 L 0 0 Z " /><path fill="rgb(0,0,0)" stroke="rgb(0,0,0)" stroke-width="1" opacity="0" d="M 23.5 0 L 511.5 0 L 512 0.5 L 512 150 L 482 150 L 482 216.5 L 457.5 193 L 315.5 53 L 195.5 172 L 23.5 0 Z " /><path fill="rgb(0,0,0)" stroke="rgb(0,0,0)" stroke-width="1" opacity="0" d="M 0.5 23 L 196.5 217 L 316.5 98 L 459 239.5 L 392 240 L 392 269.5 L 392.5 270 L 512 270 L 512 482 L 482.5 482 L 482 481.5 L 482 330 L 392 330 L 392 481.5 L 391.5 482 L 362 482 L 362 240 L 271 240 L 271 481.5 L 270.5 482 L 241 482 L 241 300 L 150 300 L 150 481.5 L 149.5 482 L 120 482 L 120 180.5 L 119.5 180 L 30 180 L 30 481.5 L 29.5 482 L 0 482 L 0.5 23 Z " /><path fill="rgb(253,95,24)" stroke="rgb(253,95,24)" stroke-width="1" opacity="0.35294117647058826" d="M 20.5 0 L 0.5 21 L 20.5 0 Z " /><path fill="rgb(253,95,24)" stroke="rgb(253,95,24)" stroke-width="1" opacity="0.35294117647058826" d="M 22.5 0 L 169.5 147 L 196.5 172 L 316.5 53 L 425.5 163 L 315.5 54 L 195.5 173 L 22.5 0 Z " /><path fill="rgb(253,95,24)" stroke="rgb(253,95,24)" stroke-width="1" opacity="0.35294117647058826" d="M 0.5 22 L 196.5 216 L 316.5 97 L 335.5 117 L 315.5 98 L 195.5 217 L 0.5 22 Z " /><path fill="rgb(253,95,24)" stroke="rgb(253,95,24)" stroke-width="1" opacity="0.35294117647058826" d="M 355.5 135 L 459.5 240 L 355.5 135 Z " /><path fill="rgb(253,95,24)" stroke="rgb(253,95,24)" stroke-width="1" opacity="0.35294117647058826" d="M 457.5 193 L 481.5 218 L 457.5 193 Z " /><path fill="rgb(47,72,105)" stroke="rgb(47,72,105)" stroke-width="1" opacity="1" d="M 0 482 L 511.5 482 L 512 482.5 L 512 512 L 0.5 512 L 0 511.5 L 0 482 Z " /><path fill="rgb(254,100,26)" stroke="rgb(254,100,26)" stroke-width="1" opacity="0.996078431372549" d="M 21.5 0 L 185.5 164 L 196.5 173 L 256 114.5 L 256 156.5 L 196.5 216 L 0 21.5 L 21.5 0 Z " /><path fill="rgb(250,190,44)" stroke="rgb(250,190,44)" stroke-width="1" opacity="1" d="M 196 300 L 240.5 300 L 241 300.5 L 241 482 L 196.5 482 L 196 481.5 L 196 300 Z " /><path fill="rgb(250,190,44)" stroke="rgb(250,190,44)" stroke-width="1" opacity="1" d="M 437 330 L 481.5 330 L 482 330.5 L 482 482 L 437.5 482 L 437 481.5 L 437 330 Z " /><path fill="rgb(150,222,60)" stroke="rgb(150,222,60)" stroke-width="1" opacity="1" d="M 30 180 L 74.5 180 L 75 180.5 L 75 482 L 30.5 482 L 30 481.5 L 30 180 Z " /><path fill="rgb(150,222,60)" stroke="rgb(150,222,60)" stroke-width="1" opacity="1" d="M 271 240 L 315.5 240 L 316 240.5 L 316 482 L 271.5 482 L 271 481.5 L 271 240 Z " /><path fill="rgb(254,216,66)" stroke="rgb(254,216,66)" stroke-width="1" opacity="1" d="M 150 300 L 195.5 300 L 196 300.5 L 196 482 L 150.5 482 L 150 481.5 L 150 300 Z " /><path fill="rgb(254,216,66)" stroke="rgb(254,216,66)" stroke-width="1" opacity="1" d="M 392 330 L 436.5 330 L 437 330.5 L 437 482 L 392.5 482 L 392 481.5 L 392 330 Z " /><path fill="rgb(88,194,106)" stroke="rgb(88,194,106)" stroke-width="1" opacity="1" d="M 75 180 L 119.5 180 L 120 180.5 L 120 482 L 75.5 482 L 75 481.5 L 75 180 Z " /><path fill="rgb(88,194,106)" stroke="rgb(88,194,106)" stroke-width="1" opacity="1" d="M 316 240 L 361.5 240 L 362 240.5 L 362 482 L 316.5 482 L 316 481.5 L 316 240 Z " /></svg>